<svg width="35" height="39" viewBox="0 0 35 39" fill="none" xmlns="http://www.w3.org/2000/svg">
<path d="M17.5 0C19.8206 0 22.0462 0.913092 23.6872 2.53841C25.3281 4.16372 26.25 6.36812 26.25 8.66667C26.25 10.9652 25.3281 13.1696 23.6872 14.7949C22.0462 16.4202 19.8206 17.3333 17.5 17.3333C15.1794 17.3333 12.9538 16.4202 11.3128 14.7949C9.67187 13.1696 8.75 10.9652 8.75 8.66667C8.75 6.36812 9.67187 4.16372 11.3128 2.53841C12.9538 0.913092 15.1794 0 17.5 0ZM26.25 22.8367C26.25 25.1333 25.6375 30.485 21.4594 36.465L19.6875 26L21.7437 21.9267C20.3875 21.775 18.9656 21.6667 17.5 21.6667C16.0344 21.6667 14.6125 21.775 13.2563 21.9267L15.3125 26L13.5406 36.465C9.3625 30.485 8.75 25.1333 8.75 22.8367C3.52187 24.3533 0 27.0833 0 30.3333V39H35V30.3333C35 27.0833 31.5 24.3533 26.25 22.8367Z" fill="#E00000"/>
</svg>
