<?xml version="1.0" encoding="utf-8"?>
<!-- Generator: Adobe Illustrator 22.0.0, SVG Export Plug-In . SVG Version: 6.00 Build 0)  -->
<svg version="1.1" id="Layer_2" xmlns="http://www.w3.org/2000/svg" xmlns:xlink="http://www.w3.org/1999/xlink" x="0px" y="0px"
	 viewBox="0 0 410.7 323.4" style="enable-background:new 0 0 410.7 323.4;" xml:space="preserve">
<style type="text/css">
	.st0{opacity:0.24;fill:#0048B6;enable-background:new    ;}
	.st1{fill:#606161;}
	.st2{fill:url(#SVGID_1_);}
	.st3{fill:url(#SVGID_2_);}
	.st4{fill:#0048B6;}
	.st5{fill:url(#SVGID_3_);}
	.st6{fill:url(#SVGID_4_);}
	.st7{fill:url(#SVGID_5_);}
	.st8{fill:url(#SVGID_6_);}
	.st9{fill:url(#SVGID_7_);}
	.st10{fill:url(#SVGID_8_);}
	.st11{fill:url(#SVGID_9_);}
	.st12{fill:url(#SVGID_10_);}
	.st13{fill:#F5C7C8;}
	.st14{fill:url(#SVGID_11_);}
	.st15{fill:url(#SVGID_12_);}
	.st16{fill:url(#SVGID_13_);}
	.st17{fill:url(#SVGID_14_);}
</style>
<title>Word of Mouth</title>
<path class="st0" d="M14.5,281.6c-1.2,0.1-2.4,0.6-3.4,1.4c-3,3.1,2.3,7.3,6.6,8.1c12.3,2.3,24.9,2.6,37.5,2.9
	c34.7,0.8,69.3,1.4,104,2c11.8,0.2,24.1,0.3,34.8-4.9c-1.9-2.8-4.5-5-7.4-6.5l46.7-0.3c3.1,0,6.5,0.1,8.8,2s2.6,6.5-0.3,7.6
	c49.1,9.2,99.4,9.6,148.6,1.4c5-0.8,11.5-4.1,9.9-8.9c-1.2-3.4-5.7-4.1-9.3-4.2c-99.1-2.3-198.2-4.4-297.3-7.1
	c-13.4-0.4-26.8-0.1-40.1,1C40.8,277.3,27.1,281.6,14.5,281.6z"/>
<path class="st1" d="M129.7,217.2c4.4,5.3,4,12.9,4.1,19.8c0.1,6.7,0.8,13.4,2.1,20c0.3,1.5,0.7,3.1,2,3.8c0.8,0.4,1.7,0.6,2.5,0.5
	l7.8,0.3c2,0.1,4.3,0.1,5.5-1.4c0.7-0.9,1.1-2,1.2-3.1c2.1-10.6,3.3-21.4,3.6-32.2c0.3-4.3-0.1-8.5-1-12.7c-1.1-4.1-3.4-8-7-10.3
	c-3.9-2.5-8.9-2.8-13.5-2.9c-5-0.1-10.1-0.2-14.8,1.4c-3.9,1.3-11.3,5.6-5.9,9.4C120.7,212.8,126,212.7,129.7,217.2z"/>
<linearGradient id="SVGID_1_" gradientUnits="userSpaceOnUse" x1="169.4664" y1="86.5069" x2="116.3863" y2="3.1768" gradientTransform="matrix(1 0 0 1 -2.1 180.29)">
	<stop  offset="0" style="stop-color:#010101;stop-opacity:0"/>
	<stop  offset="0.95" style="stop-color:#010101"/>
</linearGradient>
<path class="st2" d="M129.7,217.2c4.4,5.3,4,12.9,4.1,19.8c0.1,6.7,0.8,13.4,2.1,20c0.3,1.5,0.7,3.1,2,3.8c0.8,0.4,1.7,0.6,2.5,0.5
	l7.8,0.3c2,0.1,4.3,0.1,5.5-1.4c0.7-0.9,1.1-2,1.2-3.1c2.1-10.6,3.3-21.4,3.6-32.2c0.3-4.3-0.1-8.5-1-12.7c-1.1-4.1-3.4-8-7-10.3
	c-3.9-2.5-8.9-2.8-13.5-2.9c-5-0.1-10.1-0.2-14.8,1.4c-3.9,1.3-11.3,5.6-5.9,9.4C120.7,212.8,126,212.7,129.7,217.2z"/>
<path class="st1" d="M142.2,267.7c0,0.7,0.1,1.5,0.3,2.2c0.3,0.5,0.6,1,1,1.4c3.7,4.1,8.6,7,14,8.2c1.2,0.4,2.5,0.3,3.6-0.3
	c0.9-0.8,1.3-1.9,1.3-3c0.2-3.9-2-7.5-5.6-9.2c-1.3-0.6-2.7-0.9-4.1-1.4s-2.5-1.5-3-2.9c-0.5-1.7,0.2-3.8-1.1-5
	c-1.9-1.5-5.4-1.3-6.4,0.9C141.3,260.8,142.2,265.1,142.2,267.7z"/>
<path class="st1" d="M262,184.2c-22.3,21.9-13.1,51.9-13,65.2c0,3.5,11.3,9.9,13-5.6c0.1-0.9,1.4-40.7,31.7-38.8
	c11.4,0.7,25.8-14.2,16.8-28.5C303.5,165.6,268.9,177.4,262,184.2z"/>
<linearGradient id="SVGID_2_" gradientUnits="userSpaceOnUse" x1="249.1168" y1="32.576" x2="315.4042" y2="32.576" gradientTransform="matrix(1 0 0 1 -2.1 180.29)">
	<stop  offset="0" style="stop-color:#010101;stop-opacity:0"/>
	<stop  offset="0.95" style="stop-color:#010101"/>
</linearGradient>
<path class="st3" d="M262,184.2c-22.3,21.9-13.1,51.9-13,65.2c0,3.5,11.3,9.9,13-5.6c0.1-0.9,1.4-40.7,31.7-38.8
	c11.4,0.7,25.8-14.2,16.8-28.5C303.5,165.6,268.9,177.4,262,184.2z"/>
<path class="st1" d="M251,252.1c0.7,2.6-0.4,5.3-1.4,7.8c-1.7,3.9-2.9,8.1-3.5,12.3c-0.2,0.7-0.1,1.4,0.2,2c0.7,1.1,2.4,0.9,3.6,0.4
	c2-0.9,3.8-2.2,5.2-3.9c1.6-2.2,3-4.6,3.9-7.1c0.6-1.3,1.1-2.8,1.4-4.2c0.2-2.3,0-4.6-0.7-6.7c-0.1-0.4-0.3-0.8-0.6-1.1
	c-0.3-0.2-0.7-0.2-1-0.2c-1.7,0-3.3,0.8-4.9,0.8L251,252.1z"/>
<ellipse class="st4" cx="86.1" cy="278.2" rx="21.2" ry="8.4"/>
<linearGradient id="SVGID_3_" gradientUnits="userSpaceOnUse" x1="88.2034" y1="42.3204" x2="85.0934" y2="80.1904" gradientTransform="matrix(1 0 0 1 0 210)">
	<stop  offset="0" style="stop-color:#010101;stop-opacity:0"/>
	<stop  offset="0.95" style="stop-color:#010101"/>
</linearGradient>
<ellipse class="st5" cx="86.1" cy="278.2" rx="21.2" ry="8.4"/>
<ellipse class="st4" cx="341.7" cy="278.2" rx="21.2" ry="8.4"/>
<linearGradient id="SVGID_4_" gradientUnits="userSpaceOnUse" x1="343.7965" y1="42.3214" x2="340.6965" y2="80.1914" gradientTransform="matrix(1 0 0 1 0 210)">
	<stop  offset="0" style="stop-color:#010101;stop-opacity:0"/>
	<stop  offset="0.95" style="stop-color:#010101"/>
</linearGradient>
<ellipse class="st6" cx="341.7" cy="278.2" rx="21.2" ry="8.4"/>
<path class="st4" d="M335.7,215.7h11.2l0,0V273c0,3.1-2.5,5.6-5.6,5.6l0,0c-3.1,0-5.6-2.5-5.6-5.6L335.7,215.7L335.7,215.7z"/>
<linearGradient id="SVGID_5_" gradientUnits="userSpaceOnUse" x1="335.6608" y1="37.1176" x2="346.8307" y2="37.1176" gradientTransform="matrix(1 0 0 1 0 210)">
	<stop  offset="0" style="stop-color:#010101;stop-opacity:0"/>
	<stop  offset="0.95" style="stop-color:#010101"/>
</linearGradient>
<path class="st7" d="M335.7,215.7h11.2l0,0V273c0,3.1-2.5,5.6-5.6,5.6l0,0c-3.1,0-5.6-2.5-5.6-5.6L335.7,215.7L335.7,215.7z"/>
<path class="st4" d="M86.1,215.7L86.1,215.7c3.1,0,5.6,2.5,5.6,5.6V273c0,3.1-2.5,5.6-5.6,5.6l0,0c-3.1,0-5.6-2.5-5.6-5.6v-51.7
	C80.6,218.2,83.1,215.7,86.1,215.7z"/>
<linearGradient id="SVGID_6_" gradientUnits="userSpaceOnUse" x1="80.5407" y1="37.1176" x2="91.7107" y2="37.1176" gradientTransform="matrix(1 0 0 1 0 210)">
	<stop  offset="0" style="stop-color:#010101;stop-opacity:0"/>
	<stop  offset="0.95" style="stop-color:#010101"/>
</linearGradient>
<path class="st8" d="M86.1,215.7L86.1,215.7c3.1,0,5.6,2.5,5.6,5.6V273c0,3.1-2.5,5.6-5.6,5.6l0,0c-3.1,0-5.6-2.5-5.6-5.6v-51.7
	C80.6,218.2,83.1,215.7,86.1,215.7z"/>
<path class="st4" d="M43.7,146.7c-9,6.1-10.9,18.7-9.3,29.4c4.4,29.7,30.6,54.8,60.5,58c8.8,0.9,18.4-0.2,25-6
	c7.4-6.5,9.2-17.7,6.6-27.2c-2.6-9.5-9-17.5-16-24.4c-9.7-9.5-20.7-17.4-32.9-23.4C67.1,148,55.6,138.7,43.7,146.7z"/>
<linearGradient id="SVGID_7_" gradientUnits="userSpaceOnUse" x1="51.3917" y1="19.633" x2="116.5716" y2="-4.577" gradientTransform="matrix(1 0 0 1 -2.1 180.29)">
	<stop  offset="0" style="stop-color:#010101;stop-opacity:0"/>
	<stop  offset="0.95" style="stop-color:#010101"/>
</linearGradient>
<path class="st9" d="M43.7,146.7c-9,6.1-10.9,18.7-9.3,29.4c4.4,29.7,30.6,54.8,60.5,58c8.8,0.9,18.4-0.2,25-6
	c7.4-6.5,9.2-17.7,6.6-27.2c-2.6-9.5-9-17.5-16-24.4c-9.7-9.5-20.7-17.4-32.9-23.4C67.1,148,55.6,138.7,43.7,146.7z"/>
<path class="st4" d="M383.5,146.7c9,6.1,10.9,18.7,9.3,29.4c-4.4,29.7-30.6,54.8-60.5,58c-8.8,0.9-18.4-0.2-25-6
	c-7.4-6.5-9.2-17.7-6.6-27.2s9-17.5,16-24.4c9.7-9.5,20.8-17.4,32.9-23.4C360.1,148,371.5,138.7,383.5,146.7z"/>
<linearGradient id="SVGID_8_" gradientUnits="userSpaceOnUse" x1="-756.4907" y1="19.6308" x2="-691.3107" y2="-4.5792" gradientTransform="matrix(-1 0 0 1 -378.64 180.29)">
	<stop  offset="0" style="stop-color:#010101;stop-opacity:0"/>
	<stop  offset="0.95" style="stop-color:#010101"/>
</linearGradient>
<path class="st10" d="M383.5,146.7c9,6.1,10.9,18.7,9.3,29.4c-4.4,29.7-30.6,54.8-60.5,58c-8.8,0.9-18.4-0.2-25-6
	c-7.4-6.5-9.2-17.7-6.6-27.2s9-17.5,16-24.4c9.7-9.5,20.8-17.4,32.9-23.4C360.1,148,371.5,138.7,383.5,146.7z"/>
<path class="st1" d="M270.5,86.1c-2,3.8-1.9,8.4,0.2,12.2c1,1.9,2.7,3.4,4.8,4.1c1.8,0.4,3.8,0.2,5.5-0.3c3.8-0.9,7.5-2.1,11.1-3.6
	c2.1-0.9,4.4-2,5.3-4.1c0.8-1.7,0.4-3.7,0-5.5c-0.9-4.3-2.3-8.7-5-12.3c-1.6-2.2-3.8-3.9-6.4-4.9c-3-1.2-3.9-1-5.4,1.6
	C278.1,78.2,273.1,81.2,270.5,86.1z"/>
<path class="st4" d="M204,125.3c-2.5,9.3-5.7,18.3-9.8,27c-3.1,6.5-7.1,13.4-13.9,16c-7.7,3-17.4-0.2-24,4.8
	c-2.1,1.6-3.7,3.9-5.4,5.9c-8.7,10.3-22.6,14.3-35.7,17.5c-12.7,3.1-26.5,5.8-38.6,0.6c-2.4-1-4.6-2.3-6.7-3.8
	c-6.9-5-12.2-12.1-17-19.3c-0.5-0.8-1.1-1.5-1.6-2.4c-2.6-3.9-5.3-8-6.2-12.6c-1.4-7,1.6-14.1,5.3-20.3c4-6.6,8.4-12.8,13.3-18.8
	c6.9-8.7,14.3-17.4,24-22.8c7-3.9,14.8-5.9,22.6-7.9c14.3-3.6,27-1.1,39.8,6.4c8.3,4.8,11.7,14.9,13.2,24.4c0.6,3.6,0.9,7.3,1.4,11
	c0.8,5.9,1.8,11.7,4.4,17c6.2-3.3,8.7-10.8,11-17.4c0.7-2.5,2-4.9,3.7-6.9c0.7-0.7,1.6-1.3,2.5-1.8c4.3-2.3,10.2-1.5,15.3-0.4
	c1,0.1,1.9,0.5,2.5,1.3C204.3,123.6,204.3,124.5,204,125.3z"/>
<linearGradient id="SVGID_9_" gradientUnits="userSpaceOnUse" x1="175.7973" y1="-62.1741" x2="130.6273" y2="282.4258" gradientTransform="matrix(1 0 0 1 -2.1 180.29)">
	<stop  offset="0" style="stop-color:#010101;stop-opacity:0"/>
	<stop  offset="0.95" style="stop-color:#010101"/>
</linearGradient>
<path class="st11" d="M193.2,135.7c-2.8,8.2-7,15.8-12.3,22.6c-1.9,2.7-4.3,5-7.1,6.9c-4.2,2.7-9.3,3.4-14.2,4.2
	c-5.3,0.8-5.9-0.9-5.5-5.2c0.6-5.6-0.6-11.7-0.9-17.3c-0.7-11.9-1.1-23.7-0.9-35.6c4.9,6.1,9,12.7,12.3,19.8
	c0.8,5.9,1.8,11.7,4.4,17c6.2-3.3,8.7-10.8,11-17.4c0.7-2.5,2-4.9,3.7-6.9c0.7-0.7,1.6-1.3,2.5-1.8c2-0.5,4,0,5.7,1.2
	C195.5,125.8,194.7,131.4,193.2,135.7z"/>
<linearGradient id="SVGID_10_" gradientUnits="userSpaceOnUse" x1="131.5527" y1="-43.6241" x2="3.0827" y2="122.1159" gradientTransform="matrix(1 0 0 1 -2.1 180.29)">
	<stop  offset="0" style="stop-color:#010101;stop-opacity:0"/>
	<stop  offset="0.95" style="stop-color:#010101"/>
</linearGradient>
<path class="st12" d="M150.3,175.1c-0.6,0.4-1.3,0.6-2,0.6l-20.4,0.9c-6.4,0.3-13,0.6-18.7,3.4c-1.7,0.8-3.3,1.9-5,2.6
	c-2.1,0.7-4.3,1.4-6.4,1.9c-3.9,1.1-18.3,7.3-22.3,8.2c-1.8,0.4-3.7,0.6-5.6,0.6c-6.9-5-12.2-12.1-17-19.3c3-1.2,6-2.4,6.5-2.5
	c4.1-0.5,8.2-0.7,12.2-0.5c6.6,0.1,13.3,0.2,20,0.3c2,0.1,4-0.1,5.9-0.7c2.1-1,4-2.4,5.5-4.2c0.4-0.3,0.7-0.8,0.6-1.3
	c-0.1-0.3-0.4-0.6-0.7-0.8c-1.6-0.9-2.9-2.3-3.9-3.8c-0.6-1.3-0.3-2.9-1.1-4c-1.1-1.4-4.5-2.3-6.1-3l-7.1-3.4
	c-1.2-0.5-2.3-1.2-3.3-2.1c-2.1-2.3-2-6-0.7-8.9s3.4-5.3,4.9-8c1.3-2.4,2.2-5,3.5-7.3s3.2-4.6,5.8-5.5c2.9-1,5.9-0.1,8.8,0.8
	c10.1,3,20.3,6,30.5,9.1c4.3,1.3,9.1,2.9,11.1,7c1,2.1,1.1,4.4,1.2,6.8c0.4,10.3,1.7,20.5,3.9,30.5
	C150.9,173.2,151,174.4,150.3,175.1z"/>
<path class="st13" d="M148.2,63.3c0.7,1.4,2,2.6,1.8,4.1c-0.2,1.9-2.3,2.9-3.4,4.5c-1.6,2.5-0.4,6.3-2.4,8.6
	c-1.4,1.5-3.6,1.7-5.6,2.4c-3.6,1.3-6.1,4.8-7.4,8.4c-0.5,1.5-1.1,3-1.7,4.4c-4.3,10.2-14.1-4.8-13.7-7.6c0.5-2.8,3-8.9,3.6-11.6
	c1-4.2,0.4-8.6,0.6-12.9c0.2-3.7,0.9-7.4,2.2-10.9c0.7-2.1,1.8-4,3.4-5.6c2.4-2.2,5.9-2.8,9.2-2.7c2.5,0.1,5.1,0.5,6.8,2.3
	c1.1,1.3,1.8,2.8,2.3,4.4c0.4,1.1,0.8,2.2,1.4,3.3c0.6,0.9,1,1.8,1.3,2.8C147.2,59.1,147.2,61.3,148.2,63.3z"/>
<path class="st1" d="M131.2,41.7c4.6,0.4,9.3,1.9,12,5.6c1,1.1,1.3,2.6,1,4c-0.4,0.9-1.1,1.7-1.9,2.2c-1.3,0.9-2.8,1.6-4.3,2
	c-2.6,0.8-5.8,0.9-7.5,3.1c-1.5,1.9-1.1,4.7-1.9,7.1c-0.1,0.3-0.3,0.7-0.6,0.7c-0.2,0-0.4-0.1-0.5-0.2c-1.3-0.9-2.4-2.4-3.9-2.3
	s-2.7,2-2.5,3.7c0.4,1.6,1.3,3.1,2.5,4.2c0.7,0.6,1.2,1.5,1.5,2.4c0.3,1.6-1.1,3.2-2.7,3.6c-1.7,0.2-3.4-0.2-4.8-1.1
	c-3.6-2.1-6.1-5.7-8-9.4c-0.9-1.6-1.5-3.2-1.8-5c-0.2-1.7-0.2-3.5,0.1-5.3c0.5-4,1.7-7.9,5.7-9.6c3.4-1.5,6.2-4,9.7-5
	C126,41.6,128.6,41.4,131.2,41.7z"/>
<path class="st13" d="M193.5,108.1c2.5-4,6.1-7.4,10.7-8.6c-0.3,1.9-1.1,3.6-2.1,5.2c5.6-2.7,11.5-4.7,17.6-6.1
	c0.7-0.2,1.5-0.2,2,0.3c0.2,0.3,0.3,0.6,0.2,1c-0.1,1.7-0.7,3.2-1.6,4.6c-2.7,4.4-6.6,7.9-11.4,10c-2.4,1-5,1.7-7,3.3
	c-1.6,1.3-2.7,3.2-4,4.8c-1.3,1.6-3.7,3.6-6.1,3c-1.9-0.5-3.3-2.1-3.5-4c-0.1-2,1.1-4.4,1.8-6.2C191,112.9,192.1,110.5,193.5,108.1z
	"/>
<path class="st4" d="M71.4,147.6c10.2-0.3,20.5,0.1,30.7,1.1c0.5-0.1,1,0.3,1.1,0.9c0,0.1,0,0.1,0,0.2c0.3,3.5,0.3,7-0.3,10.5
	c-0.1,0.8-0.3,1.6-0.8,2.3c-0.7,0.8-1.6,1.4-2.6,1.6c-1.8,0.5-3.7,0.7-5.6,0.8c-13.1,1-26.2,2.1-39.4,1.4c-1.7,0-3.5-0.4-5-1.1
	c-1.1-0.7-1.9-1.7-2.6-2.8c-0.9-1.3-1.6-2.7-2-4.2c-0.7-2.7-0.3-5.5,1.1-7.9c1.6-2.5,4.1-4.3,7-5.1c2.8-0.8,5.8-1,8.7-0.7
	c1.5,0.1,2.9,0.4,4.3,0.9c2.6,1,5.1,3.2,7.8,2.6"/>
<path class="st13" d="M113.7,155.8c6.3,0,13.1,0.6,17.9,4.7c0.6,0.5,1.1,1.1,1.4,1.7c0.3,0.7,0.1,1.5-0.5,2
	c-0.4,0.2-0.9,0.4-1.4,0.4c-4.7,0.2-9.4-1.1-14-0.4c-2.3,0.4-4.5,1.2-6.8,1.4c-4.4,0.4-8.6-1.6-12.6-3.6c-0.3-0.1-0.5-0.3-0.7-0.5
	c-0.2-0.4-0.1-0.9,0.1-1.2c0.4-1,0.9-2.8,1.7-3.5c0.8-0.7,3.1-0.5,4.3-0.6C106.6,156,110.2,155.8,113.7,155.8z"/>
<path class="st4" d="M140.9,126.6h3.8c1.9,0,3.4,1.5,3.4,3.4v18.5c0,1.9-1.5,3.4-3.4,3.4h-3.8c-1.9,0-3.4-1.5-3.4-3.4V130
	C137.5,128.1,139,126.6,140.9,126.6z"/>
<path class="st1" d="M70.5,187.5c12.4-8.9,31.6-8,46.9-8.4c10.8-0.3,21.6-0.2,32.3,1.4c4.9,0.7,9.8,1.8,14,4.2s8,6.2,11.4,10
	c12.5,14.1,22.8,30.4,28.7,48.3c-3.3,1.5-6.8,2.4-10.3,2.7c-1.2,0.2-2.5,0.1-3.7-0.3c-1.3-0.6-2.4-1.4-3.4-2.4
	c-8.7-8.1-17.4-16.2-26.8-23.5c-3.7-2.9-7.7-5.7-12.3-6.5c-2.7-0.4-5.4-0.4-8.1,0c-6.5,0.6-13,1.5-19.5,2.7
	c-12,2.2-25.2,6.8-35.3-0.2C67.7,203.9,67.2,189.9,70.5,187.5z"/>
<linearGradient id="SVGID_11_" gradientUnits="userSpaceOnUse" x1="148.5635" y1="68.8034" x2="107.5935" y2="-53.1666" gradientTransform="matrix(1 0 0 1 -2.1 180.29)">
	<stop  offset="0" style="stop-color:#010101;stop-opacity:0"/>
	<stop  offset="0.95" style="stop-color:#010101"/>
</linearGradient>
<path class="st14" d="M70.5,187.5c12.4-8.9,31.6-8,46.9-8.4c10.8-0.3,21.6-0.2,32.3,1.4c4.9,0.7,9.8,1.8,14,4.2s8,6.2,11.4,10
	c12.5,14.1,22.8,30.4,28.7,48.3c-3.3,1.5-6.8,2.4-10.3,2.7c-1.2,0.2-2.5,0.1-3.7-0.3c-1.3-0.6-2.4-1.4-3.4-2.4
	c-8.7-8.1-17.4-16.2-26.8-23.5c-3.7-2.9-7.7-5.7-12.3-6.5c-2.7-0.4-5.4-0.4-8.1,0c-6.5,0.6-13,1.5-19.5,2.7
	c-12,2.2-25.2,6.8-35.3-0.2C67.7,203.9,67.2,189.9,70.5,187.5z"/>
<path class="st4" d="M278.3,88.5c-8.1,3.1-12.2,12-15.2,20.2c-4.3,11.8-8.2,24.1-8.5,36.6c-0.2,7.1,1.4,15.3,7.3,19.2
	c4.3,2.8,9.9,2.7,15.1,2.5l18.5-0.7c1.1-0.3,2.3,0.4,2.5,1.6c0,0.1,0,0.2,0,0.3c0.8,2.3,10.8,3.7,11.5,6c0.5,1.6-8.1,4.3-6.8,5.4
	c1.3,1.1,3.3,1.4,5.1,1.5c13.1,1,26.3,0.7,39.4-0.9c2.7-0.3,5.5-0.8,7.4-2.7c2.6-2.7,2-7.1,1.3-10.8c7.1-0.5,14.8-3.4,17.8-9.9
	c1.8-3.9,1.6-8.4,0.4-12.5c-1.2-4.1-3.3-7.8-5.3-11.6c-3.7-6.7-7.1-13.7-12.1-19.5s-11.2-10.1-17.3-14.4c-4.9-3.4-9.8-6.8-15.4-8.9
	c-7.7-2.8-15.7-2.3-23.8-3.1C293.4,86.5,284.8,86,278.3,88.5z"/>
<linearGradient id="SVGID_12_" gradientUnits="userSpaceOnUse" x1="308.6142" y1="-53.5921" x2="363.854" y2="134.4879" gradientTransform="matrix(1 0 0 1 -2.1 180.29)">
	<stop  offset="0" style="stop-color:#010101;stop-opacity:0"/>
	<stop  offset="0.95" style="stop-color:#010101"/>
</linearGradient>
<path class="st15" d="M360.2,164.9c-9.9,2.1-20,2-30.1,1.8c-10.4-0.1-20.9-0.3-31.2-2.1c-1.3-0.1-2.5-0.6-3.3-1.5
	c-0.4-0.7-0.7-1.6-0.7-2.5c-0.4-3.5-0.6-7.4,1.8-9.9c1.5-1.5,3.6-2.1,5.6-2.7l23-6.3c3.5-1,7.4-2.1,9.5-5.1c4-5.8-0.8-14.9,3.7-20.3
	c-2.6-3.1-6.5-4.8-10.6-4.7c-4.2-0.1-8.3,1-12.4,2.1l-32.5,8.9c-2.7,0.7-5.5,1.5-7.7,3.2c-2.7,2.1-4.2,5.4-5.1,8.7
	c-3.6,14.5,5.3,29.1,19.7,32.7c1,0.2,2,0.4,3,0.6c2.3,0.3,5,0.4,6.4,2.3c1,1.2,1.1,2.8,1.8,4.2c1.9,3.7,6.9,4.2,11,4.2l25,0.3
	c5.7,0.1,12,0,16.5-3.5C357.3,172.4,358.4,169.2,360.2,164.9z"/>
<path class="st13" d="M278,68.9c-0.5,0.8-1.1,1.9-0.5,2.6c0.2,0.3,0.6,0.5,0.9,0.8c0.4,0.4,0.6,1,0.6,1.5c0.2,1.9-0.1,4,1.2,5.4
	c1.1,1.2,3,1.3,4.6,1.4l6.3,0.1c0.5,0,0.9,0.1,1.3,0.3c0.3,0.3,0.5,0.7,0.6,1.1c1.2,3.9,1.1,8.2,3,11.8c0.4,0.9,1.1,1.7,1.9,2.2
	c0.6,0.4,1.3,0.6,2,0.7c4.6,0.6,9-2.2,10.4-6.5c0.2-0.6,0.3-1.2,0.2-1.9c-0.2-0.9-0.6-1.7-1.1-2.5c-2.1-2.9-3.6-6.2-4.4-9.7
	c-0.3-2.1-0.5-4.2-0.6-6.3c-0.2-2.6-0.8-5.1-1.6-7.5c-0.3-1.1-0.8-2.1-1.5-3.1c-0.6-0.8-1.3-1.4-2.2-2c-2.8-2.2-5.8-4.5-9.3-5.3
	c-2.7-0.5-5.5-0.5-8.2,0c-1.1,0-2.1,0.4-2.8,1.2c-0.9,1.1-0.5,2.5-0.2,3.8c0.3,1.1,0.4,2.2,0.3,3.3C278.9,63.1,279.4,66.3,278,68.9z
	"/>
<path class="st1" d="M279.9,46.8c-3.8,2.7-5.9,8-4,12.2c0.3,0.8,0.9,1.5,1.6,2c0.9,0.5,1.9,0.7,2.9,0.7c2.4,0.2,4.7-0.2,6.9-1
	c2.2-0.9,4-2.5,5.1-4.7c0.2,3.1,1,6.2,2.4,9l3-2.4c0.2-0.2,0.5-0.3,0.8-0.3s0.5,0.2,0.6,0.4c1.2,1.6,1,4.1,0,5.8
	c-0.4,0.5-0.6,1.1-0.7,1.8c0.1,0.4,0.2,0.8,0.4,1.1l3.4,6.7c1.5,3.4,4.2,6.1,7.6,7.6c3.4,2.1,7.1,3.9,10.9,5.3
	c3.8,1.4,7.9,1.7,11.9,0.9c4-0.9,7.4-3.5,9.2-7.2c0.7-1.8,1.1-3.6,1.1-5.5c0.2-2.2-0.2-4.5-1.3-6.5c-1.1-1.8-2.7-3.2-4.5-4.2
	c-4-2.4-8.5-3.8-12.7-5.9c-1.8-0.8-3.4-1.9-4.8-3.3c-1.2-1.5-2.3-3.1-3.2-4.7c-4.4-6.5-11.8-10.3-19.6-10.3c-1.2,0-2.5,0.3-3.6,0.2
	c-1.4-0.2-2.7-0.3-4.1-0.3C285.8,44,282.6,45,279.9,46.8z"/>
<path class="st4" d="M264,19.2c-0.4,2.1,1,4,2.4,5.7s3.1,4.9,5,5.7c2.3,1,2.4-0.2,1.9-1.9c-0.6-2-2.6-4.1-4-5.5
	C268.9,22.7,264,19.1,264,19.2z"/>
<path class="st4" d="M253.3,33.3c-0.4,0.7,0.6,1.5,1.4,1.8c4.3,1.6,8.8,3.8,13.2,4.8C271.8,35.4,255.6,33.1,253.3,33.3z"/>
<path class="st4" d="M250.7,48.8c-0.6,0.1-1.3,0.4-1.4,0.9c-0.1,0.6,0.6,1.1,1.2,1.3c2.1,0.7,11.8,2,11.6-0.6
	C261.8,45.6,253,48.3,250.7,48.8z"/>
<path class="st1" d="M311.5,171.1c-4.8,2-21.9,12-25.1,16.5c-3,4.3-4.2,9.8-5.1,15.2c-2.7,15.9-3.9,31.9-3.7,48
	c0,2.9,0.5,6.4,2.7,7.7c1.5,0.9,3.3,0.4,4.8-0.6c7.2-4.4,8-15.7,10.9-24.6c3.3-10,3.3-21.3,11.9-25.1c7-3.1,21.7-0.2,29.1-1.7
	c7.4-1.5,15.1-4.7,19.4-11.9c7.5-12.7-1.4-24.3-12.4-24.5C328.9,169.9,325.9,165.2,311.5,171.1z"/>
<linearGradient id="SVGID_13_" gradientUnits="userSpaceOnUse" x1="282.5085" y1="20.6543" x2="344.8885" y2="45.7943" gradientTransform="matrix(1 0 0 1 -2.1 180.29)">
	<stop  offset="0" style="stop-color:#010101;stop-opacity:0"/>
	<stop  offset="0.95" style="stop-color:#010101"/>
</linearGradient>
<path class="st16" d="M311.5,171.1c-4.8,2-21.9,12-25.1,16.5c-3,4.3-4.2,9.8-5.1,15.2c-2.7,15.9-3.9,31.9-3.7,48
	c0,2.9,0.5,6.4,2.7,7.7c1.5,0.9,3.3,0.4,4.8-0.6c7.2-4.4,8-15.7,10.9-24.6c3.3-10,3.3-21.3,11.9-25.1c7-3.1,21.7-0.2,29.1-1.7
	c7.4-1.5,15.1-4.7,19.4-11.9c7.5-12.7-1.4-24.3-12.4-24.5C328.9,169.9,325.9,165.2,311.5,171.1z"/>
<path class="st1" d="M198.9,254.1c0.3,0.5,0.7,1,1.2,1.4c0.9,0.5,2,0.6,3,0.3c2.5-0.4,5-0.9,7.4-1.6l10.1-2.5
	c0.7-0.2,1.5-0.5,1.6-1.2c0-0.5-0.2-1-0.6-1.3c-3.2-3.7-8.5-5-13.4-4.6c-2.1,0.2-4.4,0.6-6.2-0.4c-0.4-0.3-0.8-0.5-1.3-0.6
	s-1.1,0-1.6,0.3c-2.4,0.9-5.1,0.9-4.4,3.6C195.2,249.5,197.8,252.4,198.9,254.1z"/>
<path class="st4" d="M39.6,165.2h339.5c2.6,0,4.7,2.1,4.7,4.7l0,0c0,2.6-2.1,4.7-4.7,4.7H39.6c-2.6,0-4.7-2.1-4.7-4.7l0,0
	C34.9,167.3,37,165.2,39.6,165.2z"/>
<linearGradient id="SVGID_14_" gradientUnits="userSpaceOnUse" x1="209.1427" y1="-29.5625" x2="209.7628" y2="-64.4124" gradientTransform="matrix(1 0 0 1 0 210)">
	<stop  offset="0" style="stop-color:#010101;stop-opacity:0"/>
	<stop  offset="0.95" style="stop-color:#010101"/>
</linearGradient>
<path class="st17" d="M39.6,165.2h339.5c2.6,0,4.7,2.1,4.7,4.7l0,0c0,2.6-2.1,4.7-4.7,4.7H39.6c-2.6,0-4.7-2.1-4.7-4.7l0,0
	C34.9,167.3,37,165.2,39.6,165.2z"/>
<path class="st13" d="M272.8,154.4c-2.8,0.8-5.6,2-8.1,3.5c-2,1.1-4,2.3-6,3.4c-0.6,0.3-1.1,0.7-1.5,1.3c-0.4,0.6-0.3,1.3,0.2,1.8
	c0.4,0.2,0.8,0.4,1.2,0.3c8.3,0.4,16.7-1.4,25-0.8c3.7,0.3,7.4,0.9,10.9-0.3c1.5-0.4,2.7-1.4,3.2-2.9c0.4-1.6-1-4.1-2.4-5
	c-1.7-1-4.8-0.6-6.7-0.9C283.3,154.3,278,153.2,272.8,154.4z"/>
<path class="st13" d="M276.3,150.5c2,0.1,4,0.6,5.8,1.6c1.2,0.4,2.2,1.2,2.8,2.3c0.3,0.5,0.2,1.2-0.1,1.7c-0.3,0.4-0.7,0.6-1.1,0.7
	c-1.4,0.3-2.8,0.4-4.2,0.2c-4.5-0.3-9.1,0.3-13.4,1.5c-1,0.4-2.2,0.6-3.3,0.6c-0.3,0-0.5-0.1-0.7-0.3c-0.1-0.2-0.1-0.4-0.1-0.6
	c0.2-0.6,0.6-1.2,1.1-1.6c1-1.1,2-2.1,3-3.1c0.7-0.8,1.6-1.2,2.7-1.3C271.5,152,273.8,150.6,276.3,150.5z"/>
<path class="st1" d="M275.8,265.4c-2.4,3.3-4.8,6.9-5,11c-0.1,0.6,0,1.2,0.3,1.7c0.3,0.4,0.8,0.7,1.3,0.8c2.6,0.5,5.2-0.2,7.2-2
	c1.9-1.7,3.5-3.8,4.8-6l4.8-7.5c0.3-0.4,0.4-0.8,0.5-1.3c0-0.6-0.6-1.1-1-1.6c-1.4-1.7-1.2-4.1-1.3-6.1
	C280.9,255.3,279.5,260.5,275.8,265.4z"/>
<path class="st4" d="M165.5,24.6c0.3,1.6-0.8,3.1-1.9,4.4s-2.4,3.8-3.9,4.4c-1.7,0.8-1.9-0.1-1.5-1.5c0.4-1.5,2-3.2,3.1-4.3
	C161.8,27.3,165.5,24.5,165.5,24.6z"/>
<path class="st4" d="M173.8,35.5c0.3,0.6-0.4,1.1-1.1,1.4c-3.3,1.2-6.8,3-10.3,3.8C159.5,37.2,172,35.3,173.8,35.5z"/>
<path class="st4" d="M175.9,47.6c0.4,0.1,1,0.3,1.1,0.7c0,0.4-0.5,0.8-1,1c-1.6,0.5-9.1,1.5-9-0.5C167.2,45.1,174.1,47.2,175.9,47.6
	z"/>
</svg>
