<?xml version="1.0" encoding="utf-8"?>
<!-- Generator: Adobe Illustrator 22.0.0, SVG Export Plug-In . SVG Version: 6.00 Build 0)  -->
<svg version="1.1" xmlns="http://www.w3.org/2000/svg" xmlns:xlink="http://www.w3.org/1999/xlink" x="0px" y="0px"
	 viewBox="0 0 410.7 323.4" style="enable-background:new 0 0 410.7 323.4;" xml:space="preserve">
<style type="text/css">
	.st0{fill:#0048B6;}
	.st1{fill:url(#SVGID_1_);}
	.st2{fill:#FFFFFF;}
	.st3{fill:url(#SVGID_2_);}
	.st4{fill:#E4AA8B;}
	.st5{fill:#18202D;}
	.st6{fill:url(#SVGID_3_);}
	.st7{fill:url(#SVGID_4_);}
	.st8{fill:#E5AB8C;}
	.st9{fill:#E4A98A;}
	.st10{fill:#A07A64;}
	.st11{fill:url(#SVGID_5_);}
	.st12{fill:url(#SVGID_6_);}
	.st13{fill:url(#SVGID_7_);}
	.st14{fill:url(#SVGID_8_);}
	.st15{fill:url(#SVGID_9_);}
	.st16{fill:url(#SVGID_10_);}
	.st17{fill:#FFFFFF;stroke:#0048B6;stroke-miterlimit:10;}
</style>
<g id="Layer_2">
</g>
<g id="Layer_3">
	<title>Entrepreneur</title>
	<path class="st0" d="M307.2,290.6c0,0-19.2-10-29.9-12.6c-5-1.2-11.5-8-17.7-16.1c-2-2.6-4-5.4-6-8.2c0,0-33.1-53.7-15.1-65.4
		c0,0,7.7-0.2,12,2.1s13.7,21.8,15.2,25.2s18.6,35.3,19.8,36s3,3.3,9.9,7c8.4,4.5,21.5,17.7,21.5,17.7L307.2,290.6z"/>
	
		<linearGradient id="SVGID_1_" gradientUnits="userSpaceOnUse" x1="250.1812" y1="750.3265" x2="284.4912" y2="720.5165" gradientTransform="matrix(1 0 0 1 -7.81 -484.45)">
		<stop  offset="1.000000e-02" style="stop-color:#000000"/>
		<stop  offset="0.83" style="stop-color:#000000;stop-opacity:7.000000e-02"/>
		<stop  offset="1" style="stop-color:#000000;stop-opacity:0"/>
	</linearGradient>
	<path class="st1" d="M307.2,290.6c0,0-19.2-10-29.9-12.6c-5-1.2-11.5-8-17.7-16.1c-2-2.6-4-5.4-6-8.2c0,0-33.1-53.7-15.1-65.4
		c0,0,7.7-0.2,12,2.1s13.7,21.8,15.2,25.2s18.6,35.3,19.8,36s3,3.3,9.9,7c8.4,4.5,21.5,17.7,21.5,17.7L307.2,290.6z"/>
	<path class="st2" d="M248.3,219.9c0.8-10.4,1.3-20.2,1.6-29.3c-2.5-1.3-5.5-2.9-8-4c-7.5-3.6-17.9-8.4-24.6-11.4
		c-3.9-1.8-7.8-3.1-7.8-3.1s-26.8-2.6-29-2.4c-2.9,0.8-5.7,1.7-8.4,2.9c-9.5,3.6-27.8,10.9-30.7,13c-4.3,3.1-19.6,78-20,83.1
		c-0.4,4.9,20.8,11.7,40.4,16.9c0,7.6-0.2,18.3-0.3,28c0,1.7-0.1,3.3-0.1,4.9h85.9c-0.1-1.7-0.2-3.3-0.3-4.9V313
		c-0.3-6.6-1.6-18.4-1.3-29.9c0,0-0.2-12.1,1-17.3C246.9,242.7,248.3,219.9,248.3,219.9z M139.4,264c0.1-9.8,13.1-27.9,13.1-27.9
		c0.2-0.1,0.4-0.2,0.6-0.2l0.7-0.1l2-1.9c0.5,1.7,4.8,26.3,5.8,40.5C149.5,272,139.3,268.6,139.4,264z"/>
	
		<linearGradient id="SVGID_2_" gradientUnits="userSpaceOnUse" x1="99.5905" y1="717.6666" x2="238.4904" y2="735.6566" gradientTransform="matrix(1 0 0 1 -7.81 -484.45)">
		<stop  offset="1.000000e-02" style="stop-color:#000000"/>
		<stop  offset="0.83" style="stop-color:#000000;stop-opacity:7.000000e-02"/>
		<stop  offset="1" style="stop-color:#000000;stop-opacity:0"/>
	</linearGradient>
	<path class="st3" d="M248.3,219.9c0.8-10.4,1.3-20.2,1.6-29.3c-2.5-1.3-5.5-2.9-8-4c-7.5-3.6-17.9-8.4-24.6-11.4
		c-3.9-1.8-7.8-3.1-7.8-3.1s-26.8-2.6-29-2.4c-2.9,0.8-5.7,1.7-8.4,2.9c-9.5,3.6-27.8,10.9-30.7,13c-4.3,3.1-19.6,78-20,83.1
		c-0.4,4.9,20.8,11.7,40.4,16.9c0,7.6-0.2,18.3-0.3,28c0,1.7-0.1,3.3-0.1,4.9h85.9c-0.1-1.7-0.2-3.3-0.3-4.9V313
		c-0.3-6.6-1.6-18.4-1.3-29.9c0,0-0.2-12.1,1-17.3C246.9,242.7,248.3,219.9,248.3,219.9z M139.4,264c0.1-9.8,13.1-27.9,13.1-27.9
		c0.2-0.1,0.4-0.2,0.6-0.2l0.7-0.1l2-1.9c0.5,1.7,4.8,26.3,5.8,40.5C149.5,272,139.3,268.6,139.4,264z"/>
	<path class="st0" d="M249.9,313.5c-0.6-4.1-1.1-8.1-1.6-12.1l0,0c-0.1-1.3-0.3-2.6-0.5-3.9c0-0.1,0-0.1,0-0.2
		c-0.6-5.5-1.1-10.7-1.5-15.5c-0.2-3.6-0.1-7.2,0.5-10.8c1.5-24.6,2.2-50.6,2.2-50.6c0.8-10.6,1.2-20.6,1.5-29.8
		c0,0-33.6-15.9-36.7-16.8c0,0,6.4,15,11.2,48.5c1.8,12.9,5.2,34.5,7.7,56.6l0,0c1.3,11.9,3.9,24.1,5.8,34.8
		c0.3,1.7,0.6,3.3,0.8,4.9h11.3C250.4,316.8,250.1,315.1,249.9,313.5z"/>
	<path class="st0" d="M193.9,274c1.3-12.5,2.5-24.9,1.9-31.7c-4.6-54.7-17.8-69.2-19.7-71.3c-1.5,0.6-7.1,2.7-8.7,3.3
		c-9,3.5-27.3,10-29.7,11.8c-4.3,3.1-21.1,81.7-21.6,86.8c-0.3,3.4,21.7,10.6,44.1,17c-0.2,6.2,0.4,14.8-1.7,23.9
		c-0.5,1.5-0.9,3.1-1,4.8l31.3-0.1c0.2-1.6,0.4-3.2,0.6-4.9c0.6-4.9,1.2-9.9,1.8-15.2c9.4,2.4,15.8,4,15.8,4s8.8-14.9,11.4-20.9
		C218.8,280.3,207.5,277.6,193.9,274z M149.9,255.8c-0.2-6.7,1-13.4,3.4-19.7c1.1,3.8,2.6,14.8,4,25.7
		C152.7,259.5,149.9,258,149.9,255.8z"/>
	<path class="st4" d="M179.2,170.4c0,0,3.4-6.4,2.5-24.7c-0.3-5.1,26.6,12,26.6,12s-0.1,1.8-0.1,4.1c0,1-0.1,2.1-0.1,3.2
		c0,0.3,0,0.6,0,0.9c0,0.5,0,1,0,1.5s0,1.2,0.1,1.8s0.1,1.3,0.1,1.9c0.2,1.2,0.5,2.4,1,3.6C210.5,177.5,189.2,177.7,179.2,170.4z"/>
	<path class="st5" d="M201.7,182l3.7,5c0.9,1.2,1.5,1.9,1.4,3.5c-0.1,1.8-0.9,3.4-2.2,4.7c-0.3,0.4-0.8,0.6-1.3,0.5
		c-0.3-0.1-0.5-0.3-0.7-0.5c-1.5-1.3-2.7-2.8-3.6-4.6c-0.5-1.2,0.1-2.1,0.6-3.2L201.7,182z"/>
	<path class="st5" d="M204.9,189.5c1.6,1.1,2.4,5.5,3.2,7.3c2,4.2,4.5,8.2,6.2,12.6c2.2,5.6,3,11.5,3.7,17.4
		c1.2,9.7,1.9,19.5,2.3,29.3c0.3,7.3,0.3,14.6,1.4,21.8c0.7,4.5,1.8,9.3,0.1,13.5c-1.3,3.3-3.9,5.7-6.6,8c-2.1-1.8-4.2-3.8-5.3-6.3
		c-0.5-1.5-0.9-3.1-1-4.6l-2.2-19.1c-0.8-7.1-1.6-14.1-2.2-21.2c-0.4-5-0.8-10-0.8-15c0-4.4,0.3-8.7-0.1-13.1
		c-0.4-4.6-1.7-9.1-2.3-13.7c-0.5-4.2-2.4-12.9,1.1-16.3C203.5,189.2,204.3,189.1,204.9,189.5z"/>
	<path class="st4" d="M207,175.9l-5.3,6.2c0,0-8.5-1.6-11-6.1S207,175.9,207,175.9z"/>
	<path class="st2" d="M208.2,170.4c0,0-0.6,4.7-6.5,11.6l10.6,12l-0.6-21.3L208.2,170.4z"/>
	<path class="st2" d="M180.8,164.7c0,0,12.3,13.9,20.9,17.3l-6.1,14.2l-17.5-26L180.8,164.7z"/>
	
		<linearGradient id="SVGID_3_" gradientUnits="userSpaceOnUse" x1="198.0697" y1="627.0229" x2="216.3497" y2="665.8229" gradientTransform="matrix(1 0 0 1 -7.81 -484.45)">
		<stop  offset="1.000000e-02" style="stop-color:#000000"/>
		<stop  offset="0.83" style="stop-color:#000000;stop-opacity:7.000000e-02"/>
		<stop  offset="1" style="stop-color:#000000;stop-opacity:0"/>
	</linearGradient>
	<path class="st6" d="M208.2,170.4c0,0-0.6,4.7-6.5,11.6l10.6,12l-0.6-21.3L208.2,170.4z"/>
	
		<linearGradient id="SVGID_4_" gradientUnits="userSpaceOnUse" x1="184.8081" y1="633.2684" x2="203.0781" y2="672.0683" gradientTransform="matrix(1 0 0 1 -7.81 -484.45)">
		<stop  offset="1.000000e-02" style="stop-color:#000000"/>
		<stop  offset="0.83" style="stop-color:#000000;stop-opacity:7.000000e-02"/>
		<stop  offset="1" style="stop-color:#000000;stop-opacity:0"/>
	</linearGradient>
	<path class="st7" d="M180.8,164.7c0,0,12.3,13.9,20.9,17.3l-6.1,14.2l-17.5-26L180.8,164.7z"/>
	<path class="st8" d="M228.9,308.9c-1.1,0-2.2-0.2-3.3-0.6c0,0-1.7-1.1-3-1.8c-0.3-0.2-0.7-0.4-1-0.5c-2-0.6-3.8-1.4-5.5-2.6
		c-2.1-1.6-9.1-8.2-9.1-8.2l4.5-7l2.1-6.9c0,0,16.3,1.6,18.5,2.9c0.2,0.1,0.4,0.3,0.6,0.4c1.7,1.3,2.5,3,3.3,3.7
		c0.3,0.3,3.1,3.3,3,4.6c-0.1,1.4-0.9,2.7-2.1,3.3c0,0-0.6,3.3-2.3,4.8c-0.3,1.9-1.4,3.5-3.1,4.3
		C231.5,305.4,230.7,308.5,228.9,308.9z"/>
	<path class="st9" d="M202.9,98.6c0,0,29.5-7.1,23.3,30.2s-13.3,40.4-31.3,32.9s-16.7-31.3-17.8-43S193.5,99.1,202.9,98.6z"/>
	<path class="st9" d="M187.4,124.4c-0.4-3.3-6.9-4.4-7.4,0.5s3.1,13.5,5.6,12.6S188,128.9,187.4,124.4z"/>
	<path class="st0" d="M219.2,281.4L207,302.3c0,0-32.3-8.3-39.8-10.4l17.2-20.5C184.5,271.4,209.8,277.2,219.2,281.4z"/>
	<path class="st10" d="M208.1,169.2L208.1,169.2c-9.1-0.7-17.3-5.9-22-13.8c5.8,5.8,13.6,9.3,21.9,9.6c0,0.3,0,0.6,0,0.9
		c0,0.5,0,1,0,1.5S208.1,168.7,208.1,169.2z"/>
	<path class="st0" d="M343.9,322.4H191.6c-4.3,0-7.7-3.5-7.7-7.7l0,0c0-4.3,3.5-7.7,7.7-7.7h152.3c4.3,0,7.7,3.5,7.7,7.7l0,0
		C351.6,319,348.1,322.4,343.9,322.4z"/>
	
		<linearGradient id="SVGID_5_" gradientUnits="userSpaceOnUse" x1="275.1948" y1="814.2043" x2="275.9048" y2="781.9343" gradientTransform="matrix(1 0 0 1 -7.81 -484.45)">
		<stop  offset="1.000000e-02" style="stop-color:#000000"/>
		<stop  offset="0.12" style="stop-color:#000000;stop-opacity:0.75"/>
		<stop  offset="1" style="stop-color:#000000;stop-opacity:0"/>
	</linearGradient>
	<path class="st11" d="M343.9,322.4H191.6c-4.3,0-7.7-3.5-7.7-7.7l0,0c0-4.3,3.5-7.7,7.7-7.7h152.3c4.3,0,7.7,3.5,7.7,7.7l0,0
		C351.6,319,348.1,322.4,343.9,322.4z"/>
	<path class="st0" d="M250.5,307.6l2.6,8.2l108.2,6.6l30.8-78.2c1.4-3.5-0.3-7.5-3.9-8.9c-0.8-0.3-1.7-0.5-2.5-0.5H294
		c-9.1,0-17.2,5.6-20.6,14L250.5,307.6z"/>
	
		<linearGradient id="SVGID_6_" gradientUnits="userSpaceOnUse" x1="312.4719" y1="701.9089" x2="347.6919" y2="820.4988" gradientTransform="matrix(1 0 0 1 -7.81 -484.45)">
		<stop  offset="1.000000e-02" style="stop-color:#000000"/>
		<stop  offset="0.12" style="stop-color:#000000;stop-opacity:0.75"/>
		<stop  offset="1" style="stop-color:#000000;stop-opacity:0"/>
	</linearGradient>
	<path class="st12" d="M250.5,307.6l2.6,8.2l108.2,6.6l30.8-78.2c1.4-3.5-0.3-7.5-3.9-8.9c-0.8-0.3-1.7-0.5-2.5-0.5H294
		c-9.1,0-17.2,5.6-20.6,14L250.5,307.6z"/>
	<path class="st0" d="M250.3,322.5h111l29.3-74.3c1.3-3.4-0.3-7.1-3.7-8.5c-0.8-0.3-1.6-0.5-2.4-0.5h-87.1
		c-8.6,0-16.4,5.3-19.5,13.3L250.3,322.5z"/>
	
		<linearGradient id="SVGID_7_" gradientUnits="userSpaceOnUse" x1="325.8663" y1="834.1327" x2="330.6563" y2="712.8427" gradientTransform="matrix(1 0 0 1 -7.81 -484.45)">
		<stop  offset="1.000000e-02" style="stop-color:#000000"/>
		<stop  offset="0.12" style="stop-color:#000000;stop-opacity:0.75"/>
		<stop  offset="1" style="stop-color:#000000;stop-opacity:0"/>
	</linearGradient>
	<path class="st13" d="M250.3,322.5h111l29.3-74.3c1.3-3.4-0.3-7.1-3.7-8.5c-0.8-0.3-1.6-0.5-2.4-0.5h-87.1
		c-8.6,0-16.4,5.3-19.5,13.3L250.3,322.5z"/>
	<path class="st0" d="M103.4,180.5v33.9c0,3.6-2.9,6.5-6.5,6.5h-55c-3.6,0-6.5-2.9-6.5-6.5v-33.9c0-0.4,0-0.7,0.1-1.1l38.8,26.1
		l28.9-26.5C103.3,179.5,103.3,180,103.4,180.5z"/>
	<path class="st5" d="M190.5,128.8c-0.8-2-1.8-4.2-3.8-4.8c-2.6-0.9-5.5,1.7-5.6,4.5c-0.1,2.8,1.7,5.3,3.9,7c-1.3,4.5-3,8.8-5,13
		c-2.5-7.8-3.8-15.9-3.8-24c-1-0.3-1.5-1.5-1.8-2.5c-1.4-6.6,2.1-13.3,5.8-19c1.5-2.5,3.5-4.8,5.8-6.6c5.2-3.7,12.1-3.2,18.5-3.8
		c5.2-0.5,10.7-1.7,15.6,0.2c3.5,1.6,6.3,4.3,8,7.7c1.7,3.4,2.8,7,3.4,10.8c0.9,3.8,1.2,7.6,0.9,11.5s-1.7,7.6-4.3,10.5
		c-0.7,0.8-2.5,1.7-3.4,1.1c0.8-3.2,1.2-6.6,1.1-9.9c-0.1-2.9-0.1-4.6-2-6.8c-0.7-1-1.8-1.6-3.1-1.7c-1.1,0-2.2,0.6-3.4,0.7
		c-2.1,0.1-3.6-1.7-5.5-2.7c-2.3-1.2-5-1.3-7.3-0.2c-2.3,1.1-4.1,3.1-5,5.5c-0.5,1.4-1,3.3-2.5,3.6c-2,0.4-3.5-2.5-5.2-1.3
		C190.6,122.5,190.7,127.1,190.5,128.8z"/>
	
		<linearGradient id="SVGID_8_" gradientUnits="userSpaceOnUse" x1="133.8423" y1="749.1036" x2="186.7023" y2="704.1136" gradientTransform="matrix(1 0 0 1 -7.81 -484.45)">
		<stop  offset="1.000000e-02" style="stop-color:#000000"/>
		<stop  offset="0.83" style="stop-color:#000000;stop-opacity:7.000000e-02"/>
		<stop  offset="1" style="stop-color:#000000;stop-opacity:0"/>
	</linearGradient>
	<path class="st14" d="M157.2,261.8l23,7.5c0,0-7.5-45.4-9.4-47.2s-24-25.9-24-25.9s11.6,23.5,6.4,39.9"/>
	
		<linearGradient id="SVGID_9_" gradientUnits="userSpaceOnUse" x1="138.0204" y1="824.6813" x2="179.6304" y2="738.0812" gradientTransform="matrix(1 0 0 1 -7.81 -484.45)">
		<stop  offset="1.000000e-02" style="stop-color:#000000"/>
		<stop  offset="0.83" style="stop-color:#000000;stop-opacity:7.000000e-02"/>
		<stop  offset="1" style="stop-color:#000000;stop-opacity:0"/>
	</linearGradient>
	<path class="st15" d="M207,302.3l5.5-10.1c0,0-84.1-25.6-85.2-27.3s1.4-44.7,1.4-44.7l-12.6,52.6
		C116.1,272.8,142.6,288.2,207,302.3z"/>
	
		<linearGradient id="SVGID_10_" gradientUnits="userSpaceOnUse" x1="180.5035" y1="743.3556" x2="174.3235" y2="846.2656" gradientTransform="matrix(1 0 0 1 -7.81 -484.45)">
		<stop  offset="1.000000e-02" style="stop-color:#000000"/>
		<stop  offset="0.83" style="stop-color:#000000;stop-opacity:7.000000e-02"/>
		<stop  offset="1" style="stop-color:#000000;stop-opacity:0"/>
	</linearGradient>
	<path class="st16" d="M180.7,296.2v22.2l-23.1,0.1c0,0,3.2-15.8,2.6-28.6L180.7,296.2z"/>
	<path class="st0" d="M102.5,175.3l-28.9,26.5l-39-26.1c0.5-3.1,3.3-5.4,6.5-5.4h55C99.2,170.2,101.8,172.3,102.5,175.3z"/>
	<circle class="st0" cx="153.2" cy="69.8" r="21.9"/>
	<polygon class="st0" points="144.4,102.3 138.4,85.8 168.3,85.8 163.5,101.9 	"/>
	<path class="st0" d="M145.4,105.4h16.9l0,0v1.4c0,2.6-2.1,4.6-4.6,4.6h-7.6c-2.6,0-4.6-2.1-4.6-4.6L145.4,105.4L145.4,105.4z"/>
	<g>
		<path class="st2" d="M148.9,102.7c-1.6-3.5-2.5-7.3-2.6-11.1c-0.2-3.9,1.2-7.8,3.8-10.7c0.7-0.9,1.7-1.4,2.8-1.6
			c1.4,0,2.6,0.9,3.1,2.1c0.6-0.4,1.4-0.6,2.1-0.5c1.9,0.1,3.2,1.9,3.6,3.7c0.3,1.6,0.4,3.3,0.1,5c-0.5,4.4-1.5,8.8-2.9,13l-0.9-0.3
			c1.5-4.1,2.4-8.4,2.9-12.8c0.2-1.6,0.2-3.2-0.1-4.7c-0.4-1.4-1.3-2.8-2.7-2.9c-0.6,0-1.1,0.1-1.6,0.4c0.1,0.2,0.1,0.3,0.2,0.4
			c0.6,1.8,0.7,3.8,0.4,5.7c-0.1,0.9-0.5,1.8-1.2,2.5c-0.5,0.4-1.1,0.6-1.7,0.6c-0.5,0-0.9-0.3-1.2-0.6c-0.3-0.4-0.4-0.9-0.4-1.4
			c-0.2-2.2,0.4-4.5,1.7-6.3c0.3-0.4,0.6-0.8,1-1.2c-0.4-1-1.3-1.6-2.3-1.7c-0.8,0.1-1.6,0.6-2.1,1.3c-2.4,2.8-3.6,6.3-3.5,10
			s1,7.3,2.5,10.7L148.9,102.7z M155.7,83c-0.2,0.2-0.4,0.5-0.6,0.8c-1.1,1.7-1.7,3.7-1.5,5.7c0,0.3,0.1,0.6,0.2,0.8
			c0.1,0.2,0.3,0.3,0.5,0.3c0.4,0,0.7-0.1,1-0.3c0.5-0.5,0.8-1.2,0.8-1.9C156.4,86.5,156.3,84.7,155.7,83L155.7,83L155.7,83z"/>
	</g>
	<path class="st0" d="M256.9,114h71.4c3.1,0,5.6,2.5,5.6,5.6v46.7c0,3.1-2.5,5.6-5.6,5.6h-71.5c-3.1,0-5.6-2.5-5.6-5.6v-46.7
		C251.3,116.5,253.8,114,256.9,114z"/>
	<rect x="254.8" y="129.3" class="st17" width="16.5" height="15.2"/>
	<rect x="274.7" y="129.3" class="st2" width="16.5" height="15.2"/>
	<rect x="254.8" y="147.7" class="st2" width="16.5" height="15.2"/>
	<rect x="274.7" y="147.7" class="st2" width="16.5" height="15.2"/>
	<rect x="293.8" y="129.3" class="st2" width="16.5" height="15.2"/>
	<rect x="313.7" y="129.3" class="st2" width="16.5" height="15.2"/>
	<rect x="293.8" y="147.7" class="st2" width="16.5" height="15.2"/>
	<rect x="313.7" y="147.7" class="st2" width="16.5" height="15.2"/>
</g>
</svg>
