<?xml version="1.0" encoding="utf-8"?>
<!-- Generator: Adobe Illustrator 22.0.0, SVG Export Plug-In . SVG Version: 6.00 Build 0)  -->
<svg version="1.1" xmlns="http://www.w3.org/2000/svg" xmlns:xlink="http://www.w3.org/1999/xlink" x="0px" y="0px"
	 viewBox="0 0 1000 1000" style="enable-background:new 0 0 1000 1000;" xml:space="preserve">
<style type="text/css">
	.st0{fill:none;stroke:#003A7F;stroke-width:2;stroke-miterlimit:10;}
	.st1{fill:none;stroke:#0045AA;stroke-width:2;stroke-miterlimit:10;}
	.st2{fill:none;stroke:#005FEF;stroke-width:2;stroke-miterlimit:10;}
	.st3{fill:none;stroke:#000000;stroke-width:2;stroke-miterlimit:10;}
	.st4{fill:#3E3E54;}
	.st5{fill:url(#SVGID_1_);}
	.st6{fill:#005FEF;}
	.st7{fill:url(#SVGID_2_);}
	.st8{fill:url(#SVGID_3_);}
	.st9{fill:#F2F2F2;}
	.st10{fill:url(#SVGID_4_);}
	.st11{fill:url(#SVGID_5_);}
	.st12{fill:url(#SVGID_6_);}
	.st13{fill:#FFB6B6;}
	.st14{fill:#FFFFFF;}
	.st15{fill:url(#SVGID_7_);}
	.st16{fill:url(#SVGID_8_);}
	.st17{fill:url(#SVGID_9_);}
	.st18{fill:url(#SVGID_10_);}
</style>
<g id="Layer_2">
	<path class="st0" d="M333,515.5c0-59.1,24.3-112.6,63.4-150.9"/>
	<path class="st1" d="M544.5,727c-39.4,0-76.3-10.8-107.8-29.5"/>
	<path class="st1" d="M756,515.5c0,53.6-19.9,102.5-52.8,139.8"/>
	<path class="st2" d="M544.5,304c102.2,0,187.5,72.5,207.2,168.9"/>
	<path class="st3" d="M457.3,322.8"/>
	<path class="st0" d="M396.4,364.6c12.1-11.9,25.6-22.3,40.3-31"/>
	<path class="st3" d="M365.4,334"/>
	<path class="st0" d="M289,516c0-46.5,12.4-90,34.2-127.6"/>
	<path class="st3" d="M297,579.7"/>
	<path class="st0" d="M544,771c-55,0-106-17.4-147.7-47.1"/>
	<path class="st3" d="M662.3,741.9"/>
	<path class="st0" d="M784.1,430c9.6,26.9,14.9,55.8,14.9,86c0,52.5-15.8,101.2-43,141.7"/>
	<path class="st3" d="M784.1,430"/>
	<path class="st2" d="M365.4,334c46-45.2,109.1-73,178.6-73c55.3,0,106.5,17.6,148.2,47.5"/>
	<path class="st3" d="M346.5,314.7"/>
	<path class="st2" d="M679.8,763.2C639.5,785.4,593.2,798,544,798c-155.7,0-282-126.3-282-282c0-35,6.4-68.6,18.1-99.5"/>
	<path class="st2" d="M761.6,695.4c-22.7,27.5-50.4,50.6-81.9,67.9"/>
	<path class="st3" d="M761.6,695.4"/>
	<path class="st1" d="M777.5,357.8C804,396.9,821,443,825,492.7"/>
	<path class="st3" d="M777.5,357.8"/>
	<path class="st0" d="M544,234c43.1,0,84,9.7,120.6,27"/>
	<path class="st1" d="M346.5,314.7c38.2-37.5,86.9-64.1,141.4-75.1"/>
</g>
<g id="Layer_1">
	<title>Hero of Employe</title>
	<path class="st4" d="M573.2,557.5c0.5,4.3,0.9,8.8-0.4,13c-2.3,7.4-9.5,12-16.3,15.5c-13.9,7-28.9,11.8-43.4,17.5
		c-4.9,1.9-10.3,4.6-11.5,9.7c-0.5,2.3-0.1,4.7-0.9,6.9s-3.9,3.8-5.4,2c-0.6-0.8-0.8-1.8-0.8-2.8l-0.6-11.6
		c-0.2-3.9-0.4-7.9,0.6-11.6c1-3.8,3.3-7.4,6.9-8.9c1.2-0.5,2.5-0.8,3.7-1.2c4.6-1.8,7.4-6.3,10.1-10.3c6.5-9.5,15-18.4,26-21.7
		c-7-10.7-9.2-23.9-6.1-36.3c1.6-6.3,4.9-12.5,10.5-15.7c4.4-2.5,9.8-2.4,14.2,0.2c5,3.2,5.7,9.1,7,14.5
		C570.2,530,571.7,543.8,573.2,557.5z"/>
	
		<linearGradient id="SVGID_1_" gradientUnits="userSpaceOnUse" x1="523.1635" y1="436.4789" x2="603.064" y2="436.4789" gradientTransform="matrix(1 0 0 -1 -29.42 998.53)">
		<stop  offset="0" style="stop-color:#000000;stop-opacity:0"/>
		<stop  offset="0.99" style="stop-color:#000000"/>
	</linearGradient>
	<path class="st5" d="M573.2,558c0.5,4.3,0.9,8.8-0.4,13c-2.3,7.4-9.5,12-16.3,15.5c-13.9,7-28.9,11.8-43.4,17.6
		c-4.9,1.9-10.3,4.6-11.5,9.7c-0.5,2.3-0.1,4.7-0.9,6.9s-3.9,3.8-5.4,2c-0.6-0.8-0.8-1.8-0.8-2.8l-0.6-11.6
		c-0.2-3.9-0.4-7.9,0.6-11.6c1-3.8,3.3-7.4,6.9-8.9c1.2-0.5,2.5-0.8,3.7-1.2c4.6-1.8,7.4-6.3,10.1-10.3c6.5-9.5,15-18.4,26-21.7
		c-7-10.8-9.2-23.9-6.1-36.4c1.6-6.3,4.9-12.5,10.5-15.7c4.4-2.5,9.8-2.4,14.2,0.2c5,3.2,5.7,9.1,7,14.5
		C570.2,530.5,571.7,544.3,573.2,558z"/>
	<path class="st4" d="M548,503.6c0,8.9-2.1,17.8-6.2,25.7c-2.1,4.1-4.8,8.1-6,12.5c-8.2,29.5-41.6,45.8-66.5,64.4
		c-10.1,7.6-21.2,15.2-25.8,26.8c-0.6,1.6-1.2,3.4-2.8,4.1c-2.2,1.1-5-0.7-5.8-3c-0.8-2.3-0.1-4.8,0.6-7.1l3.6-12.5
		c0.3-1.4,0.9-2.8,1.8-3.9c1.1-1,2.3-1.8,3.6-2.4c9.2-5.3,12.1-16.6,16.9-25.9c5.5-10.5,14-19.2,24.4-24.9c2.8-1.5,5.7-2.9,7.8-5.2
		s3.3-5.6,4.4-8.7c3.5-10.2,7.6-20.3,12.1-30.1c1.8-3.9,12.3-22,15.3-25.1C533.2,480.5,540.4,495.3,548,503.6z"/>
	<path class="st6" d="M586,427.2c0,1.3-0.1,2.6-0.1,3.9c0,4.2-0.4,8.9-3.4,11.9c-2.3,2.3-5.6,3.1-8.7,4.1
		c-22.2,7.2-36.3,28.6-55.9,41.2c-4.2,2.7-9,5-13.8,4.5c-0.6-0.1-1.2-0.2-1.7-0.3c-3.2-0.8-5.8-2.9-8.8-4.1
		c-6-2.4-12.8-1.1-18.8,1.1s-11.9,5.1-18.3,6c-6.4,0.9-13.6-0.8-17.2-6.1c-1.9-2.9-2.5-6.5-4-9.7c-5.5-11.4-21.2-14.2-28.2-24.6
		c-0.1-0.2-0.3-0.4-0.4-0.6c-1-1.7-1.8-3.5-2.3-5.4c-0.1-0.5-0.3-1-0.3-1.6c-0.7-3.8-0.3-7.7,1.1-11.3l0.2-0.5
		c2.7-6,7.8-10.6,14.1-12.6c8.7-2.7,18.1-0.3,27.2-0.5c9.5-0.2,19.1-3.2,28.5-1.6c7.3,1.3,14,5.3,20.7,8.6c5.6,2.7,11.2,5,17.3,4.8
		c5.5-0.1,10.7-2.3,15.6-4.7c9-4.4,17.5-9.9,27-13.4c7.1-2.6,14.9-4,22.4-2.7C586.2,414.9,586.2,420.5,586,427.2z"/>
	
		<linearGradient id="SVGID_2_" gradientUnits="userSpaceOnUse" x1="485.7051" y1="527.2814" x2="615.3851" y2="605.0915" gradientTransform="matrix(1 0 0 -1 -29.42 998.53)">
		<stop  offset="0" style="stop-color:#000000;stop-opacity:0"/>
		<stop  offset="0.99" style="stop-color:#000000"/>
	</linearGradient>
	<path class="st7" d="M572.3,437.4c-2.1,2.5-5.3,3.6-8.3,4.8c-13.3,5.6-16.3,22.6-26.1,33.4c-6.1,6.6-25.7,14.6-26,12.5
		c-0.4-2.9-5,3.5-7.8,4.6c-0.6-0.1-1.2-0.2-1.7-0.3c-3.2-0.8-5.8-2.9-8.8-4.1c-6-2.4-12.8-1.1-18.8,1.1c-6,2.2-11.9,5.1-18.3,6
		c-6.4,0.9-13.6-0.8-17.2-6.1c-1.9-2.9-2.5-6.5-4-9.7c-3.6-7.6-11.8-11.3-19-16.1c-3.6-2.2-6.8-5.1-9.2-8.5
		c-0.1-0.2-0.3-0.4-0.4-0.6c-1-1.7-1.8-3.5-2.3-5.4c2.3-2.5,5-4.4,8.1-5.6c8.4-3.5,18-1.9,27-2.9c9.5-1,18.7-4.8,28.2-4
		c13.5,1.2,25.6,11.6,39,10c5.4-0.6,10.4-3.2,15.1-6c8.6-5.2,16.6-11.4,25.7-15.7c6.8-3.2,14.5-5.3,22.1-4.6
		c1.6,0.1,3.2,0.6,4.6,1.3c0.1,1.3,0.1,2.6,0.3,3.9C575.1,429.5,575.1,434.2,572.3,437.4z"/>
	
		<linearGradient id="SVGID_3_" gradientUnits="userSpaceOnUse" x1="480.4541" y1="482.0776" x2="582.0441" y2="657.1776" gradientTransform="matrix(1 0 0 -1 -29.42 998.53)">
		<stop  offset="0" style="stop-color:#000000;stop-opacity:0"/>
		<stop  offset="0.99" style="stop-color:#000000"/>
	</linearGradient>
	<path class="st8" d="M545.6,466.3c-6.1,6.6-23.8,18.4-30.9,23.8c-2.4,1.8-7.8,1.6-10.6,2.7c-0.6-0.1-1.2-0.2-1.7-0.3
		c-3.2-0.8-5.8-2.9-8.8-4.1c-6-2.4-12.8-1.1-18.8,1.1s-11.9,5.1-18.3,6c-6.4,0.9-13.6-0.8-17.2-6.1c-1.9-2.9-2.5-6.5-4-9.7
		c-3.6-7.6-11.8-11.3-19-16.1c1.2-1,2.9-1.1,4.3-0.4c7.1,4.8,16.6,3.2,24.7,0.4c8-2.9,16.1-6.9,24.6-6.3c9.6,0.6,17.9,6.9,27.3,9.1
		c6.9,1.6,14.1,0.9,20.5-2c3.5-1.6,19.1-16.4,22.2-14.1c1.1,0.8,13-6.3,13.4-4.9C553.5,446.3,545.6,465.2,545.6,466.3z"/>
	<path class="st9" d="M657.5,379c1.2,1.3,1.5,3.1,0.8,4.7c-0.7,1.5-1.7,2.9-3,4.1c-10.4,10.7-24.5,20.5-34.9,31.1
		c-5.4,5.6-6.7,6.7-12.4,11.9c-3.8,3.5-7.7,6.8-10.8,10.8c-2.9,3.7-5.4,13.3-7.5,17.4l-10.5,21c-3.6,7.2-7.2,14.4-12,20.8
		c-0.8,1.3-2,2.4-3.3,3.1c-1.3,0.5-2.7,0.8-4.2,0.8c-7.4,0.4-14.9,1.6-22-0.4c-7.1-2-13.6-8.7-12.4-16c0.6-2.5,1.6-4.9,3-7
		l12.7-22.4c3.8-6.8,7.7-13.5,11.6-20.2c3.1-5.2,6.4-10.5,11.1-14.4c4.1-3.4,9.1-5.6,14.1-7.7c10.5-4.5,21-8.4,30.7-14.4
		c9.8-6.1,20.1-11.5,30.7-16.2C645.2,383.5,651.3,381.2,657.5,379z"/>
	
		<linearGradient id="SVGID_4_" gradientUnits="userSpaceOnUse" x1="660.2202" y1="594.3094" x2="488.7502" y2="546.7594" gradientTransform="matrix(1 0 0 -1 -29.42 998.53)">
		<stop  offset="0" style="stop-color:#000000;stop-opacity:0"/>
		<stop  offset="0.99" style="stop-color:#000000"/>
	</linearGradient>
	<path class="st10" d="M606.4,417.6c1.3-1.2,1.5-3.2,2.3-4.8c1.1-2.3,3.4-3.7,5.6-5c8.3-5.3,15.9-11.9,22.3-19.4
		c-9.2,2.4-17.3,7.8-25.2,13.1l-13.2,8.9c-5.2,3.5-10.5,7.1-14.5,12c-0.3,0.4-0.6,0.8-0.7,1.3c-0.2,1.2,1.1,2,2.1,2.8
		c4.1,3.2,7.2,5.1,9.3-0.8c0.9-2.5,1.8-4,4.3-5.3C601.1,419,604.4,419.4,606.4,417.6z"/>
	
		<linearGradient id="SVGID_5_" gradientUnits="userSpaceOnUse" x1="616.5031" y1="561.6017" x2="621.1431" y2="580.7317" gradientTransform="matrix(1 0 0 -1 -29.42 998.53)">
		<stop  offset="0" style="stop-color:#000000;stop-opacity:0"/>
		<stop  offset="0.72" style="stop-color:#000000;stop-opacity:0.51"/>
		<stop  offset="0.99" style="stop-color:#000000"/>
	</linearGradient>
	<path class="st11" d="M585.6,435.3c1.3,0.5,2.6,1.1,3.7,1.9c0.5,0.4,1.1,0.7,1.7,1c0.6,0.3,1.3,0.3,2,0c0.1-0.1,0.2-0.2,0.3-0.3
		c0.1-0.2,0.1-0.4,0-0.5c-0.8-2.4-1.8-4.7-3-6.8c-0.1-0.3-0.3-0.5-0.5-0.7c-0.4-0.2-0.8-0.4-1.3-0.4c-1.3-0.1-2.6-0.1-3.9,0.1
		c-0.7,0.1-1.4,0.4-2,0.9c-0.4,0.5-0.7,1-0.8,1.6c-0.3,1-0.4,2.1-0.2,3.2c0.6,0,1.3-0.3,2-0.3C584.2,435,584.9,435.1,585.6,435.3z"
		/>
	
		<linearGradient id="SVGID_6_" gradientUnits="userSpaceOnUse" x1="526.3579" y1="550.616" x2="839.508" y2="491.586" gradientTransform="matrix(1 0 0 -1 -29.42 998.53)">
		<stop  offset="0" style="stop-color:#000000;stop-opacity:0"/>
		<stop  offset="0.99" style="stop-color:#000000"/>
	</linearGradient>
	<path class="st12" d="M569.5,425.5c-1,2.5-1.6,5.3-1.5,8c-0.2,2,0,4,0.8,5.9c0.1,0.1,0.1,0.3,0.3,0.4c0.2,0.1,0.4,0.1,0.7,0.1
		c1.3-0.2,2.5-0.1,3.8,0.2c0.1,0,0.2,0.1,0.2,0.1c0.1,0.1,0.1,0.2,0.1,0.3l0.5,2.4c1.8,9-1.4,19.2-8.7,24.7
		c-2.5,1.7-5.1,3.1-7.9,4.2c-4.8,2.2-9.5,5-13.1,8.9s-5.8,9.3-5.2,14.6c6.7-3.4,12.6-8.1,17.4-13.8c3.4-4.1,6.3-8.7,10.4-12.1
		c2.4-2,5.3-3.5,7.4-5.9c4-4.5,4.5-11,4.8-17c0.4-8.4,0.2-18.2-6.4-23.4C572.2,423.4,569.9,424.8,569.5,425.5z"/>
	<path class="st13" d="M666.7,368.2c1.8-0.6,4-0.8,5.6,0.3c0.9,0.7,1.6,1.7,2,2.8c1,2.6,1.1,5.8-0.6,7.9c-1.2,1.2-2.6,2.2-4.2,2.8
		c-3.3,1.6-6.7,2.9-10.2,3.8c-2.1,0.5-5.4,0.6-6.5-1.8c-1-2.1,1.1-4.5,2.3-6.1C657.9,373.8,661.7,369.9,666.7,368.2z"/>
	<path class="st14" d="M519.3,445.1c-5.8,3.2-11.6,6.8-14.9,12.5c-3.1,5.3-3.5,11.7-3.4,17.9c0,6.8,0.9,13.5,2.4,20.1
		c0.2,0.7,0.5,1.6,1.2,1.8c0.5,0.1,1.1,0,1.5-0.3c4.6-2.3,7.9-6.4,9.2-11.3c0.4-1.8,0.6-3.5,0.9-5.3c0.8-3.9,2.1-7.7,3.7-11.4
		c0.6-1.6,1.4-3.2,2.5-4.6c1.2-1.2,2.6-2.1,4.1-2.9c8.3-4.5,16.7-8.9,25.1-13.2c3.2-1.4,6.1-3.2,8.9-5.4c2.8-2.2,4.6-5.2,5.3-8.7
		c0.5-3.4,3.1-11-1.3-10.7s-13.4,4.1-17.3,5.8C537.4,433.8,528.6,439.9,519.3,445.1z"/>
	<path class="st9" d="M566.7,429.8c-0.3,1.7-0.7,3.4-0.9,4.7c-0.7,3.4-2.6,6.5-5.3,8.6c-2.7,2.1-5.7,3.9-8.9,5.4
		c-8.4,4.3-16.8,8.7-25.1,13.2c-1.5,0.7-2.9,1.7-4.1,2.9c-1.1,1.4-1.9,2.9-2.5,4.5c-1.6,3.7-2.8,7.5-3.7,11.4
		c-0.3,1.8-0.5,3.6-0.9,5.3c-1.3,4.9-4.6,9.1-9.2,11.3c-0.5,0.3-1,0.4-1.5,0.3c-0.7-0.2-1-1.1-1.2-1.8c-1.6-6.6-2.4-13.3-2.4-20.1
		c-0.1-6.1,0.3-12.5,3.4-17.9c3.3-5.7,9.2-9.3,14.9-12.5c9.3-5.2,18.1-11.3,27.9-15.6c4-1.7,13-5.5,17.3-5.8
		C567.3,423.5,567.3,426.6,566.7,429.8z"/>
	<path class="st6" d="M560.3,425c2.3,2.3,4.8,4.3,7.5,6.2c2.7,1.8,5.9,2.7,9.2,2.5c0.6-0.1,1.3-0.3,1.4-0.8c0.1-0.6-0.4-1.1-0.9-1.5
		c-2.5-2-4.5-4.9-4.5-8.1c0-1.5,0.4-3.2-0.4-4.5c-1-1.7-3.2-1.9-5.2-1.8c-1.9,0.1-3.9,0.3-5.8,0.7c-1.6,0.3-14.5,6.1-12.9,6.5
		C549.1,424.2,555.3,420.4,560.3,425z"/>
	
		<linearGradient id="SVGID_7_" gradientUnits="userSpaceOnUse" x1="589.1694" y1="586.689" x2="612.7993" y2="571.799" gradientTransform="matrix(1 0 0 -1 -29.42 998.53)">
		<stop  offset="0" style="stop-color:#000000;stop-opacity:0"/>
		<stop  offset="0.99" style="stop-color:#000000"/>
	</linearGradient>
	<path class="st15" d="M560.8,420.7c-0.6-0.2-1.2-0.5-1.8-0.9c-0.5-0.4-0.8-1.1-0.7-1.7c0.1-0.3,0.3-0.7,0.6-0.9
		c1.9-2,4.8-2.8,7.5-3.3c4-0.8,8.3-1.1,11.8,0.9c0.4,0.3,0.9,0.7,0.8,1.2c-0.1,0.3-0.2,0.5-0.5,0.7c-1.5,1.4-3.2,2.3-4.7,3.6
		c-1.5,1.3-2.2,3.3-3.7,4.6C567.5,427.3,563.5,421.8,560.8,420.7z"/>
	
		<linearGradient id="SVGID_8_" gradientUnits="userSpaceOnUse" x1="568.5984" y1="558.7294" x2="564.9584" y2="452.3394" gradientTransform="matrix(1 0 0 -1 -29.42 998.53)">
		<stop  offset="0" style="stop-color:#000000;stop-opacity:0"/>
		<stop  offset="0.99" style="stop-color:#000000"/>
	</linearGradient>
	<path class="st16" d="M566.7,429.8c-0.3,1.7-0.7,3.4-0.9,4.7c-0.7,3.4-2.6,6.5-5.3,8.6c-2.7,2.1-5.7,3.9-8.9,5.4
		c-8.4,4.3-16.8,8.7-25.1,13.2c-1.5,0.7-2.9,1.7-4.1,2.9c-1.1,1.4-1.9,2.9-2.5,4.5c-1.6,3.7-2.8,7.5-3.7,11.4
		c-0.3,1.8-0.5,3.6-0.9,5.3c-0.6,2.6-1.9,5-3.6,7c-0.6-4.3-1-8.7-1-13.1c-0.1-6.1,0.3-12.6,3.4-17.9c3.3-5.7,9.2-9.3,14.9-12.5
		c9.3-5.2,18.1-11.3,27.9-15.6C559.2,432.7,563,431.1,566.7,429.8z"/>
	<path class="st4" d="M493.5,507.8c2.8-3.5,7-5.7,11.5-5.7c2-0.3,4.1-0.1,6.1,0.6c3,1.3,5,4.2,5,7.5c0,1.1-0.3,2.2-1,3.1
		c-0.7,0.9-1.8,1.3-2.9,1c-0.3-0.1-0.6-0.3-0.7-0.6c0-0.2,0-0.4,0-0.5c0.3-1.5,0.2-3.1-0.3-4.6c-0.6-1.5-1.8-2.6-3.4-3
		c-1.4-0.1-2.8,0-4.1,0.4c-2,0.6-5.4,2-6.6,3.7s-1.3,4.6-3,5.8c-1.2,0.9-3.1,1.4-4-0.4S492.3,509.1,493.5,507.8z"/>
	<path class="st14" d="M593.4,433.1c0.1,0.4,0.1,1-0.2,1.3c-0.3,0.2-0.7,0.2-1.1,0c-1.7-0.8-2.9-2.5-4.7-2.9c-1.1-0.1-2.2-0.1-3.3,0
		c-1.1-0.1-2.4-0.7-2.4-1.9c0-0.9,0.7-1.5,1.4-2.1c1.2-1,2.3-2.1,3.4-3.2c1.4-1.3,1.7-1.3,2.9,0.3
		C591.2,427.1,592.6,430,593.4,433.1z"/>
	<path class="st6" d="M576.4,432.4c-0.2,0.1-0.3,0.2-0.4,0.3c-0.1,0.1-0.1,0.3-0.1,0.5c0.1,1.2,0.6,2.4,1.4,3.4c0.7,1,1.6,1.9,2.3,3
		c2.1-1,3.5-3.2,3.6-5.5c0.1-0.9-0.2-1.8-0.8-2.5C580.8,430,577.9,431.7,576.4,432.4z"/>
	<path class="st6" d="M577.1,450.9c-0.3,3.5-1.8,6.8-4.2,9.4c-1.8,1.7-4,3-6.3,3.8c-4.8,1.9-10,2.6-15,3.8c-5,1.2-10.1,2.9-14.1,6.2
		c-5.3,4.5-8,11.4-9.5,18.1l8.9-1c0.5,0,1-0.2,1.5-0.4c0.5-0.4,1-0.9,1.2-1.5c3.2-5.4,7.3-10.5,12.6-14c4.9-3.2,10.6-4.9,15.8-7.5
		c5.2-2.6,10.3-6.5,12-12.1c0.6-2.1,0.9-4.3,0.9-6.5c0.1-2.9,0-5.9-0.2-8.8c0-2-0.5-4-1.4-5.8c-1.2,2.5-2.6,4.6-2.4,7.4
		C577.4,445,577.4,448,577.1,450.9z"/>
	<path class="st13" d="M506.6,491.2c-1.3,0.9-2.2,2.2-2.8,3.6c-1.5,3.1-3,6.5-2.4,9.9c0.1,0.9,0.5,1.8,1.1,2.5
		c1,0.9,2.3,1.3,3.6,1.1c1.3-0.2,2.5-0.6,3.7-1.3c2.2-1.1,4.5-2.5,5.3-4.8c0.7-2,0.1-4.1-0.5-6.1c-0.4-1.3-1-5.2-2.3-5.9
		C511.2,489.7,507.6,490.7,506.6,491.2z"/>
	<path class="st4" d="M528.4,510.2c0.8-0.1,1.5,0,2.3,0.3c0.7,0.3,1.2,0.8,1.7,1.5c1.6,2.4,2.3,5.2,2,8c-0.3,2.8-0.9,5.5-1.8,8.2
		l-6,20c-0.4,2-1.3,3.9-2.6,5.4c-2.3,2.4-5.9,2.6-9.2,2.7c-13.6,0.3-27.2-0.3-40.8-1c-3.2,0-6.4-0.5-9.5-1.6c-1.8-0.7-3.6-2-4.1-3.8
		c-0.2-0.9-0.2-1.8-0.1-2.7c0.4-2.8,0.9-5.5,1.6-8.2c1.5-6.3,3.1-12.6,5.8-18.4c0.8-1.9,2-3.7,3.6-5.1c1-0.8,2.1-1.4,3.3-1.8
		c5.7-2.2,11.8-0.8,17.7-1.4c7.8-0.7,15.6-1.3,23.3-1.6C519.8,510.4,524.1,510.3,528.4,510.2z"/>
	
		<linearGradient id="SVGID_9_" gradientUnits="userSpaceOnUse" x1="488.0446" y1="499.3752" x2="554.7147" y2="439.8052" gradientTransform="matrix(1 0 0 -1 -29.42 998.53)">
		<stop  offset="0" style="stop-color:#000000;stop-opacity:0"/>
		<stop  offset="0.99" style="stop-color:#000000"/>
	</linearGradient>
	<path class="st17" d="M526.9,510.4c0.8-0.1,1.5,0,2.3,0.3c0.7,0.3,1.2,0.8,1.7,1.5c1.6,2.4,2.3,5.2,2,8c-0.3,2.8-0.9,5.5-1.8,8.2
		l-6,20c-0.4,2-1.3,3.9-2.6,5.4c-2.3,2.4-5.9,2.6-9.2,2.7c-13.6,0.3-27.2-0.3-40.9-1c-3.2,0-6.4-0.5-9.5-1.6c-1.8-0.7-3.6-2-4.1-3.8
		c-0.2-0.9-0.2-1.8-0.1-2.7c0.4-2.8,0.9-5.5,1.6-8.2c1.5-6.3,3.1-12.6,5.8-18.4c0.8-1.9,2-3.7,3.6-5.1c1-0.8,2.1-1.4,3.3-1.8
		c5.7-2.2,11.8-0.8,17.7-1.4c7.8-0.7,15.5-1.3,23.3-1.6C518.3,510.6,522.6,510.5,526.9,510.4z"/>
	<path class="st13" d="M583.5,409c0.3-0.3,0.6-0.8,0.7-1.2c0.1-0.4,0.1-0.9,0-1.3c-0.4-2.7-1.3-5.4-1.1-8.1c0.2-2.9,1.6-5.7,3.8-7.7
		c2.2-2,4.9-3.2,7.8-3.5c1.9-0.3,3.8,0,5.5,0.9c2.2,1.4,3.2,4,3.8,6.6c0.6,2.6,1,5.2,2.4,7.4c0.4,0.6,0.9,1.3,0.7,2
		c-0.1,0.3-0.3,0.6-0.5,0.8c-1.5,2.2,0.3,5.6-1.3,7.8c-0.4,0.5-0.9,0.9-1.5,1.2c-2.5,1.3-5.5,1.1-8.1,2c-2.6,0.9-4.8,2.5-6.5,4.6
		c-1.8,2-3.3,4.3-4.9,6.4c-1.3,2.2-3.8,3.3-6.2,2.8c-1.6,0.3-3.2-0.8-3.5-2.4c0,0,0,0,0,0c-0.6-1.5-1-3-1.1-4.6
		c-0.1-3.2,1.8-4.2,3.7-6.3C579.3,414,581.4,411.5,583.5,409z"/>
	<path class="st4" d="M597.8,382.5c-2.1-1-4.5-1.4-6.8-0.9c-1.4,0.1-2.7,0.5-4,1.1c-3.5,1.8-5.3,5.9-8.7,8.1
		c-1.2,0.8-2.6,1.3-3.6,2.4c-0.9,1-1.3,2.5-1,3.8c0.2,0.5,0.3,1.1,0.3,1.6c-0.2,0.6-0.5,1.1-1,1.6c-1.2,1.5-1.2,3.6-0.2,5.3
		c1.4,2,4.1,2.5,5.7,4.3c0.8,0.9,1.5,2.2,2.7,2.3c0.8,0,1.7-0.3,2.3-0.9c1.7-1.3,3.2-3.1,3.3-5.2c0-0.7-0.1-1.5,0-2.2
		c0-0.7,0.4-1.4,1-1.8c0.8-0.3,1.7,0,2.3,0.6c0.6,0.6,1.1,1.3,1.7,1.9c0,0.1,0.1,0.1,0.2,0.1c0.1,0,0.1,0,0.2-0.1
		c0.6-0.7,0.8-1.8,0.4-2.6c-0.4-0.9-0.6-1.8-0.8-2.7c0.1-1.3,0.7-2.4,1.7-3.2c0.9-0.8,2-1.4,3-2.3c1.6-1.3,3.5-3.8,4-5.9
		C601.1,385.6,599.6,383.5,597.8,382.5z"/>
	<path class="st14" d="M577.8,428.2c0.8,0.7,1.7,1.8,1.2,2.7c-0.5,0.9-1.6,0.7-2.6,0.6c-1.5-0.2-2.9,0.2-4.1,1.1
		c-1.4,1.3-1.7,3.7-3.4,4.7c-0.8-4.9-0.8-9.8,0.1-14.7c0.1-0.7,0.3-1.5,0.6-2.1c0.6-1.2,1.4-2.3,2.3-3.2c1.3-1,3.1-1.1,4.6-0.3
		c0,0-2.2,3.3-2.1,4.4C574.7,423.9,575.9,426.3,577.8,428.2z"/>
	
		<linearGradient id="SVGID_10_" gradientUnits="userSpaceOnUse" x1="478.3275" y1="563.8627" x2="469.9975" y2="587.2227" gradientTransform="matrix(1 0 0 -1 -29.42 998.53)">
		<stop  offset="2.000000e-02" style="stop-color:#FFFFFF;stop-opacity:0"/>
		<stop  offset="1" style="stop-color:#FFFFFF"/>
	</linearGradient>
	<path class="st18" d="M497.6,433.7c0,2.5-3.1,3.9-5.6,3.4c-2.5-0.5-4.5-2.1-6.8-3.2c-7.4-3.5-16.1-0.7-24.3-0.6
		c-10,0.1-19.8-4.1-29.8-3.9c-7,0.1-13.8,2.4-19.6,6.5c-0.6,0.3-1.2,0.8-1.7,1.2c-0.3,0.3-3,5.4-5.7,10.2c-0.7-3.8-0.3-7.7,1.1-11.3
		l0.2-0.5c2.7-6,7.8-10.6,14.1-12.6c8.7-2.7,18.1-0.3,27.2-0.5c9.5-0.2,19.1-3.2,28.5-1.6c7.3,1.3,14,5.3,20.7,8.6
		c0.4,0.6,0.7,1.3,1,1.9C497.3,432.1,497.5,432.9,497.6,433.7z"/>
</g>
</svg>
