<?xml version="1.0" encoding="utf-8"?>
<!-- Generator: Adobe Illustrator 22.0.0, SVG Export Plug-In . SVG Version: 6.00 Build 0)  -->
<svg version="1.1" xmlns="http://www.w3.org/2000/svg" xmlns:xlink="http://www.w3.org/1999/xlink" x="0px" y="0px"
	 viewBox="0 0 410.7 323.4" style="enable-background:new 0 0 410.7 323.4;" xml:space="preserve">
<style type="text/css">
	.st0{fill:url(#SVGID_1_);}
	.st1{fill:#0048B6;}
	.st2{fill:url(#SVGID_2_);}
	.st3{fill:#FFFFFF;}
	.st4{fill:url(#SVGID_3_);}
	.st5{fill:#3F3D56;}
	.st6{fill:url(#SVGID_4_);}
	.st7{fill:url(#SVGID_5_);}
	.st8{fill:url(#SVGID_6_);}
	.st9{fill:url(#SVGID_7_);}
	.st10{fill:url(#SVGID_8_);}
	.st11{fill:url(#SVGID_9_);}
	.st12{fill:url(#SVGID_10_);}
	.st13{fill:url(#SVGID_11_);}
	.st14{fill:url(#SVGID_12_);}
	.st15{fill:url(#SVGID_13_);}
	.st16{fill:url(#SVGID_14_);}
	.st17{fill:url(#SVGID_15_);}
	.st18{fill:url(#SVGID_16_);}
	.st19{fill:url(#SVGID_17_);}
	.st20{fill:url(#SVGID_18_);}
	.st21{fill:url(#SVGID_19_);}
	.st22{fill:url(#SVGID_20_);}
	.st23{fill:url(#SVGID_21_);}
	.st24{fill:url(#SVGID_22_);}
	.st25{fill:url(#SVGID_23_);}
	.st26{fill:url(#SVGID_24_);}
	.st27{fill:url(#SVGID_25_);}
	.st28{fill:url(#SVGID_26_);}
	.st29{fill:url(#SVGID_27_);}
	.st30{fill:url(#SVGID_28_);}
	.st31{fill:url(#SVGID_29_);}
	.st32{fill:none;}
	.st33{fill:url(#SVGID_30_);}
	.st34{fill:url(#SVGID_31_);}
	.st35{fill:url(#SVGID_32_);}
	.st36{fill:url(#SVGID_33_);}
	.st37{fill:url(#SVGID_34_);}
	.st38{fill:url(#SVGID_35_);}
	.st39{fill:url(#SVGID_36_);}
	.st40{fill:url(#SVGID_37_);}
</style>
<g id="Layer_2">
</g>
<g id="Layer_3">
	<title>Book for Education</title>
	
		<linearGradient id="SVGID_1_" gradientUnits="userSpaceOnUse" x1="237.0042" y1="592.8411" x2="247.7303" y2="890.636" gradientTransform="matrix(1 0 0 1 -28.46 -314.21)">
		<stop  offset="0" style="stop-color:#000000;stop-opacity:0"/>
		<stop  offset="0.99" style="stop-color:#000000"/>
	</linearGradient>
	<path class="st0" d="M329.6,296.7c-10.3,5.3-21.7,8.6-33.1,10.6c-21.1,3.7-42.7,3.1-64,4.8c-29,2.3-57.6,8.7-86.6,8.7
		c-19.3,0-39.4-3.4-56.5-11.8c12.6-11.1,34.6-10.3,50.1-12.5c23.9-3.4,47.9-6.7,72-8.4C250.9,285.2,291.4,286.3,329.6,296.7z"/>
	<rect x="197.9" y="243.1" class="st1" width="62.5" height="8.1"/>
	
		<linearGradient id="SVGID_2_" gradientUnits="userSpaceOnUse" x1="484.2782" y1="558.4258" x2="486.8925" y2="598.3265" gradientTransform="matrix(1 0 0 1 -255.29 -314.2)">
		<stop  offset="0" style="stop-color:#000000;stop-opacity:0"/>
		<stop  offset="0.99" style="stop-color:#000000"/>
	</linearGradient>
	<rect x="197.9" y="243.1" class="st2" width="62.5" height="8.1"/>
	<rect x="223" y="243.7" class="st3" width="37.3" height="6.9"/>
	<rect x="206" y="237.9" class="st1" width="50.1" height="5.2"/>
	
		<linearGradient id="SVGID_3_" gradientUnits="userSpaceOnUse" x1="486.4805" y1="560.2934" x2="485.857" y2="531.4873" gradientTransform="matrix(1 0 0 1 -255.3 -314.21)">
		<stop  offset="0" style="stop-color:#000000;stop-opacity:0"/>
		<stop  offset="0.99" style="stop-color:#000000"/>
	</linearGradient>
	<rect x="206" y="237.9" class="st4" width="50.1" height="5.2"/>
	<rect x="233.1" y="237.8" class="st3" width="23" height="5.3"/>
	<rect x="198.2" y="232.2" class="st1" width="63" height="5.7"/>
	<rect x="238" y="233.3" class="st3" width="24.2" height="3.2"/>
	<path class="st5" d="M207.2,196.5c0.1,4.5,3.7,23.7,3.7,28.3c0,3-3.4,2.9-5.4,4c-1.1,0.6-2.6,2.4-1.5,3.3c2.9,0.1,9.6-0.1,12.5,0.1
		c0.6,0-2.8-25.9-0.5-32.9c1.4-4.3,20-17.6,18.6-21.7c-0.4-1.1,3.2-8.6,0.6-8.6c-6-0.1-12.3,0.6-14.2,1.3
		C221,170.1,207.1,189.8,207.2,196.5z"/>
	<path class="st5" d="M232.2,168.9c-1,0-2,0.3-2.8,0.9c-1.1,1.1-0.9,2.9-0.4,4.4c1.3,4.7,3.1,15.6,6.9,28.1c4,13,9.8,27.6,10.2,28.6
		c0.1,0.5,0.1,0.9,0.6,1.1c0.4,0.3,11,0.1,11.1,0c0,0,0.9-2.3-2.5-3.6c-0.9-0.4-3.3,0.3-3.6-1c-3.4-10.4-4.8-33-4.5-37.2
		c0.5-5.2,2.3-18.8-1.1-21.5C242.2,168.5,235.9,168.6,232.2,168.9z"/>
	<polygon class="st1" points="200.6,27.1 197.7,27.1 197.7,-10 200.6,-12.1 	"/>
	
		<linearGradient id="SVGID_4_" gradientUnits="userSpaceOnUse" x1="198.9779" y1="314.9037" x2="200.4303" y2="367.2378" gradientTransform="matrix(1 0 0 1 0 -312)">
		<stop  offset="0" style="stop-color:#000000;stop-opacity:0"/>
		<stop  offset="0.99" style="stop-color:#000000"/>
	</linearGradient>
	<polygon class="st6" points="200.6,27.1 197.7,27.1 197.7,-9.7 200.6,-11.9 	"/>
	<rect x="75.7" y="292.7" class="st1" width="81.6" height="16.2"/>
	
		<linearGradient id="SVGID_5_" gradientUnits="userSpaceOnUse" x1="145.0493" y1="609.0474" x2="143.8095" y2="668.4378" gradientTransform="matrix(1 0 0 1 -28.46 -314.2)">
		<stop  offset="0" style="stop-color:#000000;stop-opacity:0"/>
		<stop  offset="0.99" style="stop-color:#000000"/>
	</linearGradient>
	<rect x="75.7" y="292.7" class="st7" width="81.6" height="16.2"/>
	<rect x="75.8" y="295.3" class="st3" width="29.3" height="10.6"/>
	<rect x="72.3" y="272.6" class="st1" width="94.4" height="20.1"/>
	
		<linearGradient id="SVGID_6_" gradientUnits="userSpaceOnUse" x1="148.0547" y1="594.1621" x2="146.1985" y2="636.2307" gradientTransform="matrix(1 0 0 1 -28.46 -314.2)">
		<stop  offset="0" style="stop-color:#000000;stop-opacity:0"/>
		<stop  offset="0.99" style="stop-color:#000000"/>
	</linearGradient>
	<rect x="72.3" y="272.6" class="st8" width="94.4" height="20.1"/>
	<rect x="115.8" y="275.3" class="st3" width="50.8" height="14.8"/>
	<rect x="75.9" y="258.1" class="st1" width="80.7" height="14.6"/>
	
		<linearGradient id="SVGID_7_" gradientUnits="userSpaceOnUse" x1="151.593" y1="579.8665" x2="20.8463" y2="573.8871" gradientTransform="matrix(1 0 0 1 -28.46 -314.2)">
		<stop  offset="0" style="stop-color:#000000;stop-opacity:0"/>
		<stop  offset="0.99" style="stop-color:#000000"/>
	</linearGradient>
	<rect x="75.9" y="258.1" class="st9" width="80.7" height="14.6"/>
	<rect x="108" y="259.6" class="st3" width="48.7" height="11.6"/>
	<rect x="86.4" y="247.1" class="st1" width="64.7" height="11"/>
	
		<linearGradient id="SVGID_8_" gradientUnits="userSpaceOnUse" x1="147.2765" y1="568.4298" x2="146.7239" y2="549.4572" gradientTransform="matrix(1 0 0 1 -28.46 -314.2)">
		<stop  offset="0" style="stop-color:#000000;stop-opacity:0"/>
		<stop  offset="0.99" style="stop-color:#000000"/>
	</linearGradient>
	<rect x="86.4" y="247.1" class="st10" width="64.7" height="11"/>
	<rect x="121.3" y="247.7" class="st3" width="29.8" height="9.6"/>
	<rect x="76.2" y="236.9" class="st1" width="81.3" height="10.1"/>
	
		<linearGradient id="SVGID_9_" gradientUnits="userSpaceOnUse" x1="145.1057" y1="544.8843" x2="146.8839" y2="627.1722" gradientTransform="matrix(1 0 0 1 -28.46 -314.21)">
		<stop  offset="0" style="stop-color:#000000;stop-opacity:0"/>
		<stop  offset="0.99" style="stop-color:#000000"/>
	</linearGradient>
	<rect x="76.2" y="236.9" class="st11" width="81.3" height="10.1"/>
	<rect x="127.7" y="238.9" class="st3" width="29.8" height="5.7"/>
	<rect x="83" y="224.3" class="st1" width="63.4" height="12.5"/>
	
		<linearGradient id="SVGID_10_" gradientUnits="userSpaceOnUse" x1="143.1573" y1="547.1697" x2="143.5682" y2="517.2725" gradientTransform="matrix(1 0 0 1 -28.46 -314.2)">
		<stop  offset="0" style="stop-color:#000000;stop-opacity:0"/>
		<stop  offset="0.99" style="stop-color:#000000"/>
	</linearGradient>
	<rect x="83" y="224.3" class="st12" width="63.4" height="12.5"/>
	
		<linearGradient id="SVGID_11_" gradientUnits="userSpaceOnUse" x1="155.7684" y1="547.1124" x2="156.1723" y2="517.9805" gradientTransform="matrix(1 0 0 1 -28.46 -314.2)">
		<stop  offset="0" style="stop-color:#000000;stop-opacity:0"/>
		<stop  offset="0.99" style="stop-color:#000000"/>
	</linearGradient>
	<rect x="108.3" y="224.3" class="st13" width="38" height="12.5"/>
	<rect x="83.2" y="226.5" class="st3" width="22.8" height="8.2"/>
	<rect x="80.4" y="211.8" class="st1" width="73.4" height="12.5"/>
	<rect x="114.2" y="213.1" class="st3" width="37.4" height="10.1"/>
	<rect x="83.3" y="200.4" class="st1" width="62.6" height="11.3"/>
	
		<linearGradient id="SVGID_12_" gradientUnits="userSpaceOnUse" x1="142.839" y1="516.5275" x2="146.1404" y2="566.8495" gradientTransform="matrix(1 0 0 1 -28.46 -314.2)">
		<stop  offset="0" style="stop-color:#000000;stop-opacity:0"/>
		<stop  offset="0.99" style="stop-color:#000000"/>
	</linearGradient>
	<rect x="83.3" y="200.4" class="st14" width="62.6" height="11.3"/>
	<rect x="108.5" y="201.3" class="st3" width="37.4" height="9.6"/>
	<rect x="91.4" y="193.2" class="st1" width="50.2" height="7.3"/>
	
		<linearGradient id="SVGID_13_" gradientUnits="userSpaceOnUse" x1="145.1194" y1="518.364" x2="144.2976" y2="480.2132" gradientTransform="matrix(1 0 0 1 -28.46 -314.2)">
		<stop  offset="0" style="stop-color:#000000;stop-opacity:0"/>
		<stop  offset="0.99" style="stop-color:#000000"/>
	</linearGradient>
	<rect x="91.4" y="193.2" class="st15" width="50.2" height="7.3"/>
	<rect x="118.5" y="193" class="st3" width="23.1" height="7.4"/>
	<rect x="83.5" y="185.2" class="st1" width="63.1" height="7.9"/>
	<rect x="123.5" y="186.7" class="st3" width="24.2" height="4.5"/>
	<rect x="275.4" y="292.7" class="st1" width="81.6" height="16.2"/>
	
		<linearGradient id="SVGID_14_" gradientUnits="userSpaceOnUse" x1="1337.0829" y1="609.0491" x2="1335.843" y2="668.4395" gradientTransform="matrix(-1 0 0 1 1653.14 -314.21)">
		<stop  offset="0" style="stop-color:#000000;stop-opacity:0"/>
		<stop  offset="0.99" style="stop-color:#000000"/>
	</linearGradient>
	<rect x="275.4" y="292.7" class="st16" width="81.6" height="16.2"/>
	<rect x="327.5" y="295.3" class="st3" width="29.3" height="10.6"/>
	<rect x="265.9" y="272.6" class="st1" width="94.4" height="20.1"/>
	
		<linearGradient id="SVGID_15_" gradientUnits="userSpaceOnUse" x1="1340.1592" y1="594.1656" x2="1338.3031" y2="636.2341" gradientTransform="matrix(-1 0 0 1 1653.14 -314.21)">
		<stop  offset="0" style="stop-color:#000000;stop-opacity:0"/>
		<stop  offset="0.99" style="stop-color:#000000"/>
	</linearGradient>
	<rect x="265.9" y="272.6" class="st17" width="94.4" height="20.1"/>
	<rect x="266.1" y="275.3" class="st3" width="50.8" height="14.8"/>
	<rect x="275.9" y="258.1" class="st1" width="80.7" height="14.6"/>
	
		<linearGradient id="SVGID_16_" gradientUnits="userSpaceOnUse" x1="1343.6829" y1="579.8758" x2="1212.9362" y2="573.8964" gradientTransform="matrix(-1 0 0 1 1653.14 -314.21)">
		<stop  offset="0" style="stop-color:#000000;stop-opacity:0"/>
		<stop  offset="0.99" style="stop-color:#000000"/>
	</linearGradient>
	<rect x="275.9" y="258.1" class="st18" width="80.7" height="14.6"/>
	<rect x="275.9" y="259.6" class="st3" width="48.7" height="11.6"/>
	<rect x="281.5" y="247.1" class="st1" width="64.7" height="11"/>
	
		<linearGradient id="SVGID_17_" gradientUnits="userSpaceOnUse" x1="1339.3098" y1="568.4344" x2="1338.7572" y2="549.4617" gradientTransform="matrix(-1 0 0 1 1653.14 -314.21)">
		<stop  offset="0" style="stop-color:#000000;stop-opacity:0"/>
		<stop  offset="0.99" style="stop-color:#000000"/>
	</linearGradient>
	<rect x="281.5" y="247.1" class="st19" width="64.7" height="11"/>
	<rect x="281.5" y="247.7" class="st3" width="29.8" height="9.6"/>
	<rect x="275" y="236.9" class="st1" width="81.3" height="10.1"/>
	
		<linearGradient id="SVGID_18_" gradientUnits="userSpaceOnUse" x1="1337.209" y1="544.884" x2="1338.9941" y2="627.1719" gradientTransform="matrix(-1 0 0 1 1653.14 -314.21)">
		<stop  offset="0" style="stop-color:#000000;stop-opacity:0"/>
		<stop  offset="0.99" style="stop-color:#000000"/>
	</linearGradient>
	<rect x="275" y="236.9" class="st20" width="81.3" height="10.1"/>
	<rect x="275.1" y="238.9" class="st3" width="29.8" height="5.7"/>
	<rect x="286.2" y="224.3" class="st1" width="63.4" height="12.5"/>
	
		<linearGradient id="SVGID_19_" gradientUnits="userSpaceOnUse" x1="1335.1898" y1="547.1718" x2="1335.6007" y2="517.2747" gradientTransform="matrix(-1 0 0 1 1653.14 -314.21)">
		<stop  offset="0" style="stop-color:#000000;stop-opacity:0"/>
		<stop  offset="0.99" style="stop-color:#000000"/>
	</linearGradient>
	<rect x="286.2" y="224.3" class="st21" width="63.4" height="12.5"/>
	
		<linearGradient id="SVGID_20_" gradientUnits="userSpaceOnUse" x1="1347.8718" y1="547.1155" x2="1348.2756" y2="517.9835" gradientTransform="matrix(-1 0 0 1 1653.14 -314.21)">
		<stop  offset="0" style="stop-color:#000000;stop-opacity:0"/>
		<stop  offset="0.99" style="stop-color:#000000"/>
	</linearGradient>
	<rect x="286.2" y="224.3" class="st22" width="38" height="12.5"/>
	<rect x="326.7" y="226.5" class="st3" width="22.8" height="8.2"/>
	<rect x="278.8" y="211.8" class="st1" width="73.3" height="12.5"/>
	<rect x="281" y="213.1" class="st3" width="37.4" height="10.1"/>
	<rect x="286.6" y="200.4" class="st1" width="62.7" height="11.3"/>
	
		<linearGradient id="SVGID_21_" gradientUnits="userSpaceOnUse" x1="1334.9075" y1="516.5318" x2="1338.2089" y2="566.8538" gradientTransform="matrix(-1 0 0 1 1653.14 -314.21)">
		<stop  offset="0" style="stop-color:#000000;stop-opacity:0"/>
		<stop  offset="0.99" style="stop-color:#000000"/>
	</linearGradient>
	<rect x="286.6" y="200.4" class="st23" width="62.7" height="11.3"/>
	<rect x="286.7" y="201.3" class="st3" width="37.4" height="9.6"/>
	<rect x="291" y="193.2" class="st1" width="50.2" height="7.3"/>
	
		<linearGradient id="SVGID_22_" gradientUnits="userSpaceOnUse" x1="1337.2235" y1="518.3665" x2="1336.4017" y2="480.2159" gradientTransform="matrix(-1 0 0 1 1653.14 -314.21)">
		<stop  offset="0" style="stop-color:#000000;stop-opacity:0"/>
		<stop  offset="0.99" style="stop-color:#000000"/>
	</linearGradient>
	<rect x="291" y="193.2" class="st24" width="50.2" height="7.3"/>
	<rect x="291" y="193" class="st3" width="23.1" height="7.4"/>
	<rect x="285.9" y="185.2" class="st1" width="63.1" height="7.9"/>
	<rect x="284.9" y="186.7" class="st3" width="24.2" height="4.5"/>
	<path class="st1" d="M217.4,172.4c0.4,2.9,11.2-0.5,12.2-0.6c2.2-0.1,17.2,0.7,19.1-0.3c4.6-2.2-7.3-40.8-10.2-42.5
		c-2.7-1.6-6-2-9.1-1.8c-6.6,0.1-12.1,3.5-14,10.2c-0.8,2.8,0.6,5.6,1.3,8.3C217.7,149.4,216.9,168.5,217.4,172.4z"/>
	
		<linearGradient id="SVGID_23_" gradientUnits="userSpaceOnUse" x1="243.9827" y1="433.334" x2="257.3431" y2="433.334" gradientTransform="matrix(1 0 0 1 -28.46 -314.21)">
		<stop  offset="0" style="stop-color:#ECC4D7"/>
		<stop  offset="0.42" style="stop-color:#EFD4D1"/>
		<stop  offset="1" style="stop-color:#F2EAC9"/>
	</linearGradient>
	<path class="st25" d="M221.4,126c-0.9-1.8-3.3-2.4-4.7-4c-1.2-1.5-1.3-3.5-1.2-5.4c0.1-2.5,0.3-5.1,1.6-7.2c1.3-2.1,4-3.7,6.3-2.8
		c1.1,0.5,2.1,1.2,2.8,2.1c1,0.9,1.8,2.1,2.3,3.4c0.7,1.9,0.4,4.1-0.2,6.1c-0.6,2-1.4,3.9-1.6,6c-0.1,1.5,0,3-0.3,4.5
		c-0.3,1.5-1.3,3-2.8,3.3C221.1,132.2,222,127.3,221.4,126z"/>
	<path class="st1" d="M219.8,142.9c0.1,1,0,2.1-0.7,2.8c-0.4,0.3-0.9,0.5-1.3,0.6c-2.8,0.4-31.7-19.9-35.1-34.7
		c-0.1-0.6,1.9-2.1,3.5-2.6c0.8-0.2,1.4-0.2,1.7,0.2c11.3,18.1,30.5,20.3,32.5,21.1c0.7,0.4,1.1,1.1,1.1,1.9
		C221.6,135.2,219.6,140.5,219.8,142.9z"/>
	<path class="st1" d="M236.3,70.5c0,19.6-15.9,35.4-35.5,35.4c-19.6,0-35.4-15.9-35.4-35.5c0.1-19.6,15.9-35.4,35.5-35.4
		c14.4,0,27.3,8.7,32.7,22C235.3,61.2,236.3,65.9,236.3,70.5z"/>
	
		<linearGradient id="SVGID_24_" gradientUnits="userSpaceOnUse" x1="258.1462" y1="388.0031" x2="165.7556" y2="542.0511" gradientTransform="matrix(1 0 0 1 -28.46 -314.21)">
		<stop  offset="0" style="stop-color:#000000;stop-opacity:0"/>
		<stop  offset="0.99" style="stop-color:#000000"/>
	</linearGradient>
	<path class="st26" d="M218.1,83.5c0.3,1.7,0.5,3.3,0.6,5c-0.1,3.3-1.5,6.4-3.5,9c-2.1,2.5-4.5,4.7-7.1,6.7c2.6,0.6,5.2-0.2,7.7-1.3
		c6-2.7,10.8-7.3,14-13c0.3-0.4,0.4-0.9,0.4-1.4c-0.1-0.4-0.3-0.6-0.6-0.9c-1.8-2.2-2.6-5.1-3.9-7.6c-1-1.8-3.9-5.3-6.4-4.2
		C216.9,76.9,217.8,81.5,218.1,83.5z"/>
	<path class="st5" d="M227.5,124.3c0.6,0.1,1.1-0.2,1.4-0.6c0.4-0.4,0.6-0.9,1-1.3c0.8-0.7,1.6-1.4,2.6-2c1.2-0.9,2.1-2.2,2.5-3.6
		c0.1-0.4,0.1-0.8,0-1.1c-0.2-0.3-0.4-0.6-0.7-0.8c-0.9-0.9-1-2.1-1.1-3.4c-0.1-1.3-0.4-2.6-1.5-3.2c0.1-1.1,0.1-2.1-0.3-3.1
		c-0.4-1-1.5-1.6-2.5-1.3c-0.1,0.1-0.2,0.1-0.4,0.1c-0.4,0-0.4-0.4-0.6-0.8c-0.5-1.9-2.5-3-4.4-2.6c-0.3,0.1-0.6,0.2-0.9,0.4
		c-0.3,0.2-0.6,0.4-0.9,0.5c-0.7,0.3-1.5,0.1-2.2,0.1c-1.3,0.1-2.3,1.1-3.3,2.1c-0.2,0.2-0.4,0.4-0.7,0.6c-0.3,0.1-0.5,0.1-0.8,0.1
		c-1.1,0-2.4,0.4-2.7,1.4c-0.1,0.4-0.1,0.8,0.1,1.2c0.6,1.8,2.3,3,4.2,3.1c0.9,0,1.6-0.6,2.4-1c0.1-0.1,0.2-0.1,0.4-0.1
		s0.4,0.1,0.5,0.1c1.5,0.6,3.2,0.3,4.8,0.2c0.4-0.1,0.7,0,1.1,0.1c0.4,0.1,0.6,0.4,0.8,0.7c1.3,1.7,1,4.1,0.6,6.2
		c0.5,0.1,0.9-0.1,1.3-0.4c0.6,1,0.2,2.3-0.8,2.8c-0.1,0.1-0.1,0.1-0.3,0.1c-0.2,0.1-0.4,0.1-0.6,0.3c-0.1,0.1-0.2,0.4-0.2,0.5
		C226,121.3,226.4,123,227.5,124.3z"/>
	
		<linearGradient id="SVGID_25_" gradientUnits="userSpaceOnUse" x1="185.2681" y1="372.3026" x2="340.7614" y2="431.2821" gradientTransform="matrix(1 0 0 1 -28.46 -314.21)">
		<stop  offset="0" style="stop-color:#000000;stop-opacity:0"/>
		<stop  offset="0.99" style="stop-color:#000000"/>
	</linearGradient>
	<path class="st27" d="M195.7,83.1c-0.1,2.2-0.4,4.3-1.1,6.4c-0.8,2-2.1,3.8-2.3,5.9c-0.1,1,0.1,2.1,0,3c0,1.1-0.6,2-1.5,2.6
		c-1.1,0.4-2.2,0-2.9-0.9c-0.6-0.9-1.2-1.8-1.6-2.8c-0.9-2-2.1-3.8-3.6-5.3c-1.3-1.3-2.7-2.6-3.9-4c-1.1-1.4-2-3.3-1.6-5.2
		c0.2-1.1,0.9-2.3,0.7-3.5c-0.2-0.6-0.5-1.3-0.9-1.8c-1.2-2.1-1.3-4.7-0.2-6.9c0.6-1.3,1.7-2.5,1.6-4c-0.1-0.5-0.2-1-0.4-1.5
		c-0.6-1.4-1.3-3-2.8-3.1c-1.3-0.1-2.3,1-3.3,1.7c-1.1,0.7-2.9,0.7-3.2-0.5c-0.4-1.8-0.8-3.8-1.1-5.7c3.3-8.5,9.7-15.4,17.9-19.4
		c1.1,0.9,1.9,2.1,2.4,3.4c-3.2,3.5-3.4,8.9-6.3,12.6c-0.9,1.2-2.1,2.2-3,3.5c-0.9,1.3-1.2,3-0.4,4.3c1.3,2.2,4.7,1.4,7.1,2.5
		c1.6,0.7,2.8,2.2,4.5,2.3c0.9,0.1,1.8-0.3,2.7-0.1c1.3,0.3,2,1.6,2.4,2.8C196.4,73.9,196,78.6,195.7,83.1z"/>
	<path class="st1" d="M196.7,21.4c3,0,6,0.4,9,1.1c1,0.2,2,0.6,2.8,1.3c0.8,0.7,0.9,1.9,0.3,2.8c1.7-0.1,3.1,1.2,3.2,2.9
		c0,0.7-0.1,1.3-0.6,1.9c1.4,0.6,2.6,1.6,3.1,3c0.5,1,0.5,2.1-0.1,3.1c-1,1.4-3,1.3-4.7,1.2c-7-0.7-14.2-0.2-21,1.3
		c-1.6,0.4-3.5,0.6-4.4-0.7c-1-1.5,0.3-3.4,1.5-4.7c-1.1,0.1-2-1.2-1.8-2.3c0.3-1.1,1-2.1,2-2.6c1-0.6,1.8-1.3,2.6-2.1
		c-1.1-0.1-1.8-1.6-1.3-2.6C188.1,22.4,194.3,21.4,196.7,21.4z"/>
	
		<linearGradient id="SVGID_26_" gradientUnits="userSpaceOnUse" x1="226.6655" y1="332.2334" x2="228.727" y2="371.8222" gradientTransform="matrix(1 0 0 1 -28.46 -314.21)">
		<stop  offset="0" style="stop-color:#FFFFFF;stop-opacity:0"/>
		<stop  offset="0.99" style="stop-color:#FFFFFF"/>
	</linearGradient>
	<path class="st28" d="M214.6,37c-0.1,0.2-0.1,0.4-0.3,0.6c-1,1.4-3,1.3-4.7,1.2c-7-0.7-14.2-0.2-21,1.3c-1.5,0.4-3.4,0.6-4.3-0.6
		c-0.1-0.1-0.1-0.1-0.1-0.1c-1-1.5,0.3-3.4,1.5-4.7c-1.1,0.1-2-1.2-1.8-2.3c0.3-1.1,1-2.1,2-2.7c1-0.6,1.8-1.3,2.6-2.1
		c-1.1-0.1-1.8-1.6-1.3-2.6c1.1-2.6,7.2-3.7,9.6-3.6c3,0,6,0.4,9,1.1c1,0.2,2,0.6,2.8,1.3c0.8,0.7,0.9,1.9,0.3,2.8
		c1.7-0.1,3.1,1.2,3.2,2.9c0,0.7-0.1,1.3-0.6,1.9c1.4,0.6,2.6,1.6,3.1,3C214.7,35.3,214.8,36.2,214.6,37z"/>
	<path class="st1" d="M235.6,109.6c-1.6-7.7-7.8-13.8-10-21.4c-0.1-0.4-1.1-2-1-2.3c0.4-0.6,5-3.3,5.5-2.8
		c6.4,5.5,8.6,12.8,12.3,20.5s5,29.3,0.9,36.7c-1,1.8-1.8-5.4-3.8-5.5c-5.1-0.4-6.4-4.8-5.5-8.7
		C235.1,120.6,236.8,115.4,235.6,109.6z"/>
	
		<linearGradient id="SVGID_27_" gradientUnits="userSpaceOnUse" x1="263.7735" y1="367.1891" x2="155.4992" y2="428.0246" gradientTransform="matrix(1 0 0 1 -28.46 -314.21)">
		<stop  offset="0" style="stop-color:#000000;stop-opacity:0"/>
		<stop  offset="0.99" style="stop-color:#000000"/>
	</linearGradient>
	<path class="st29" d="M233.6,57c-0.1,0.1-0.1,0.4-0.1,0.5c-0.4,1.1-1.3,1.8-2.3,2.1c-1.1,0.1-2.2,0.1-3.3-0.1
		c-0.3,3.5,3.1,6.7,2.4,10.1c-0.6,2.8-3.6,4.3-4.8,6.9c-0.4,0.9-0.6,1.8-1.1,2.7c-1,1.8-3,2.6-5,3.3c-0.4,0.2-0.9,0.3-1.3,0.3
		c-0.6-0.1-1.1-0.5-1.5-0.9c-1.8-1.6-3.3-3.4-4.5-5.3c-1.3-2-1.8-4.4-1.3-6.7c0.3-1.3,1-2.6,1.4-3.9c0.4-1.3,0.6-2.9-0.3-4
		c-0.4-0.5-0.9-0.9-1.3-1.4c-0.4-0.5-0.4-1.3,0-1.8c0.3-0.2,0.7-0.4,1.1-0.4l5.2-0.7c1-0.1,1.9-0.4,2.8-0.9c0.7-0.6,0.9-2.1,0.1-2.6
		c-2.3,1.5-4.8,2.6-7.4,3c-0.9-1.9-1.7-4.1-0.9-6.1c0.4-0.6,0.7-1.2,1.2-1.7c2.3-2.7,4.5-5.4,6.8-8.1c0.1-0.1,0.3-0.3,0.5-0.4
		C226.1,44.6,230.8,50.3,233.6,57z"/>
	
		<linearGradient id="SVGID_28_" gradientUnits="userSpaceOnUse" x1="303.0984" y1="304.0577" x2="309.8064" y2="304.0577" gradientTransform="matrix(1.24 -3.000000e-02 -3.000000e-02 1.3 -187.56 -281.75)">
		<stop  offset="0" style="stop-color:#ECC4D7"/>
		<stop  offset="0.42" style="stop-color:#EFD4D1"/>
		<stop  offset="1" style="stop-color:#F2EAC9"/>
	</linearGradient>
	<path class="st30" d="M179.2,103.4c0.4,2.1,1.1,4,2,5.9c0.6,0.7,1.3,1.3,2.1,2c0.6,0.6,1.8-0.4,2.6-1c1.6-1.2,0.8-5.1,1.4-7.1
		c-1.1-0.8-2.1-0.1-3.2-0.9c-0.8-0.5-1.4-1.3-1.8-2.1c-0.1-0.3-0.1-0.6-0.2-0.9c-0.1-0.2-0.3-0.4-0.5-0.6c-0.3-0.3-1.1-1.4-1.6-1.3
		c-0.4,0.1-0.7,1.4-0.8,1.8C178.9,100.6,178.9,102,179.2,103.4z"/>
	
		<linearGradient id="SVGID_29_" gradientUnits="userSpaceOnUse" x1="246.4745" y1="394.1373" x2="259.0973" y2="394.1373" gradientTransform="matrix(1 0 0 1 -28.46 -314.21)">
		<stop  offset="0" style="stop-color:#ECC4D7"/>
		<stop  offset="0.42" style="stop-color:#EFD4D1"/>
		<stop  offset="1" style="stop-color:#F2EAC9"/>
	</linearGradient>
	<path class="st31" d="M229.9,76.7c-0.1-0.3-0.4-0.6-0.8-0.5c-0.1,0.1-0.3,0.2-0.4,0.4l-1.2,2.3l-2.1-3.7c-0.6-1.1-1.3-2.3-2.6-2.6
		c-0.1-0.1-0.3-0.1-0.4,0.1c-0.1,0.1-0.1,0.4-0.1,0.6l0.5,1.5c-1.1-0.9-2.6-1.5-4-1.6c-0.3-0.1-0.6,0-0.8,0.2
		c-0.3,0.3-0.1,0.7,0.1,1.1c0.6,1.1,1.1,2.2,1.8,3.2c-0.2-0.4-0.9-0.3-1.1,0.1c-0.1,0.4-0.1,0.9,0.1,1.3c1.1,3,3,5.6,5.3,7.7
		c0.3,0.3,0.7,0.6,1.1,0.4c0.2-0.1,0.4-0.4,0.5-0.6c0.5-1,1.3-1.9,2.3-2.5C230.9,82.6,231.2,79.5,229.9,76.7z"/>
	<path class="st32" d="M214.7,37.4c-0.1,0.3-0.1,0.6-0.2,0.9c-0.1,0.4-0.1,0.7-0.1,1.1c-0.4,1.1-1.1,1.8-2.2,2.1
		c-1.2,0.4-2.5,0.6-3.8,0.6c-2.6,0.1-5.3,0.3-7.9,0.4c-1.8,0.1-3.6,0.1-5.4,0.1c-1.6-0.1-3-0.4-4.6-0.4c-1.8,0-3.7,0.4-5.2-0.6
		c-0.5-0.3-0.9-0.8-1-1.3c-0.1-0.2-0.1-0.4,0-0.6c0.9,1.1,2.8,0.9,4.3,0.6c6.9-1.6,14-2.1,21-1.3c1.7,0.1,3.8,0.2,4.7-1.2
		c0.1-0.2,0.2-0.4,0.3-0.6C214.7,37.1,214.7,37.2,214.7,37.4z"/>
	
		<linearGradient id="SVGID_30_" gradientUnits="userSpaceOnUse" x1="212.6545" y1="352.2884" x2="243.0476" y2="352.2884" gradientTransform="matrix(1 0 0 1 -28.46 -314.21)">
		<stop  offset="0" style="stop-color:#FFFFFF;stop-opacity:0"/>
		<stop  offset="0.99" style="stop-color:#FFFFFF"/>
	</linearGradient>
	<path class="st33" d="M214.6,37c-0.1,0.2-0.1,0.4-0.3,0.6c-1,1.4-3,1.3-4.7,1.2c-7-0.7-14.2-0.2-21,1.3c-1.5,0.4-3.4,0.6-4.3-0.6
		c0.1-0.4,0.2-0.7,0.5-0.9c0.2-0.1,0.4-0.2,0.6-0.3c3-1.1,6.2-1.8,9.3-2.3c1.5-0.2,3-0.4,4.5-0.4c1.3-0.1,2.6-0.1,3.8-0.1
		c2.2,0,4.4,0.1,6.6,0.4c1.1,0.1,2.2,0.2,3.3,0.4C213.4,36.5,214.3,36.4,214.6,37z"/>
	
		<linearGradient id="SVGID_31_" gradientUnits="userSpaceOnUse" x1="226.9739" y1="336.2159" x2="228.5538" y2="350.8598" gradientTransform="matrix(1 0 0 1 -28.46 -314.21)">
		<stop  offset="0" style="stop-color:#FFFFFF;stop-opacity:0"/>
		<stop  offset="0.99" style="stop-color:#FFFFFF"/>
	</linearGradient>
	<path class="st34" d="M194.7,27.5h11.8c0.8,0.1,1.6-0.1,2.2-0.5c0.4-0.3,0.6-0.9,0.4-1.3c-0.1-0.2-0.4-0.4-0.6-0.4
		c-3.4-1.2-7.1-1.2-10.6-1c-1.7,0-3.3,0.3-5,0.7c-1,0.3-3.7,1.3-3.8,2.6c0.8,0.2,1.9-0.1,2.8-0.1C192.7,27.5,193.7,27.5,194.7,27.5z
		"/>
	
		<linearGradient id="SVGID_32_" gradientUnits="userSpaceOnUse" x1="226.7538" y1="336.8023" x2="227.4764" y2="362.6895" gradientTransform="matrix(1 0 0 1 -28.46 -314.21)">
		<stop  offset="0" style="stop-color:#FFFFFF;stop-opacity:0"/>
		<stop  offset="0.99" style="stop-color:#FFFFFF"/>
	</linearGradient>
	<path class="st35" d="M194.5,32.6c1.8-0.2,3.6-0.4,5.4-0.4c3.2-0.1,6.4-0.3,9.6-0.2c0.5,0.1,1,0,1.4-0.2c0.4-0.2,0.7-0.7,0.6-1.2
		c-0.2-0.5-0.9-0.6-1.3-0.6c-4.4-0.2-8.8-0.2-13.2,0.1c-1.3,0.1-2.6,0.2-3.9,0.5c-2.3,0.6-4.4,1.5-6.4,2.6c-0.5,0.3-1.6,0.9-0.6,1.3
		c0.7,0.3,2-0.4,2.7-0.6C190.6,33.3,192.6,32.8,194.5,32.6z"/>
	<rect x="194" y="296.5" class="st1" width="81.6" height="16.2"/>
	
		<linearGradient id="SVGID_33_" gradientUnits="userSpaceOnUse" x1="1418.4861" y1="612.8326" x2="1417.2462" y2="672.2301" gradientTransform="matrix(-1 0 0 1 1653.14 -314.21)">
		<stop  offset="0" style="stop-color:#000000;stop-opacity:0"/>
		<stop  offset="0.99" style="stop-color:#000000"/>
	</linearGradient>
	<rect x="194" y="296.5" class="st36" width="81.6" height="16.2"/>
	<rect x="246.1" y="299" class="st3" width="29.3" height="10.6"/>
	<rect x="184.5" y="276.3" class="st1" width="94.4" height="20.1"/>
	
		<linearGradient id="SVGID_34_" gradientUnits="userSpaceOnUse" x1="1421.5602" y1="597.9491" x2="1419.7041" y2="640.0247" gradientTransform="matrix(-1 0 0 1 1653.14 -314.21)">
		<stop  offset="0" style="stop-color:#000000;stop-opacity:0"/>
		<stop  offset="0.99" style="stop-color:#000000"/>
	</linearGradient>
	<rect x="184.5" y="276.3" class="st37" width="94.4" height="20.1"/>
	<rect x="184.7" y="279" class="st3" width="50.8" height="14.8"/>
	<rect x="194.6" y="261.8" class="st1" width="80.7" height="14.6"/>
	
		<linearGradient id="SVGID_35_" gradientUnits="userSpaceOnUse" x1="1425.0725" y1="583.6337" x2="1294.3258" y2="577.6472" gradientTransform="matrix(-1 0 0 1 1653.14 -314.21)">
		<stop  offset="0" style="stop-color:#000000;stop-opacity:0"/>
		<stop  offset="0.99" style="stop-color:#000000"/>
	</linearGradient>
	<rect x="194.6" y="261.8" class="st38" width="80.7" height="14.6"/>
	<rect x="194.6" y="263.4" class="st3" width="48.7" height="11.6"/>
	<rect x="200.1" y="250.9" class="st1" width="64.7" height="11"/>
	
		<linearGradient id="SVGID_36_" gradientUnits="userSpaceOnUse" x1="1420.7102" y1="572.2172" x2="1420.1648" y2="553.2445" gradientTransform="matrix(-1 0 0 1 1653.14 -314.21)">
		<stop  offset="0" style="stop-color:#000000;stop-opacity:0"/>
		<stop  offset="0.99" style="stop-color:#000000"/>
	</linearGradient>
	<rect x="200.1" y="250.9" class="st39" width="64.7" height="11"/>
	<rect x="200.1" y="251.5" class="st3" width="29.8" height="9.6"/>
	
		<linearGradient id="SVGID_37_" gradientUnits="userSpaceOnUse" x1="237.9191" y1="420.7862" x2="155.8437" y2="616.6973" gradientTransform="matrix(1 0 0 1 -28.46 -314.21)">
		<stop  offset="0" style="stop-color:#000000;stop-opacity:0"/>
		<stop  offset="0.99" style="stop-color:#000000"/>
	</linearGradient>
	<path class="st40" d="M221.3,132.2c-0.6,0.6-1.8,0.8-2.8,0.7c-8.7-0.6-16.5-5.7-23-11.5c-2.8-2.5-5.5-5.2-7.9-7.9
		c-0.9-0.9-2.3-2-2.1-3.4c0.1-0.4,0.2-0.8,0.5-1.1c0.8-0.2,1.4-0.2,1.7,0.2c11.3,18.1,30.5,20.3,32.5,21.1
		C220.9,130.7,221.3,131.5,221.3,132.2z"/>
</g>
</svg>
