<?xml version="1.0" encoding="utf-8"?>
<!-- Generator: Adobe Illustrator 22.0.0, SVG Export Plug-In . SVG Version: 6.00 Build 0)  -->
<svg version="1.1" id="Layer_1" xmlns="http://www.w3.org/2000/svg" xmlns:xlink="http://www.w3.org/1999/xlink" x="0px" y="0px"
	 viewBox="0 0 413.6 342.9" style="enable-background:new 0 0 413.6 342.9;" xml:space="preserve">
<style type="text/css">
	.st0{opacity:0.18;fill:#0048B6;enable-background:new    ;}
	.st1{opacity:0.38;fill:#0048B6;enable-background:new    ;}
	.st2{fill:url(#SVGID_1_);}
	.st3{fill:url(#SVGID_2_);}
	.st4{fill:url(#SVGID_3_);}
	.st5{fill:url(#SVGID_4_);}
	.st6{fill:url(#SVGID_5_);}
	.st7{fill:url(#SVGID_6_);}
	.st8{fill:url(#SVGID_7_);}
	.st9{fill:url(#SVGID_8_);}
	.st10{fill:url(#SVGID_9_);}
	.st11{fill:url(#SVGID_10_);}
	.st12{fill:url(#SVGID_11_);}
	.st13{fill:url(#SVGID_12_);}
	.st14{opacity:0.41;fill:#0048B6;enable-background:new    ;}
	.st15{fill:#0048B6;}
	.st16{opacity:0.52;fill:url(#SVGID_13_);enable-background:new    ;}
	.st17{opacity:0.46;fill:url(#SVGID_14_);enable-background:new    ;}
	.st18{fill:#3F3D56;}
	.st19{fill:url(#SVGID_15_);}
	.st20{fill:url(#SVGID_16_);}
	.st21{fill:#FFFFFF;}
	.st22{fill:#62021D;}
	.st23{fill:url(#SVGID_17_);}
	.st24{fill:url(#SVGID_18_);}
	.st25{fill:#FFDAD2;}
	.st26{fill:url(#SVGID_19_);}
	.st27{fill:url(#SVGID_20_);}
	.st28{fill:url(#SVGID_21_);}
	.st29{fill:url(#SVGID_22_);}
	.st30{fill:url(#SVGID_23_);}
	.st31{fill:none;}
	.st32{fill:url(#SVGID_24_);}
	.st33{fill:url(#SVGID_25_);}
	.st34{fill:url(#SVGID_26_);}
</style>
<title>CEO</title>
<path class="st0" d="M412.4,265.7c-3.1,15.5-12.8,28.9-24.2,39.8c-20.2,19.3-46,31.8-73.6,35.8c-14.4,2-29.1,1.7-43.6,1.4
	c-63-1.5-127.9,0.4-190.7-6.1c-46.7-4.8-77.3-54.2-80.1-98c-0.1-1.6-0.2-3.1-0.2-4.7c-1.2-40.1,14.5-79.1,33.5-114.5
	c7.2-13.5,15.2-26.5,23.9-39c22-31.1,49.5-58,84.7-71.1c37-13.7,78.3-10.6,116.4-0.7c13.5,3.5,27.2,8,38.3,16.6
	c24.6,19.1,30.9,52.8,42.9,81.5c2.1,5,4.4,9.9,6.9,14.8c14.4,28.1,34.2,53.3,49.9,80.8c5.6,9.9,10.8,20.6,13.9,31.6
	C413.5,244.3,414.6,255,412.4,265.7z"/>
<path class="st1" d="M346.8,121.4V187H57.5V80.3c2.3-3.2,4.6-6.4,7-9.5c1-1.3,1.9-2.5,2.9-3.8c2-2.5,4.1-5,6.2-7.5
	C86,45.1,100,32.3,115.8,22.3c1.8-1.1,3.6-2.2,5.5-3.3c6.7-3.8,13.7-7.1,20.9-9.8c2.3-0.8,4.6-1.6,6.9-2.3c33-10.3,69.1-8,103,0
	c2.2,0.5,4.4,1.1,6.6,1.6c4,1,7.9,2.1,11.8,3.4c1.9,0.6,3.7,1.2,5.5,1.9c7.5,2.7,14.6,6.5,21,11.3c11.5,8.9,19,21.1,25,34.5
	c1.1,2.4,2.1,4.9,3.1,7.5c0.8,1.9,1.5,3.8,2.2,5.8c4.2,11.3,8,22.9,12.5,33.8C342,111.7,344.3,116.6,346.8,121.4z"/>
<linearGradient id="SVGID_1_" gradientUnits="userSpaceOnUse" x1="93.6807" y1="337.53" x2="101.3107" y2="158.67" gradientTransform="matrix(1 0 0 -1 -0.75 337.04)">
	<stop  offset="2.000000e-02" style="stop-color:#FFFFFF;stop-opacity:0"/>
	<stop  offset="0.58" style="stop-color:#FFFFFF;stop-opacity:0.39"/>
	<stop  offset="1" style="stop-color:#FFFFFF"/>
</linearGradient>
<path class="st2" d="M115.8,22.3v37.3H73.6C86,45.1,100,32.3,115.8,22.3z"/>
<linearGradient id="SVGID_2_" gradientUnits="userSpaceOnUse" x1="145.0833" y1="366.5901" x2="156.0633" y2="108.9001" gradientTransform="matrix(1 0 0 -1 -0.75 337.04)">
	<stop  offset="2.000000e-02" style="stop-color:#FFFFFF;stop-opacity:0"/>
	<stop  offset="0.58" style="stop-color:#FFFFFF;stop-opacity:0.39"/>
	<stop  offset="1" style="stop-color:#FFFFFF"/>
</linearGradient>
<path class="st3" d="M172.7,6.9v52.7h-51.4V19c6.7-3.8,13.7-7.1,20.9-9.8c2.3-0.8,4.6-1.6,6.9-2.3L172.7,6.9z"/>
<linearGradient id="SVGID_3_" gradientUnits="userSpaceOnUse" x1="85.7" y1="365.69" x2="96.9" y2="102.97" gradientTransform="matrix(1 0 0 -1 -0.75 337.04)">
	<stop  offset="2.000000e-02" style="stop-color:#FFFFFF;stop-opacity:0"/>
	<stop  offset="0.58" style="stop-color:#FFFFFF;stop-opacity:0.39"/>
	<stop  offset="1" style="stop-color:#FFFFFF"/>
</linearGradient>
<path class="st4" d="M115.8,67.1v52.7H64.5v-49c1-1.3,1.9-2.5,2.9-3.8L115.8,67.1z"/>
<linearGradient id="SVGID_4_" gradientUnits="userSpaceOnUse" x1="141.685" y1="375.4198" x2="152.905" y2="112.0798" gradientTransform="matrix(1 0 0 -1 0 344)">
	<stop  offset="2.000000e-02" style="stop-color:#FFFFFF;stop-opacity:0"/>
	<stop  offset="0.58" style="stop-color:#FFFFFF;stop-opacity:0.39"/>
	<stop  offset="1" style="stop-color:#FFFFFF"/>
</linearGradient>
<rect x="121.3" y="67.1" class="st5" width="51.4" height="52.7"/>
<linearGradient id="SVGID_5_" gradientUnits="userSpaceOnUse" x1="82.3716" y1="372.9001" x2="93.6016" y2="109.5501" gradientTransform="matrix(1 0 0 -1 0 344)">
	<stop  offset="2.000000e-02" style="stop-color:#FFFFFF;stop-opacity:0"/>
	<stop  offset="0.58" style="stop-color:#FFFFFF;stop-opacity:0.39"/>
	<stop  offset="1" style="stop-color:#FFFFFF"/>
</linearGradient>
<rect x="64.5" y="127.3" class="st6" width="51.4" height="52.7"/>
<linearGradient id="SVGID_6_" gradientUnits="userSpaceOnUse" x1="139.1256" y1="375.3098" x2="150.3456" y2="111.9698" gradientTransform="matrix(1 0 0 -1 0 344)">
	<stop  offset="2.000000e-02" style="stop-color:#FFFFFF;stop-opacity:0"/>
	<stop  offset="0.58" style="stop-color:#FFFFFF;stop-opacity:0.39"/>
	<stop  offset="1" style="stop-color:#FFFFFF"/>
</linearGradient>
<rect x="121.3" y="127.3" class="st7" width="51.4" height="52.7"/>
<linearGradient id="SVGID_7_" gradientUnits="userSpaceOnUse" x1="242.7497" y1="366.15" x2="253.9697" y2="102.8" gradientTransform="matrix(1 0 0 -1 -0.75 337.04)">
	<stop  offset="2.000000e-02" style="stop-color:#FFFFFF;stop-opacity:0"/>
	<stop  offset="0.58" style="stop-color:#FFFFFF;stop-opacity:0.39"/>
	<stop  offset="1" style="stop-color:#FFFFFF"/>
</linearGradient>
<path class="st8" d="M270.5,12v47.7h-51.4V6.9h33c2.2,0.5,4.4,1.1,6.6,1.6C262.6,9.6,266.6,10.7,270.5,12z"/>
<linearGradient id="SVGID_8_" gradientUnits="userSpaceOnUse" x1="296.3143" y1="356.5702" x2="306.0743" y2="127.7002" gradientTransform="matrix(1 0 0 -1 -0.75 337.04)">
	<stop  offset="2.000000e-02" style="stop-color:#FFFFFF;stop-opacity:0"/>
	<stop  offset="0.58" style="stop-color:#FFFFFF;stop-opacity:0.39"/>
	<stop  offset="1" style="stop-color:#FFFFFF"/>
</linearGradient>
<path class="st9" d="M321.9,59.6h-46V13.9c7.5,2.7,14.6,6.5,21,11.3C308.5,34.1,316,46.3,321.9,59.6z"/>
<linearGradient id="SVGID_9_" gradientUnits="userSpaceOnUse" x1="239.548" y1="372.9999" x2="250.7681" y2="109.6599" gradientTransform="matrix(1 0 0 -1 0 344)">
	<stop  offset="2.000000e-02" style="stop-color:#FFFFFF;stop-opacity:0"/>
	<stop  offset="0.58" style="stop-color:#FFFFFF;stop-opacity:0.39"/>
	<stop  offset="1" style="stop-color:#FFFFFF"/>
</linearGradient>
<rect x="219.1" y="67.1" class="st10" width="51.4" height="52.7"/>
<linearGradient id="SVGID_10_" gradientUnits="userSpaceOnUse" x1="296.932" y1="368.4401" x2="308.152" y2="105.1301" gradientTransform="matrix(1 0 0 -1 -0.75 337.04)">
	<stop  offset="2.000000e-02" style="stop-color:#FFFFFF;stop-opacity:0"/>
	<stop  offset="0.58" style="stop-color:#FFFFFF;stop-opacity:0.39"/>
	<stop  offset="1" style="stop-color:#FFFFFF"/>
</linearGradient>
<path class="st11" d="M327.3,72.9v46.9h-51.4V67.1h49.1C325.8,69,326.6,70.9,327.3,72.9z"/>
<linearGradient id="SVGID_11_" gradientUnits="userSpaceOnUse" x1="236.9886" y1="372.8999" x2="248.2086" y2="109.5499" gradientTransform="matrix(1 0 0 -1 0 344)">
	<stop  offset="2.000000e-02" style="stop-color:#FFFFFF;stop-opacity:0"/>
	<stop  offset="0.58" style="stop-color:#FFFFFF;stop-opacity:0.39"/>
	<stop  offset="1" style="stop-color:#FFFFFF"/>
</linearGradient>
<rect x="219.1" y="127.3" class="st12" width="51.4" height="52.7"/>
<linearGradient id="SVGID_12_" gradientUnits="userSpaceOnUse" x1="293.7455" y1="375.3102" x2="304.9655" y2="111.9702" gradientTransform="matrix(1 0 0 -1 0 344)">
	<stop  offset="2.000000e-02" style="stop-color:#FFFFFF;stop-opacity:0"/>
	<stop  offset="0.58" style="stop-color:#FFFFFF;stop-opacity:0.39"/>
	<stop  offset="1" style="stop-color:#FFFFFF"/>
</linearGradient>
<rect x="275.9" y="127.3" class="st13" width="51.4" height="52.7"/>
<path class="st14" d="M412.4,265.7c-3.1,15.5-12.8,28.9-24.2,39.8c-20.2,19.3-46,31.8-73.6,35.8c-14.4,2-29.1,1.7-43.6,1.4
	c-63-1.5-127.9,0.4-190.7-6.1c-46.7-4.8-77.3-54.2-80.1-98c-0.1-1.6-0.2-3.1-0.2-4.7h410.5C413.5,244.3,414.6,255,412.4,265.7z"/>
<rect x="67.8" y="246.8" class="st15" width="268.7" height="91.3"/>
<linearGradient id="SVGID_13_" gradientUnits="userSpaceOnUse" x1="200.4563" y1="127.6199" x2="205.1663" y2="-87.7201" gradientTransform="matrix(1 0 0 -1 0 344)">
	<stop  offset="1.000000e-02" style="stop-color:#000000"/>
	<stop  offset="0.83" style="stop-color:#000000;stop-opacity:7.000000e-02"/>
	<stop  offset="1" style="stop-color:#000000;stop-opacity:0"/>
</linearGradient>
<rect x="67.8" y="246.8" class="st16" width="268.7" height="91.3"/>
<linearGradient id="SVGID_14_" gradientUnits="userSpaceOnUse" x1="201.7209" y1="105.62" x2="202.8509" y2="54.09" gradientTransform="matrix(1 0 0 -1 0 344)">
	<stop  offset="1.000000e-02" style="stop-color:#000000"/>
	<stop  offset="0.83" style="stop-color:#000000;stop-opacity:7.000000e-02"/>
	<stop  offset="1" style="stop-color:#000000;stop-opacity:0"/>
</linearGradient>
<rect x="67.8" y="247.9" class="st17" width="268.7" height="17.4"/>
<path class="st18" d="M191,92.6h20.5c14.6,0,26.4,11.8,26.4,26.4v52.6l0,0h-73.3l0,0V119C164.6,104.4,176.4,92.6,191,92.6
	C191,92.6,191,92.6,191,92.6z"/>
<linearGradient id="SVGID_15_" gradientUnits="userSpaceOnUse" x1="205.0402" y1="169.37" x2="198.0602" y2="224.23" gradientTransform="matrix(1 0 0 -1 0 344)">
	<stop  offset="1.000000e-02" style="stop-color:#000000"/>
	<stop  offset="0.83" style="stop-color:#000000;stop-opacity:7.000000e-02"/>
	<stop  offset="1" style="stop-color:#000000;stop-opacity:0"/>
</linearGradient>
<path class="st19" d="M191,92.6h20.5c14.6,0,26.4,11.8,26.4,26.4v52.6l0,0h-73.3l0,0V119C164.6,104.4,176.4,92.6,191,92.6
	C191,92.6,191,92.6,191,92.6z"/>
<path class="st15" d="M188,147.2l-27.1,9c-2.2,1.7-3.6,4.1-4.1,6.8c-0.8,4.5,4.6,22,5.5,30.9s1.8,20.8,1.8,20.8l5.2,23.1h61.2
	l3.7-43.2c0,0,9-30.6,9-33.9c0-2.2-0.5-4.3-1.3-6.3l-28.4-8.4L188,147.2z"/>
<linearGradient id="SVGID_16_" gradientUnits="userSpaceOnUse" x1="205.0164" y1="112.9919" x2="201.2764" y2="165.3519" gradientTransform="matrix(1 0 0 -1 -0.75 337.04)">
	<stop  offset="1.000000e-02" style="stop-color:#000000"/>
	<stop  offset="1" style="stop-color:#000000;stop-opacity:0"/>
</linearGradient>
<path class="st20" d="M188,147.2l-27.1,9c-2.2,1.7-3.6,4.1-4.1,6.8c-0.8,4.5,4.6,22,5.5,30.9s1.8,20.8,1.8,20.8l5.2,23.1h61.2
	l3.7-43.2c0,0,9-30.6,9-33.9c0-2.2-0.5-4.3-1.3-6.3l-28.4-8.4L188,147.2z"/>
<polygon class="st21" points="190.2,146.6 188,147.2 190.6,215.9 211.9,216.1 213.1,146.9 "/>
<path class="st22" d="M196.5,158.1l2.7,3.3c0,1.4-0.2,2.8-0.7,4.1c-0.7,1.8-5.5,41.9-5.5,41.9l7.5,9.5l8.5-11.8l-5.5-43.5l2.1-4.6
	l-2.9-3.2l-2.9-0.3L196.5,158.1z"/>
<polygon class="st15" points="342.8,241.8 59.5,241.8 73.9,205.9 319.3,205.9 "/>
<linearGradient id="SVGID_17_" gradientUnits="userSpaceOnUse" x1="200.4298" y1="156.51" x2="202.6698" y2="-18.55" gradientTransform="matrix(1 0 0 -1 0 344)">
	<stop  offset="1.000000e-02" style="stop-color:#000000"/>
	<stop  offset="0.83" style="stop-color:#000000;stop-opacity:7.000000e-02"/>
	<stop  offset="1" style="stop-color:#000000;stop-opacity:0"/>
</linearGradient>
<polygon class="st23" points="342.8,241.8 59.5,241.8 73.9,205.9 319.3,205.9 "/>
<path class="st15" d="M276.2,210.4l-2.3,4.5c-0.1,0.2,0,0.5,0.2,0.6c0.1,0,0.1,0.1,0.2,0.1l0,0c0.2,0,0.3-0.1,0.4-0.3l2.3-4.5
	c0.1-0.2,0-0.5-0.2-0.6c0,0,0,0,0,0l0,0C276.6,210,276.3,210.1,276.2,210.4C276.2,210.3,276.2,210.4,276.2,210.4z"/>
<path class="st15" d="M273.9,212.7l-6.9,13.6c-0.3,0.7,0,1.5,0.7,1.9c0.2,0.1,0.4,0.1,0.6,0.1l0,0c0.5,0,1-0.3,1.3-0.8l7-13.5
	c0.4-0.7,0.1-1.5-0.6-1.9c0,0-0.1,0-0.1,0l-0.1-0.1C275,211.7,274.2,212,273.9,212.7z"/>
<linearGradient id="SVGID_18_" gradientUnits="userSpaceOnUse" x1="271.063" y1="117.6028" x2="274.623" y2="116.0528" gradientTransform="matrix(1 0 0 -1 -0.75 337.04)">
	<stop  offset="1.000000e-02" style="stop-color:#000000"/>
	<stop  offset="0.83" style="stop-color:#000000;stop-opacity:7.000000e-02"/>
	<stop  offset="1" style="stop-color:#000000;stop-opacity:0"/>
</linearGradient>
<path class="st24" d="M273.9,212.7l-6.9,13.6c-0.3,0.7,0,1.5,0.7,1.9c0.2,0.1,0.4,0.1,0.6,0.1l0,0c0.5,0,1-0.3,1.3-0.8l7-13.5
	c0.4-0.7,0.1-1.5-0.6-1.9c0,0-0.1,0-0.1,0l-0.1-0.1C275,211.7,274.2,212,273.9,212.7z"/>
<path class="st25" d="M211.3,202.8c-1.8-0.4-3.6-0.6-5.4-0.4c-1.7,0-3.3,0.5-4.6,1.6c-1.8,1.9-1.3,5,0.3,7.1s3.8,3.4,5.8,5.1
	c0.8,0.8,1.6,1.4,2.6,1.9c0.8,0.3,1.6,0.4,2.4,0.4c1.9,0.2,3.9,0.1,5.8-0.2c1.9-0.4,3.6-1.4,4.8-3c1.6-2.3,1.6-8.4-1.3-9.2
	c-1.7-0.5-3.4-0.4-5.2-1.2C214.7,204.1,213,203.4,211.3,202.8z"/>
<path class="st25" d="M194.8,203.3c0.8-0.4,1.7-0.6,2.5-0.7c2-0.2,4,0.6,5.3,2.1c1.2,1.6,1.5,3.7,0.7,5.6c-0.8,1.3-1.7,2.4-2.7,3.5
	c-1.1,1.4-1.7,3.1-2.9,4.4c-2.9,2.9-8.4,3-12.2,2.5c-1.8-0.1-3.5-1.1-4.5-2.6c-1.6-2.6-0.4-6.8,1.4-8.9c1.2-1.3,3-1.6,4.6-2.4
	l6.9-3.1L194.8,203.3z"/>
<path class="st25" d="M193.6,138.3c0,0,0.5,5.7-3.6,7.4s7.5,16.3,20.4,3.6c1.3,0.1,2.4-0.8,2.6-2.1c0-0.1,0-0.2,0-0.3
	c0.1-2.6-5.9-0.8-5.6-9.5S194.8,133.6,193.6,138.3z"/>
<linearGradient id="SVGID_19_" gradientUnits="userSpaceOnUse" x1="204.1183" y1="210.7675" x2="200.1283" y2="182.0975" gradientTransform="matrix(1 0 0 -1 -0.75 337.04)">
	<stop  offset="1.000000e-02" style="stop-color:#000000"/>
	<stop  offset="0.12" style="stop-color:#000000;stop-opacity:0.75"/>
	<stop  offset="1" style="stop-color:#000000;stop-opacity:0"/>
</linearGradient>
<path class="st26" d="M196.7,146.2c1.4,1.9,3.8,3.2,6,2.4c1.4-0.7,2.5-1.7,3.3-3c1.2-1.7,2.6-3.6,2.4-5.7c0-0.6-0.2-1.2-0.6-1.6
	c-0.4-0.2-0.8-0.4-1.2-0.4c-3.4-0.5-6.9-0.2-10.2,0.8c-1.9,0.6-2.4,0.8-1.8,2.7C195.1,143.1,195.8,144.7,196.7,146.2z"/>
<path class="st25" d="M186.4,114.7c0,0-0.3,16.2,5.2,23.2s13.3,9,19.4,0c2.8-4.2,4.5-19.8,3.4-22.2s-16.6-14.1-23.1-8.3
	S186.4,114.7,186.4,114.7z"/>
<path class="st18" d="M186.4,103.1c-1.2,0.9-2.2,1.9-3,3.1c-0.8,1.2-1.2,2.7-1,4.1c0.4,1.4,0.9,2.8,1.7,4c1.5,3.1,1.8,6.6,2.9,9.9
	c0.4-2.7,0.7-5.4,1-8.1c1.4,0.6,2.8,0.9,4.3,0.8c7.1,0.4,14.3,0.2,21.4-0.1c0.1,1.9-0.1,3.8-0.5,5.7c-0.2,1.3,0,2.6,0.6,3.8
	c1.6-1.5,0.4-4.6,2.1-6.1c0.4-0.3,0.8-0.6,1.1-0.9c0.5-0.8,0.2-1.8,0.6-2.7c0.4-0.7,0.9-1.2,1.5-1.6c1.9-1.5,3-4.2,2-6.4
	c-0.7-1.3-1.8-2.3-3.1-3l-2.7-1.8c-0.9-0.6-2.4-1.5-3.4-2c-1.3-0.7-2.3-1.8-3.6-2.5c-2.2-1.2-4.6-1.8-7-1.7c-4.3-0.2-8.9,0-12.6,2.3
	C187.5,100.6,186.7,101.8,186.4,103.1z"/>
<path class="st18" d="M203.6,132.1c0.3,0,0.6,0,0.9,0c0.9,0.2,1.4,1.3,1.7,2.2c-0.1-0.3-4.3,0.1-4.7,0.2c-1.6,0.1-3.3,0.4-4.9,0.4
	C195.9,131.4,201.7,132.2,203.6,132.1z"/>
<linearGradient id="SVGID_20_" gradientUnits="userSpaceOnUse" x1="203.6384" y1="249.0388" x2="200.6484" y2="180.7088" gradientTransform="matrix(1 0 0 -1 -0.75 337.04)">
	<stop  offset="1.000000e-02" style="stop-color:#000000"/>
	<stop  offset="0.83" style="stop-color:#000000;stop-opacity:7.000000e-02"/>
	<stop  offset="1" style="stop-color:#000000;stop-opacity:0"/>
</linearGradient>
<path class="st27" d="M186.4,103.1c-1.2,0.9-2.2,1.9-3,3.1c-0.8,1.2-1.2,2.7-1,4.1c0.4,1.4,0.9,2.8,1.7,4c1.5,3.1,1.8,6.6,2.9,9.9
	c0.4-2.7,0.7-5.4,1-8.1c1.4,0.6,2.8,0.9,4.3,0.8c7.1,0.4,14.3,0.2,21.4-0.1c0.1,1.9-0.1,3.8-0.5,5.7c-0.2,1.3,0,2.6,0.6,3.8
	c1.6-1.5,0.4-4.6,2.1-6.1c0.4-0.3,0.8-0.6,1.1-0.9c0.5-0.8,0.2-1.8,0.6-2.7c0.4-0.7,0.9-1.2,1.5-1.6c1.9-1.5,3-4.2,2-6.4
	c-0.7-1.3-1.8-2.3-3.1-3l-2.7-1.8c-0.9-0.6-2.4-1.5-3.4-2c-1.3-0.7-2.3-1.8-3.6-2.5c-2.2-1.2-4.6-1.8-7-1.7c-4.3-0.2-8.9,0-12.6,2.3
	C187.5,100.6,186.7,101.8,186.4,103.1z"/>
<linearGradient id="SVGID_21_" gradientUnits="userSpaceOnUse" x1="197.2775" y1="203.5419" x2="206.9" y2="203.5419" gradientTransform="matrix(1 0 0 -1 -0.75 337.04)">
	<stop  offset="1.000000e-02" style="stop-color:#000000"/>
	<stop  offset="0.83" style="stop-color:#000000;stop-opacity:7.000000e-02"/>
	<stop  offset="1" style="stop-color:#000000;stop-opacity:0"/>
</linearGradient>
<path class="st28" d="M203.6,132.1c0.3,0,0.6,0,0.9,0c0.9,0.2,1.4,1.3,1.7,2.2c-0.1-0.3-4.3,0.1-4.7,0.2c-1.6,0.1-3.3,0.4-4.9,0.4
	C195.9,131.4,201.7,132.2,203.6,132.1z"/>
<path class="st21" d="M192.6,142.9c0,0,7.1,10.7,8.7,11.1l-7.7,7.5c0,0-5.4-12-4.5-15.3L192.6,142.9z"/>
<path class="st21" d="M208.8,143.6c-0.9,2.9-3.6,10.4-7.5,10.5l6.7,8c0,0,5.4-7.6,5.2-16.1l-3.3-2.8c-0.3-0.3-0.8-0.2-1.1,0.1
	C208.9,143.4,208.9,143.5,208.8,143.6z"/>
<path class="st15" d="M158.1,159.4c0,0-19.4,41.8-18.9,45.5s-1,5.5,0.3,7.5s38.4,9.2,38.4,9.2l3.5-15.7l-17.7-4.2l-4-1.2
	c7.4-10.6,10.1-26.3,5.9-38.5C163.7,156.6,160.3,157.6,158.1,159.4z"/>
<linearGradient id="SVGID_22_" gradientUnits="userSpaceOnUse" x1="155.3579" y1="109.5006" x2="163.8379" y2="140.6806" gradientTransform="matrix(1 0 0 -1 -0.75 337.04)">
	<stop  offset="1.000000e-02" style="stop-color:#000000"/>
	<stop  offset="1" style="stop-color:#000000;stop-opacity:0"/>
</linearGradient>
<path class="st29" d="M158.1,159.4c0,0-19.4,41.8-18.9,45.5s-1,5.5,0.3,7.5s38.4,9.2,38.4,9.2l3.5-15.7l-17.7-4.2l-4-1.2
	c7.4-10.6,10.1-26.3,5.9-38.5C163.7,156.6,160.3,157.6,158.1,159.4z"/>
<path class="st15" d="M242.4,155c0,0,24.7,44.1,24.2,47.9s1,5.5-0.3,7.5s-38.4,9.2-38.4,9.2l-3.5-15.7l17.7-4.2l-2.9-4.2
	c-5.6-7.9-7.3-17.9-4.8-27.3C236.6,160.2,239.6,152.6,242.4,155z"/>
<linearGradient id="SVGID_23_" gradientUnits="userSpaceOnUse" x1="203" y1="151.7897" x2="261.19" y2="148.4697" gradientTransform="matrix(1 0 0 -1 -0.75 337.04)">
	<stop  offset="1.000000e-02" style="stop-color:#000000"/>
	<stop  offset="0.83" style="stop-color:#000000;stop-opacity:7.000000e-02"/>
	<stop  offset="1" style="stop-color:#000000;stop-opacity:0"/>
</linearGradient>
<path class="st30" d="M242.4,155c0,0,24.7,44.1,24.2,47.9s1,5.5-0.3,7.5s-38.4,9.2-38.4,9.2l-3.5-15.7l17.7-4.2l-2.9-4.2
	c-5.6-7.9-7.3-17.9-4.8-27.3C236.6,160.2,239.6,152.6,242.4,155z"/>
<polygon class="st21" points="181.4,205.9 184.5,206.5 181.4,220.6 178.4,220 "/>
<polygon class="st21" points="224.7,204.8 221.8,205.5 225.1,220.1 228,219.6 "/>
<path class="st31" d="M221.2,206.6c-3.7,0.5-7.4-0.2-11.1-0.3s-7.7,0.5-10.4,3.1c-1.2,1-1.8,2.6-1.6,4.1"/>
<path class="st25" d="M202.3,201.1c2.6-0.4,10.2,1.7,10,2c-0.6,1.2-3.7,3.9-4.6,4.9c-0.5,0.5-1.1,1-1.7,1.3
	c-0.6,0.2-1.2,0.3-1.8,0.4c-2.4,0.2-4.7,0.3-7.1,0.3c-0.6,0-1.1-0.1-1.6-0.3c-1.6-1-2.9-4.1-1.9-5.4
	C195,202.4,200.3,201.4,202.3,201.1z"/>
<rect x="59.5" y="241.8" class="st15" width="283.4" height="6.5"/>
<path class="st15" d="M260.3,226.5h12.4c1.8,0,3.3,1.5,3.3,3.3l0,0c0,1.8-1.5,3.3-3.3,3.3h-12.4c-1.8,0-3.3-1.5-3.3-3.3l0,0
	C257,228,258.5,226.5,260.3,226.5z"/>
<linearGradient id="SVGID_24_" gradientUnits="userSpaceOnUse" x1="266.1516" y1="108.6399" x2="267.1516" y2="126.3499" gradientTransform="matrix(1 0 0 -1 0 344)">
	<stop  offset="1.000000e-02" style="stop-color:#000000"/>
	<stop  offset="0.83" style="stop-color:#000000;stop-opacity:7.000000e-02"/>
	<stop  offset="1" style="stop-color:#000000;stop-opacity:0"/>
</linearGradient>
<path class="st32" d="M260.3,226.5h12.4c1.8,0,3.3,1.5,3.3,3.3l0,0c0,1.8-1.5,3.3-3.3,3.3h-12.4c-1.8,0-3.3-1.5-3.3-3.3l0,0
	C257,228,258.5,226.5,260.3,226.5z"/>
<path class="st15" d="M286.4,189.7L286.4,189.7c-0.5-0.8-0.2-2.2-1.1-2.6c-0.4-0.1-0.8-0.2-1.2-0.2c-1.6-0.1-2.8-1.6-3.7-2.9
	c-0.8-1.2-1.4-2.5-1.9-3.8c-0.4-1.4-0.4-2.8,0-4.2c0.1-0.5,0.5-0.9,0.9-1.2c0.5-0.1,1-0.1,1.5,0.1c2.5,1,4.6,2.6,6.2,4.7
	c0.8,1.1,1.4,2.3,2.2,3.4c1.2,1.5,1.4-1,1.3-1.9c-0.1-0.8,0.1-1.6,0.6-2.3c0.2-0.2,0.3-0.4,0.4-0.6c0-0.2,0-0.4,0-0.6
	c-0.3-1.1-1.4-1.9-1.7-3c-0.1-0.7-0.1-1.3,0.1-2c0.4-1.9,0.9-5.4,3-6.3c1.1-0.4,2.3-0.1,3.1,0.7c1,1.1,2,2.3,2.8,3.6
	c0.9,1.3,1.1,2.9,0.5,4.4c-0.5,0.7-0.8,1.5-1,2.3c-0.1,1.9,2.3,3.2,2.1,5.1s-2.4,2.5-2.9,4.2c-0.4,1.2,0.8,4.3,2.4,3.8
	c1.1-0.4,1.8-3.8,2.3-4.8c1.7-3.5,3.8-6.8,6.3-9.7c0.7-0.8,1.8-1.5,2.6-0.9c0.3,0.3,0.5,0.8,0.5,1.2c0,1.5-0.4,3-1.1,4.4l-4.5,10.4
	c4.2-4.5,9.7-7.6,15.8-8.8c2.6-0.5,0.6,4.1-1.1,4.6c-0.9,0.3-1.8,0.2-2.5,0.7c-0.5,0.5-0.9,1.2-1.1,1.9c-0.5,1.2-1.3,2.2-2.4,2.9
	c-1.7,1.2-3.8,1.6-5.7,2.3c-1.4,0.5-2.5,1.3-3.4,2.4c-0.8,1-0.7,2.4-1.5,3.4s-2.4,1.1-3.7,1c-1.7-0.1-3.4-0.3-5.1-0.6
	c-1.2-0.3-3.4-0.6-4-1.7c-0.9-1.3-1.4-2.7-1.5-4.3c0-1.1,0.4-2.4-0.3-3.2S287,190.6,286.4,189.7z"/>
<linearGradient id="SVGID_25_" gradientUnits="userSpaceOnUse" x1="299.8427" y1="130.2793" x2="301.3427" y2="157.8893" gradientTransform="matrix(1 0 0 -1 -0.75 337.04)">
	<stop  offset="1.000000e-02" style="stop-color:#000000"/>
	<stop  offset="0.83" style="stop-color:#000000;stop-opacity:7.000000e-02"/>
	<stop  offset="1" style="stop-color:#000000;stop-opacity:0"/>
</linearGradient>
<path class="st33" d="M286.4,189.7L286.4,189.7c-0.5-0.8-0.2-2.2-1.1-2.6c-0.4-0.1-0.8-0.2-1.2-0.2c-1.6-0.1-2.8-1.6-3.7-2.9
	c-0.8-1.2-1.4-2.5-1.9-3.8c-0.4-1.4-0.4-2.8,0-4.2c0.1-0.5,0.5-0.9,0.9-1.2c0.5-0.1,1-0.1,1.5,0.1c2.5,1,4.6,2.6,6.2,4.7
	c0.8,1.1,1.4,2.3,2.2,3.4c1.2,1.5,1.4-1,1.3-1.9c-0.1-0.8,0.1-1.6,0.6-2.3c0.2-0.2,0.3-0.4,0.4-0.6c0-0.2,0-0.4,0-0.6
	c-0.3-1.1-1.4-1.9-1.7-3c-0.1-0.7-0.1-1.3,0.1-2c0.4-1.9,0.9-5.4,3-6.3c1.1-0.4,2.3-0.1,3.1,0.7c1,1.1,2,2.3,2.8,3.6
	c0.9,1.3,1.1,2.9,0.5,4.4c-0.5,0.7-0.8,1.5-1,2.3c-0.1,1.9,2.3,3.2,2.1,5.1s-2.4,2.5-2.9,4.2c-0.4,1.2,0.8,4.3,2.4,3.8
	c1.1-0.4,1.8-3.8,2.3-4.8c1.7-3.5,3.8-6.8,6.3-9.7c0.7-0.8,1.8-1.5,2.6-0.9c0.3,0.3,0.5,0.8,0.5,1.2c0,1.5-0.4,3-1.1,4.4l-4.5,10.4
	c4.2-4.5,9.7-7.6,15.8-8.8c2.6-0.5,0.6,4.1-1.1,4.6c-0.9,0.3-1.8,0.2-2.5,0.7c-0.5,0.5-0.9,1.2-1.1,1.9c-0.5,1.2-1.3,2.2-2.4,2.9
	c-1.7,1.2-3.8,1.6-5.7,2.3c-1.4,0.5-2.5,1.3-3.4,2.4c-0.8,1-0.7,2.4-1.5,3.4s-2.4,1.1-3.7,1c-1.7-0.1-3.4-0.3-5.1-0.6
	c-1.2-0.3-3.4-0.6-4-1.7c-0.9-1.3-1.4-2.7-1.5-4.3c0-1.1,0.4-2.4-0.3-3.2S287,190.6,286.4,189.7z"/>
<circle class="st15" cx="298.2" cy="208.1" r="9.4"/>
<path class="st15" d="M307.6,198.2c-0.2,5.2-4.5,9.3-9.7,9.1c-5-0.2-8.9-4.1-9.1-9.1H307.6z"/>
<linearGradient id="SVGID_26_" gradientUnits="userSpaceOnUse" x1="289.58" y1="129.1466" x2="308.42" y2="129.1466" gradientTransform="matrix(1 0 0 -1 -0.75 337.04)">
	<stop  offset="2.000000e-02" style="stop-color:#FFFFFF;stop-opacity:0"/>
	<stop  offset="0.58" style="stop-color:#FFFFFF;stop-opacity:0.39"/>
	<stop  offset="1" style="stop-color:#FFFFFF"/>
</linearGradient>
<path class="st34" d="M307.7,208.1c0,5.2-4.2,9.4-9.4,9.4c-5.2,0-9.4-4.2-9.4-9.4c0-1.8,0.5-3.6,1.5-5.2c-0.9-1.4-1.5-3.1-1.5-4.8
	h18.8c-0.1,1.7-0.6,3.3-1.5,4.8C307.1,204.5,307.7,206.3,307.7,208.1z"/>
</svg>
