<svg width="32" height="30" viewBox="0 0 32 30" fill="none" xmlns="http://www.w3.org/2000/svg">
<path d="M32 15.2C32 13.1 30.3 12 28 12H21.3C21.8 10.2 22 8.5 22 7C22 1.2 20.4 0 19 0C18.1 0 17.4 0.1 16.5 0.6C16.2 0.8 16.1 1 16 1.3L15 6.7C13.9 9.5 11.2 12 9 13.7V28C9.8 28 10.6 28.4 11.6 28.9C12.7 29.4 13.8 30 15 30H24.5C26.5 30 28 28.4 28 27C28 26.7 28 26.5 27.9 26.3C29.1 25.8 30 24.8 30 23.5C30 22.9 29.9 22.4 29.7 21.9C30.5 21.4 31.2 20.5 31.2 19.5C31.2 18.9 30.9 18.3 30.6 17.8C31.4 17.2 32 16.2 32 15.2ZM29.9 15.2C29.9 16.5 28.6 16.6 28.4 17.2C28.2 17.9 29.2 18.1 29.2 19.3C29.2 20.5 27.7 20.5 27.5 21.2C27.3 22 28 22.2 28 23.4V23.6C27.8 24.6 26.3 24.7 26 25.1C25.7 25.6 26 25.8 26 26.9C26 27.5 25.3 27.9 24.5 27.9H15C14.2 27.9 13.4 27.5 12.4 27C11.6 26.6 10.8 26.2 10 26V15.5C12.5 13.6 15.7 10.8 16.9 7.3V7.1L17.8 2.1C18.2 2 18.5 2 19 2C19.2 2 20 3.2 20 7C20 8.5 19.7 10.1 19.2 12H19C18.4 12 18 12.4 18 13C18 13.6 18.4 14 19 14H28C29 14 29.9 14.5 29.9 15.2Z" fill="#0048B6"/>
<path d="M8 30H2C0.9 30 0 29.15 0 28.1111V14.8889C0 13.85 0.9 13 2 13H8C9.1 13 10 13.85 10 14.8889V28.1111C10 29.15 9.1 30 8 30ZM2 14.8889V28.1111H8V14.8889H2Z" fill="#0048B6"/>
</svg>
