<svg width="35" height="39" viewBox="0 0 35 39" fill="none" xmlns="http://www.w3.org/2000/svg">
<path d="M3.88889 39H31.1111C33.2558 39 35 37.2509 35 35.1V7.8C35 5.64915 33.2558 3.9 31.1111 3.9H27.2222V0H23.3333V3.9H11.6667V0H7.77778V3.9H3.88889C1.74417 3.9 0 5.64915 0 7.8V35.1C0 37.2509 1.74417 39 3.88889 39ZM13.2203 35.0746H9.72222V31.5666L19.3997 21.8751L22.8978 25.3832L13.2203 35.0746ZM24.5447 23.7315L21.0467 20.2235L23.7144 17.55L27.2125 21.0581L24.5447 23.7315ZM3.88889 9.75H31.1111V13.65H3.88889V9.75Z" fill="#E00000"/>
</svg>
