<svg width="18" height="18" viewBox="0 0 18 18" fill="none" xmlns="http://www.w3.org/2000/svg">
<path d="M9 0C4.02991 0 0 4.02991 0 9C0 13.9701 4.02991 18 9 18C13.9701 18 18 13.9701 18 9C18 4.02991 13.9701 0 9 0ZM9 16.4732C4.87366 16.4732 1.52679 13.1263 1.52679 9C1.52679 4.87366 4.87366 1.52679 9 1.52679C13.1263 1.52679 16.4732 4.87366 16.4732 9C16.4732 13.1263 13.1263 16.4732 9 16.4732Z" fill="#E00000"/>
<path d="M12.8792 8.72091L7.4628 4.0666C7.41936 4.02891 7.36793 4.00624 7.31424 4.00112C7.26055 3.99599 7.20672 4.0086 7.15873 4.03756C7.11075 4.06651 7.0705 4.11067 7.04247 4.1651C7.01445 4.21954 6.99974 4.28211 7 4.34586V13.6545C7 13.9381 7.27073 14.0983 7.4628 13.9337L12.8792 9.27943C12.9166 9.24754 12.947 9.20559 12.968 9.15704C12.989 9.10849 13 9.05472 13 9.00017C13 8.94562 12.989 8.89186 12.968 8.8433C12.947 8.79475 12.9166 8.7528 12.8792 8.72091ZM8.16706 11.6217V6.3786L11.2164 9.00017L8.16706 11.6217Z" fill="#E00000"/>
</svg>
