<svg width="370" height="328" viewBox="0 0 370 328" fill="none" xmlns="http://www.w3.org/2000/svg">
<g clip-path="url(#clip0)">
<path opacity="0.18" d="M27.03 192.17C37.89 173.94 48.68 155.69 53.67 135.17C59.5 111.17 56.14 84.8 65.38 61.63C73.03 42.48 84.39 19.92 102.96 9.3C114.59 2.62 128.4 0.989997 141.79 0.299997C173.09 -1.21 205.3 2.06 234.45 14.11C263.81 26.26 278.72 43.82 287.57 74.58C293.44 95.01 297.24 116.7 309.45 134.1C318.37 146.8 331.12 156.24 341.64 167.65C379.08 208.26 383.06 287.54 325.89 313.06C303.08 323.26 277.26 323.67 252.28 323.91L121.75 325.16C104.9 325.32 85.82 329.34 69.49 325.86C52.2212 322.147 36.0229 314.555 22.12 303.66C16.03 298.92 10.36 293.44 6.42 286.78C-6.51 264.92 2.15 236.78 14.18 214.4C18.22 206.92 22.62 199.53 27.03 192.17Z" fill="#BDBDBD"/>
<path opacity="0.47" d="M180.55 319.75C255.699 319.75 316.62 305.499 316.62 287.92C316.62 270.341 255.699 256.09 180.55 256.09C105.401 256.09 44.48 270.341 44.48 287.92C44.48 305.499 105.401 319.75 180.55 319.75Z" fill="white"/>
<path d="M246.02 304.42H210.26L176.85 271.01H118.7L126.74 285.34H86.56V284.34H125.03L117 270.01H177.26L210.68 303.42H243.43L225.75 287.42H257.47L247.27 277.21L247.97 276.51L259.89 288.42H228.34L246.02 304.42Z" fill="#0048B6"/>
<path d="M201.95 313.3L179.34 290.69H197.74V291.69H181.75L202.66 312.59L201.95 313.3Z" fill="#0048B6"/>
<path d="M165.48 306.68L160.12 298.45H123.07L114.89 285.1L115.74 284.57L123.63 297.45H160.66L166.32 306.13L165.48 306.68Z" fill="#0048B6"/>
<path d="M93.41 298.45H76.98V297.45H91.85L84.14 280.6L85.05 280.19L93.41 298.45Z" fill="#0048B6"/>
<path d="M247.77 277.41C245.94 277.41 242.83 277.03 242.83 275.6C242.83 274.17 245.94 273.78 247.77 273.78C249.6 273.78 252.71 274.16 252.71 275.6C252.71 277.04 249.61 277.41 247.77 277.41ZM247.77 274.78C245.43 274.78 243.96 275.33 243.77 275.63C243.91 275.86 245.38 276.41 247.77 276.41C250.16 276.41 251.49 275.9 251.7 275.6C251.49 275.3 250.03 274.78 247.77 274.78Z" fill="#0048B6"/>
<path d="M202.67 316.08C200.84 316.08 197.73 315.7 197.73 314.26C197.73 312.82 200.84 312.44 202.67 312.44C204.5 312.44 207.61 312.83 207.61 314.26C207.61 315.69 204.51 316.08 202.67 316.08ZM202.67 313.44C200.33 313.44 198.86 313.99 198.73 314.29C198.86 314.53 200.33 315.08 202.67 315.08C205.01 315.08 206.39 314.56 206.6 314.26C206.39 313.92 204.94 313.44 202.67 313.44V313.44Z" fill="#0048B6"/>
<path d="M166.8 309.54C164.96 309.54 161.86 309.15 161.86 307.72C161.86 306.29 164.96 305.9 166.8 305.9C168.64 305.9 171.74 306.29 171.74 307.72C171.74 309.15 168.63 309.54 166.8 309.54ZM166.8 306.9C164.46 306.9 162.99 307.45 162.8 307.75C162.94 307.99 164.41 308.54 166.8 308.54C169.19 308.54 170.52 308.02 170.73 307.72C170.52 307.42 169.03 306.92 166.8 306.92V306.9Z" fill="#0048B6"/>
<path d="M73.43 299.76C71.59 299.76 68.49 299.38 68.49 297.94C68.49 296.5 71.59 296.13 73.43 296.13C75.27 296.13 78.37 296.51 78.37 297.94C78.37 299.37 75.26 299.76 73.43 299.76ZM73.43 297.13C71.09 297.13 69.62 297.68 69.43 297.97C69.57 298.21 71.04 298.76 73.43 298.76C75.82 298.76 77.15 298.25 77.36 297.94C77.15 297.64 75.7 297.13 73.43 297.13Z" fill="#0048B6"/>
<path d="M84.8 280.92C82.97 280.92 79.86 280.53 79.86 279.1C79.86 277.67 82.97 277.28 84.8 277.28C86.63 277.28 89.74 277.66 89.74 279.1C89.74 280.54 86.64 280.92 84.8 280.92ZM84.8 278.28C82.46 278.28 80.99 278.83 80.86 279.13C80.99 279.36 82.46 279.92 84.8 279.92C87.14 279.92 88.52 279.4 88.73 279.1C88.52 278.76 87.03 278.24 84.8 278.24V278.28Z" fill="#0048B6"/>
<path opacity="0.1" d="M131.14 285.33C130.267 285.682 129.555 286.345 129.14 287.19C128.14 289.83 132.46 292.1 131.86 294.86C131.13 298.14 125.38 296.7 123.39 299.41C122.11 301.14 123.2 303.78 125.04 304.9C126.88 306.02 129.16 306.02 131.31 306C155.603 305.72 179.883 304.9 204.15 303.54C219.73 302.67 235.7 301.49 249.88 294.98C251.063 294.588 252.064 293.782 252.7 292.71C252.911 292.073 252.972 291.396 252.878 290.732C252.784 290.068 252.539 289.434 252.16 288.88C248.55 282.45 239.88 281.4 232.51 281.11C233.72 277.81 231.51 274.05 228.41 272.33C225.31 270.61 221.68 270.45 218.16 270.33L207.35 269.92C202.91 269.75 198.14 269.68 194.47 272.16C191.47 274.16 189.72 277.57 186.96 279.87C180.52 285.22 170.96 283.27 162.85 281.31C157.44 280 151.3 278.86 145.85 280.42C143.51 281.09 141.78 282.79 139.58 283.54C136.77 284.46 133.89 283.92 131.14 285.33Z" fill="#020202"/>
<path d="M152.64 265.04C151.58 267.36 150.49 269.76 150.51 272.31C150.638 274.828 151.527 277.248 153.06 279.25C156.254 283.726 161.056 286.793 166.46 287.81C167.163 288.01 167.915 287.953 168.58 287.65C169.032 287.344 169.38 286.908 169.58 286.4C170.79 283.76 170.17 280.65 169.25 277.89C168.33 275.13 167.09 272.39 167.13 269.48C167.2 264.02 174.7 253.21 165.53 250.9C157.88 248.92 154.93 260.09 152.64 265.04Z" fill="#FFBBAB"/>
<path d="M202.47 256.6C201.72 259.03 200.97 261.6 201.32 264.08C201.785 266.56 202.992 268.84 204.78 270.62C208.54 274.628 213.702 277.028 219.19 277.32C219.917 277.424 220.657 277.268 221.28 276.88C221.691 276.516 221.981 276.034 222.11 275.5C222.96 272.72 221.93 269.73 220.65 267.12C219.37 264.51 217.78 261.95 217.43 259.06C216.77 253.64 222.77 241.93 213.37 240.86C205.52 239.92 204.08 251.38 202.47 256.6Z" fill="#FFBBAB"/>
<path d="M187.8 162.42C194.07 168.13 200.18 174.05 206.02 180.2C209.579 184.005 212.94 187.991 216.09 192.14C220.87 198.3 222.64 203.26 222.91 211.22C223.32 223.02 223.71 234.96 221.26 246.51C220.68 249.23 219.78 252.15 217.46 253.68C214.04 255.94 209.13 253.81 206.92 250.35C204.71 246.89 204.44 242.59 204.12 238.49C203.42 229.64 202.46 220.49 200.26 211.82C199 206.88 194.78 205.36 190.75 202.69C183.12 197.69 170.43 190.92 166.68 182.07C164.125 175.596 162.02 168.954 160.38 162.19L187.8 162.42Z" fill="#282328"/>
<path d="M175.36 163.46C177.807 171.88 180.103 180.347 182.25 188.86C183.91 195.41 185.51 201.99 186.85 208.61C187.98 214.24 190.47 222.55 189.27 228.09C188.631 230.481 187.643 232.766 186.34 234.87L173.5 257.98C172.824 259.439 171.83 260.727 170.59 261.75C167.92 263.62 161.97 260.7 159.77 258.86C157.57 257.02 156.95 254.48 157.09 251.68C157.8 237.74 164.92 231.51 166.01 217.59C166.01 217.59 139.18 193.72 142.48 163.59C145.78 133.46 175.36 163.46 175.36 163.46Z" fill="#282328"/>
<path d="M212.27 116.13C212.1 119.04 211.16 121.58 208.63 122.42C208.419 122.498 208.201 122.558 207.98 122.6C203.33 123.53 197.23 119.99 192.98 116.9C191.211 115.619 189.515 114.241 187.9 112.77V81.64L210.52 104.8C210.52 104.8 212.59 111.02 212.27 116.13Z" fill="#0048B6"/>
<path d="M193.03 116.8C191.956 122.452 191.287 128.173 191.03 133.92C190.48 143.47 189.15 152.92 187.82 162.41C178.82 164.29 169.56 163.57 160.4 162.18C157.2 161.69 154.02 161.13 150.86 160.56C149.79 160.37 148.86 159.84 147.76 159.56C142.5 158.25 140.38 132.44 139.9 124.35C139.44 116.65 139.283 108.947 139.43 101.24C139.54 95.65 139.98 89.61 143.63 85.39C148.49 79.77 157.88 76.05 165.01 74.74C167.312 74.2689 169.67 74.1375 172.01 74.35C175.34 74.8816 178.555 75.9738 181.52 77.58C185.06 79.33 188.21 80.81 189.95 84.31C191.857 88.3542 193.186 92.6461 193.9 97.06C195.03 103.65 194.29 110.32 193.03 116.8Z" fill="#0048B6"/>
<path opacity="0.1" d="M160.38 162.19C157.18 161.7 154 161.14 150.84 160.57C149.77 160.38 148.84 159.85 147.74 159.57C142.48 158.26 140.36 132.45 139.88 124.36L152.56 109.79C152.56 109.79 149.03 151.82 160.38 162.19Z" fill="#020202"/>
<path d="M176.71 68.1C175.853 69.0283 174.687 69.6116 173.43 69.74C172.381 69.8549 171.323 69.875 170.27 69.8H169.68C169.532 69.7745 169.379 69.8028 169.25 69.88C169.128 70.0057 169.059 70.1745 169.06 70.35C168.83 72.4521 168.79 74.5707 168.94 76.68C168.94 77.06 169 77.44 169.04 77.82C169.118 78.2182 169.083 78.6304 168.94 79.01C168.792 79.2272 168.603 79.4132 168.384 79.5573C168.164 79.7015 167.918 79.8009 167.66 79.85C166.738 80.1613 165.773 80.3267 164.8 80.34C162.72 80.34 160.8 79.29 158.98 78.29C159.12 74.6835 158.93 71.0717 158.41 67.5C157.74 62.92 156.53 58.25 157.03 53.62C157.142 51.7993 157.805 50.0556 158.93 48.62C160.6 46.75 163.29 46.14 165.8 46.15C169.125 46.09 172.398 46.9854 175.23 48.73C176.23 49.44 176.39 50.34 176.63 51.52C176.99 53.34 177.28 55.18 177.48 57.02C177.713 59.12 177.843 61.23 177.87 63.35C177.89 64.99 177.79 66.82 176.71 68.1Z" fill="#FFBBAB"/>
<path d="M173.03 49.78C170.66 50.18 168.03 49.78 165.85 50.68C162.73 51.95 161.4 56 162.44 59.2C161.54 59.53 161.38 57.9 160.68 57.2C159.98 56.5 158.41 57.42 158.3 58.55C158.359 59.6868 158.703 60.7906 159.3 61.76C160.151 63.755 160.299 65.9798 159.72 68.07C159.58 68.56 159.22 69.14 158.72 69.01C158.22 68.88 157.88 68.01 157.58 67.68C157.103 67.1031 156.578 66.5678 156.01 66.08C154.91 65.08 153.7 64.27 152.58 63.33C150.58 61.66 148.73 59.4 148.85 56.8C148.898 55.7265 149.244 54.6876 149.85 53.8C150.362 53.0449 151.022 52.4018 151.79 51.91C152.11 51.71 152.47 51.49 152.54 51.13C152.562 50.924 152.538 50.7156 152.47 50.52C151.78 47.88 153.25 45.05 155.42 43.41C157.707 41.9184 160.315 40.9898 163.03 40.7C164.77 40.39 166.53 40.14 168.28 39.94C169.733 39.8688 171.16 39.5298 172.49 38.94C172.146 37.9866 171.678 37.0823 171.1 36.25C172.343 36.6393 173.524 37.2014 174.61 37.92C174.549 37.3151 174.39 36.724 174.14 36.17C176.05 36.82 178.06 37.55 179.32 39.17C180.051 40.1833 180.459 41.3934 180.491 42.6422C180.523 43.891 180.178 45.1205 179.5 46.17C178.15 48.3 176.02 49.17 173.67 49.72L173.03 49.78Z" fill="#727272"/>
<path d="M170.27 69.8H169.68C169.532 69.7744 169.379 69.8028 169.25 69.88C169.128 70.0057 169.059 70.1745 169.06 70.35C168.83 72.4521 168.79 74.5707 168.94 76.68C168.94 76.68 162.94 75.14 163.1 67.68C165.395 68.6357 167.785 69.3463 170.23 69.8H170.27Z" fill="#E0A194"/>
<path d="M243.09 90.57C241.81 91.38 240.09 91.57 239.26 92.91C238.31 94.42 239.26 96.35 239.47 98.12C239.691 100.071 239.138 102.032 237.93 103.58C237.564 104.065 237.149 104.511 236.69 104.91C234.706 106.522 232.245 107.433 229.69 107.5C229.69 107.5 228.28 101.84 228.32 101.26C228.49 99.26 229.86 97.44 230.08 95.37C230.169 93.1746 230.369 90.9851 230.68 88.81C231.132 86.7095 232.068 84.7434 233.413 83.0682C234.759 81.393 236.477 80.0547 238.43 79.16C238.92 78.94 239.62 78.81 239.89 79.28C239.983 79.4798 240.008 79.7048 239.96 79.92C239.66 82.19 238.18 84.11 236.75 85.92C238.042 85.1809 239.428 84.6192 240.87 84.25C241.51 84.08 242.46 84.18 242.47 84.84C242.446 84.9966 242.39 85.1466 242.306 85.2807C242.221 85.4149 242.111 85.5303 241.98 85.62L238.12 89.08C239.686 88.5717 241.341 88.3913 242.98 88.55C243.255 88.5522 243.521 88.6434 243.74 88.81C244.22 89.32 243.7 90.19 243.09 90.57Z" fill="#FFBBAB"/>
<path d="M243.09 90.57C241.81 91.38 240.09 91.57 239.26 92.91C238.31 94.42 239.26 96.35 239.47 98.12C239.691 100.071 239.138 102.032 237.93 103.58C237.476 103.855 236.993 104.08 236.49 104.25C236.142 104.409 235.749 104.44 235.38 104.34C235.088 104.179 234.86 103.921 234.738 103.611C234.616 103.301 234.606 102.957 234.71 102.64C234.942 102.015 235.229 101.413 235.57 100.84C236.04 99.8146 236.1 98.6487 235.74 97.58C235.288 96.7579 235.006 95.8533 234.91 94.92C235.005 94.3387 235.227 93.7856 235.56 93.3L236.73 91.3C236.936 91.0003 237.072 90.6588 237.13 90.3C237.158 90.1269 237.131 89.9494 237.055 89.7918C236.978 89.6343 236.854 89.5044 236.7 89.42C236.509 89.3744 236.309 89.377 236.118 89.4277C235.928 89.4783 235.754 89.5753 235.61 89.71C234.96 90.18 233.41 92.17 233.61 90.32C233.851 89.0673 234.308 87.8661 234.96 86.77C236.216 84.5298 237.686 82.4166 239.35 80.46C239.525 80.2431 239.719 80.0423 239.93 79.86V79.86C239.63 82.13 238.15 84.05 236.72 85.86C238.012 85.1209 239.398 84.5592 240.84 84.19C241.48 84.02 242.43 84.12 242.44 84.78C242.416 84.9366 242.36 85.0866 242.276 85.2207C242.191 85.3549 242.081 85.4703 241.95 85.56L238.09 89.02C239.656 88.5117 241.311 88.3313 242.95 88.49C243.225 88.4922 243.491 88.5834 243.71 88.75C244.22 89.32 243.7 90.19 243.09 90.57Z" fill="#E0A194"/>
<path d="M87.4 89.3C88.68 90.11 90.4 90.35 91.23 91.64C92.23 93.15 91.23 95.08 91.02 96.85C90.7986 98.8014 91.3516 100.762 92.56 102.31C92.9257 102.795 93.3413 103.241 93.8 103.64C95.7835 105.252 98.2447 106.163 100.8 106.23C100.8 106.23 102.21 100.57 102.17 99.99C102 97.99 100.63 96.17 100.41 94.1C100.321 91.9046 100.121 89.7151 99.81 87.54C99.3578 85.4489 98.426 83.4914 97.088 81.8219C95.75 80.1525 94.0425 78.8167 92.1 77.92C91.61 77.7 90.91 77.57 90.64 78.04C90.5467 78.2398 90.5221 78.4648 90.57 78.68V78.68C90.87 80.95 92.35 82.87 93.78 84.68C92.4878 83.9409 91.1021 83.3792 89.66 83.01C89.03 82.84 88.03 82.92 88.03 83.6C88.0541 83.7566 88.11 83.9066 88.1942 84.0407C88.2785 84.1749 88.3894 84.2903 88.52 84.38L92.38 87.84C90.8135 87.3317 89.1592 87.1513 87.52 87.31C87.2452 87.3122 86.9785 87.4034 86.76 87.57C86.27 88.05 86.79 88.92 87.4 89.3Z" fill="#FFBBAB"/>
<path d="M87.4 89.3C88.68 90.11 90.4 90.35 91.23 91.64C92.23 93.15 91.23 95.08 91.02 96.85C90.7986 98.8014 91.3516 100.762 92.56 102.31C93.0141 102.585 93.497 102.81 94 102.98C94.3482 103.139 94.7408 103.17 95.11 103.07C95.4025 102.909 95.6296 102.651 95.7519 102.341C95.8743 102.031 95.8842 101.687 95.78 101.37C95.5484 100.745 95.2606 100.143 94.92 99.57C94.4504 98.5446 94.3896 97.3787 94.75 96.31C95.2021 95.4879 95.4844 94.5833 95.58 93.65C95.4852 93.0687 95.2633 92.5156 94.93 92.03L93.76 90.03C93.5544 89.7303 93.4178 89.3888 93.36 89.03C93.3321 88.8569 93.3585 88.6794 93.4355 88.5218C93.5125 88.3643 93.6363 88.2344 93.79 88.15C93.9815 88.1044 94.1813 88.107 94.3715 88.1577C94.5618 88.2083 94.7365 88.3053 94.88 88.44C95.53 88.91 97.08 90.9 96.88 89.05C96.6392 87.7973 96.1824 86.5961 95.53 85.5C94.2738 83.2599 92.8036 81.1466 91.14 79.19C90.965 78.9731 90.7709 78.7722 90.56 78.59V78.59C90.86 80.86 92.34 82.78 93.77 84.59C92.4778 83.8509 91.0921 83.2892 89.65 82.92C89.03 82.84 88.03 82.92 88.03 83.6C88.0541 83.7566 88.11 83.9066 88.1942 84.0407C88.2785 84.1749 88.3894 84.2903 88.52 84.38L92.38 87.84C90.8135 87.3317 89.1592 87.1513 87.52 87.31C87.2452 87.3122 86.9785 87.4034 86.76 87.57C86.27 88.05 86.79 88.92 87.4 89.3Z" fill="#E0A194"/>
<path d="M231.13 108.09C228.164 112.302 224.49 115.966 220.27 118.92C217.223 120.99 213.699 122.25 210.03 122.58C209.547 122.623 209.061 122.568 208.6 122.42C207.804 122.194 207.103 121.717 206.6 121.06C205.073 119.238 204.156 116.981 203.98 114.61C203.73 108.41 210.45 104.8 210.45 104.8C210.45 104.8 225.75 99.92 227.57 100.72C228.57 101.15 229.51 103.3 230.17 105.17C230.78 106.73 231.13 108.09 231.13 108.09Z" fill="#0048B6"/>
<path d="M159.269 102.304C163.503 97.5778 163.107 90.3152 158.382 86.0824C153.658 81.8496 146.396 82.2496 142.161 86.9758L121.401 110.146C117.167 114.872 117.563 122.135 122.287 126.367C127.012 130.6 134.274 130.2 138.509 125.474L159.269 102.304Z" fill="#0048B6"/>
<path d="M126.47 110.23L104.26 96.43L95.7 107.5C95.7 107.5 117.27 132.11 125.51 130.84C133.75 129.57 136.68 127.13 136.68 127.13C136.68 127.13 139.79 116.41 126.47 110.23Z" fill="#0048B6"/>
<path opacity="0.1" d="M231.13 108.09C228.164 112.302 224.49 115.966 220.27 118.92C217.223 120.99 213.699 122.25 210.03 122.58C209.547 122.623 209.061 122.568 208.6 122.42C208.389 122.498 208.171 122.558 207.95 122.6C203.3 123.53 197.2 119.99 192.95 116.9V116.8L194.39 107.5C197.177 110.378 200.416 112.78 203.98 114.61C206.495 115.959 209.369 116.491 212.2 116.13C212.964 116.008 213.707 115.783 214.41 115.46C220.089 112.731 225.388 109.272 230.17 105.17C230.78 106.73 231.13 108.09 231.13 108.09Z" fill="#020202"/>
<path d="M198.35 264.51C198.35 264.51 196.05 267.12 196.95 269.43C197.85 271.74 210.08 286.94 223.35 282.79C236.62 278.64 212.16 268.92 212.16 268.92L198.35 264.51Z" fill="#0048B6"/>
<path d="M201.44 257.64C202.002 257.572 202.57 257.708 203.04 258.024C203.51 258.34 203.851 258.814 204 259.36C204.6 261.36 207.61 264.91 211.33 265.29C215.05 265.67 217.8 262.2 219.52 262.78C221.24 263.36 227.63 274.29 226.97 277.78C226.31 281.27 220.81 282.11 215.55 280.64C210.29 279.17 199.9 271.52 198.63 268.04C197.36 264.56 199.65 258.92 201.44 257.64Z" fill="white"/>
<path opacity="0.33" d="M176.6 39.51C176.564 39.6048 176.509 39.6911 176.438 39.7634C176.367 39.8358 176.282 39.8926 176.188 39.9302C176.094 39.9678 175.993 39.9854 175.892 39.982C175.791 39.9785 175.691 39.954 175.6 39.91C175.25 39.745 174.947 39.4938 174.72 39.18C174.377 40.1451 174.338 41.1923 174.61 42.18C174.872 43.161 174.739 44.2058 174.24 45.09C173.98 45.44 173.62 45.69 173.34 46.02C173.181 46.1665 173.061 46.3499 172.989 46.5539C172.918 46.7579 172.897 46.9763 172.93 47.19C173.1 47.87 173.98 48.07 174.67 47.96C175.246 47.8716 175.799 47.6685 176.295 47.3628C176.792 47.057 177.222 46.6548 177.56 46.18C178.246 45.0223 178.637 43.7141 178.7 42.37C178.84 41.2 179.06 40.14 178.25 39.22C178.03 38.97 177.15 38.16 176.8 38.32C176.31 38.51 176.71 39.06 176.6 39.51Z" fill="white"/>
<path opacity="0.33" d="M176.14 60.58C176.08 60.65 176.01 60.72 175.95 60.8C175.847 60.9867 175.792 61.1966 175.792 61.41C175.792 61.6234 175.847 61.8333 175.95 62.02C176.152 62.3972 176.42 62.7357 176.74 63.02C176.82 63.09 176.9 63.17 177 63.16C177.1 63.15 177.21 63.02 177.26 62.9C177.56 61.885 177.632 60.816 177.47 59.77C177.33 58.17 177.14 56.61 176.9 55.05C176.842 53.5984 176.503 52.1719 175.9 50.85C175.693 50.528 175.379 50.2887 175.014 50.1736C174.649 50.0585 174.254 50.075 173.9 50.22C172.78 50.7 173.51 51.94 173.82 52.75C174.11 53.7508 174.291 54.7802 174.36 55.82C174.426 56.8709 174.834 57.8715 175.52 58.67C175.777 58.8819 176.017 59.1125 176.24 59.36C176.351 59.4867 176.425 59.641 176.455 59.8065C176.485 59.972 176.469 60.1426 176.41 60.3C176.337 60.4081 176.245 60.5028 176.14 60.58V60.58Z" fill="white"/>
<path opacity="0.33" d="M212.48 107.99C212.014 108.114 211.532 108.165 211.05 108.14C210.432 108.031 209.842 107.803 209.31 107.47C208.029 106.835 206.825 106.057 205.72 105.15C204.613 104.237 203.843 102.98 203.53 101.58C206.29 102.35 208.53 104.92 211.38 104.9C212.297 104.844 213.2 104.652 214.06 104.33L218.27 102.98C221.14 102.07 224.13 101.14 227.1 101.58C227.22 101.587 227.334 101.636 227.42 101.72C227.454 101.767 227.477 101.821 227.487 101.878C227.498 101.935 227.495 101.994 227.48 102.05C227.29 103.21 226 103.41 225.1 103.74C223.7 104.26 222.36 104.95 220.96 105.48C218.198 106.52 215.364 107.359 212.48 107.99V107.99Z" fill="white"/>
<path opacity="0.33" d="M180.59 91.4C183.613 95.6485 185.705 100.487 186.73 105.6C187.38 108.87 187.64 112.36 189.52 115.1C190.83 114.3 191.05 112.52 191.06 110.99C190.944 105.886 190.392 100.8 189.41 95.79C189.098 93.3689 188.514 90.9905 187.67 88.7C186.607 86.1896 184.938 83.9821 182.812 82.2753C180.687 80.5684 178.171 79.4156 175.49 78.92C175.262 78.7959 175.001 78.7453 174.743 78.7751C174.485 78.805 174.242 78.9138 174.049 79.0868C173.855 79.2597 173.719 79.4884 173.66 79.7413C173.602 79.9943 173.622 80.2593 173.72 80.5C174.174 83.6812 175.796 86.5796 178.27 88.63" fill="white"/>
<path d="M102.21 9.92V62C67.28 56.24 44.47 46.73 44.47 36C44.47 25.27 67.28 15.7 102.21 9.92Z" fill="url(#paint0_linear)"/>
<path d="M142.2 66.52V265.92C127.72 264.92 114.25 263.39 102.2 261.4C67.27 255.64 44.46 246.13 44.46 235.4V35.97C44.46 46.73 67.27 56.24 102.2 61.97C114.25 63.99 127.72 65.53 142.2 66.52Z" fill="url(#paint1_linear)"/>
<path d="M252.21 9.92V62C287.14 56.24 309.95 46.73 309.95 36C309.95 25.27 287.14 15.7 252.21 9.92Z" fill="url(#paint2_linear)"/>
<path d="M212.22 66.52V265.92C226.7 264.92 240.17 263.39 252.22 261.4C287.15 255.64 309.96 246.13 309.96 235.4V35.97C309.96 46.73 287.15 56.24 252.22 61.97C240.17 63.99 226.7 65.53 212.22 66.52Z" fill="url(#paint3_linear)"/>
<path d="M239.47 107.16V249.57C249.81 248.86 259.47 247.76 268.03 246.34C292.98 242.23 309.27 235.44 309.27 227.75V85.34C309.27 93.03 292.98 99.82 268.03 103.93C259.44 105.35 249.81 106.45 239.47 107.16Z" fill="url(#paint4_linear)"/>
<path d="M252.21 93.98V236.39C262.55 235.69 272.21 234.59 280.77 233.17C305.72 229.05 322.01 222.26 322.01 214.57V72.16C322.01 79.85 305.72 86.64 280.77 90.76C272.17 92.18 262.55 93.28 252.21 93.98Z" fill="white"/>
<path d="M252.21 93.98V236.39C262.55 235.69 272.21 234.59 280.77 233.17C305.72 229.05 322.01 222.26 322.01 214.57V72.16C322.01 79.85 305.72 86.64 280.77 90.76C272.17 92.18 262.55 93.28 252.21 93.98Z" fill="url(#paint5_linear)"/>
<path d="M65.3168 192.104C76.8473 191.288 84.8127 171.11 83.1082 147.035C81.4036 122.961 70.6745 104.106 59.144 104.923C47.6136 105.739 39.6481 125.917 41.3527 149.992C43.0573 174.066 53.7864 192.921 65.3168 192.104Z" fill="#0048B6"/>
<path d="M65.3168 192.104C76.8473 191.288 84.8127 171.11 83.1082 147.035C81.4036 122.961 70.6745 104.106 59.144 104.923C47.6136 105.739 39.6481 125.917 41.3527 149.992C43.0573 174.066 53.7864 192.921 65.3168 192.104Z" fill="#0048B6"/>
<path opacity="0.29" d="M65.3168 192.104C76.8473 191.288 84.8127 171.11 83.1082 147.035C81.4036 122.961 70.6745 104.106 59.144 104.923C47.6136 105.739 39.6481 125.917 41.3527 149.992C43.0573 174.066 53.7864 192.921 65.3168 192.104Z" fill="#020202"/>
<path d="M75.33 170.56C72.55 183.33 66.53 192.14 58.99 192.68C47.46 193.5 36.73 174.68 34.99 150.57C33.25 126.46 41.25 106.31 52.78 105.49C64.31 104.67 75.05 123.49 76.78 147.61C77.3771 155.29 76.8889 163.016 75.33 170.56V170.56Z" fill="#0048B6"/>
<path d="M309.66 111.44L309.31 110.51C311.769 109.643 314.118 108.492 316.31 107.08L316.88 107.91C314.618 109.363 312.195 110.547 309.66 111.44Z" fill="#0048B6"/>
<path d="M294.74 115.53L294.54 114.53C296.61 114.09 298.62 113.63 300.54 113.16L300.79 114.16C298.85 114.64 296.83 115.1 294.74 115.53Z" fill="#0048B6"/>
<path d="M268.45 119.41L268.36 118.41C268.41 118.41 273.43 117.97 280.25 117.01L280.39 118.01C273.54 118.92 268.5 119.4 268.45 119.41Z" fill="#0048B6"/>
<path d="M277.69 133.46L277.61 132.46C277.61 132.46 280.55 132.23 284.81 131.65C293.04 130.51 308.08 127.77 316.33 122.18L316.9 123C308.48 128.71 293.27 131.49 284.95 132.64C280.65 133.23 277.72 133.46 277.69 133.46Z" fill="#0048B6"/>
<path d="M306.86 120.92L306.56 119.92C310.002 118.938 313.291 117.481 316.33 115.59L316.9 116.41C313.782 118.379 310.402 119.897 306.86 120.92Z" fill="#0048B6"/>
<path d="M291.19 124.47L291.08 123.47C294.975 122.941 298.83 122.153 302.62 121.11L302.87 122.11C299.032 123.148 295.13 123.937 291.19 124.47Z" fill="#0048B6"/>
<path d="M270.49 126.92L270.43 125.92C270.5 125.92 276.96 125.52 285.14 124.4L285.27 125.4C277.03 126.53 270.56 126.92 270.49 126.92Z" fill="#0048B6"/>
<path d="M279.03 148.37L278.95 147.37C279.2 147.37 304.3 145.42 316.31 137.27L316.88 138.1C304.66 146.39 280.09 148.29 279.03 148.37Z" fill="#0048B6"/>
<path d="M279.03 141.44L278.95 140.44C279.2 140.44 304.3 138.44 316.31 130.33L316.88 131.16C304.66 139.46 280.09 141.36 279.03 141.44Z" fill="#0048B6"/>
<path d="M268.43 164.69V163.69C268.69 163.69 295.29 162.15 308.54 156.09L308.96 156.99C295.48 163.14 268.7 164.67 268.43 164.69Z" fill="#0048B6"/>
<path d="M280.35 178.38L280.28 177.38C280.52 177.38 304.28 175.6 316.33 167.46L316.9 168.28C304.66 176.58 280.59 178.36 280.35 178.38Z" fill="#0048B6"/>
<path d="M280.35 171.05L280.28 170.05C280.52 170.05 304.28 168.28 316.33 160.13L316.9 160.96C304.66 169.26 280.59 171.04 280.35 171.05Z" fill="#0048B6"/>
<path d="M268.43 192V191C268.69 191 295.29 189.47 308.54 183.4L308.96 184.31C295.48 190.46 268.7 191.99 268.43 192Z" fill="#0048B6"/>
<path d="M280.35 205.69L280.28 204.69C280.52 204.69 304.28 202.92 316.33 194.77L316.9 195.6C304.66 203.92 280.59 205.67 280.35 205.69Z" fill="#0048B6"/>
<path d="M280.35 198.37L280.28 197.37C280.52 197.37 304.28 195.59 316.33 187.45L316.9 188.27C304.66 196.57 280.59 198.35 280.35 198.37Z" fill="#0048B6"/>
<path d="M75.33 170.56L52.81 145.7V105.49C64.34 104.67 75.08 123.49 76.81 147.61C77.3972 155.292 76.899 163.018 75.33 170.56V170.56Z" fill="#0048B6"/>
<path d="M75.33 170.56L52.81 145.7V105.49C64.34 104.67 75.08 123.49 76.81 147.61C77.3972 155.292 76.899 163.018 75.33 170.56V170.56Z" fill="white"/>
<path d="M75.33 170.56L52.81 145.7V105.49C64.34 104.67 75.08 123.49 76.81 147.61C77.3972 155.292 76.899 163.018 75.33 170.56V170.56Z" fill="#0048B6"/>
<path opacity="0.29" d="M75.33 170.56L52.81 145.7V105.49C64.34 104.67 75.08 123.49 76.81 147.61C77.3972 155.292 76.899 163.018 75.33 170.56V170.56Z" fill="#020202"/>
<path d="M147.74 270.51C147.74 270.51 145.02 272.67 145.5 275.11C145.98 277.55 155.33 294.66 169.13 292.92C182.93 291.18 160.56 277.33 160.56 277.33L147.74 270.51Z" fill="#0048B6"/>
<path d="M152.03 264.3C152.594 264.333 153.128 264.567 153.536 264.96C153.943 265.352 154.196 265.877 154.25 266.44C154.49 268.5 156.82 272.54 160.41 273.57C164 274.6 167.33 271.67 168.92 272.57C170.51 273.47 174.87 285.34 173.6 288.67C172.33 292 166.78 291.84 161.86 289.46C156.94 287.08 148.06 277.73 147.43 274.08C146.8 270.43 150.03 265.25 152.03 264.3Z" fill="white"/>
<path d="M52.81 105.49L60.94 104.96C60.94 104.96 74.39 104.46 81.11 133.5C84.1524 146.008 84.1799 159.06 81.19 171.58L75.33 170.58C75.33 170.58 80.82 111.37 52.81 105.49Z" fill="#0048B6"/>
<path opacity="0.62" d="M52.81 105.49L60.94 104.96C60.94 104.96 74.39 104.46 81.11 133.5C84.1524 146.008 84.1799 159.06 81.19 171.58L75.33 170.58C75.33 170.58 80.82 111.37 52.81 105.49Z" fill="#020202"/>
</g>
<defs>
<linearGradient id="paint0_linear" x1="2.56997" y1="100.32" x2="203.03" y2="-51.92" gradientUnits="userSpaceOnUse">
<stop offset="0.01"/>
<stop offset="0.13" stop-opacity="0.69"/>
<stop offset="0.25" stop-opacity="0.32"/>
<stop offset="1" stop-opacity="0"/>
</linearGradient>
<linearGradient id="paint1_linear" x1="-8802.97" y1="64415.1" x2="52772.9" y2="48972.3" gradientUnits="userSpaceOnUse">
<stop offset="0.01"/>
<stop offset="0.13" stop-opacity="0.69"/>
<stop offset="0.25" stop-opacity="0.32"/>
<stop offset="1" stop-opacity="0"/>
</linearGradient>
<linearGradient id="paint2_linear" x1="21004" y1="6249.62" x2="8708.43" y2="-5664.24" gradientUnits="userSpaceOnUse">
<stop offset="0.01"/>
<stop offset="0.13" stop-opacity="0.69"/>
<stop offset="0.25" stop-opacity="0.32"/>
<stop offset="1" stop-opacity="0"/>
</linearGradient>
<linearGradient id="paint3_linear" x1="41671.6" y1="42864.2" x2="-3680.26" y2="40173.6" gradientUnits="userSpaceOnUse">
<stop offset="0.01"/>
<stop offset="0.13" stop-opacity="0.69"/>
<stop offset="0.25" stop-opacity="0.32"/>
<stop offset="1" stop-opacity="0"/>
</linearGradient>
<linearGradient id="paint4_linear" x1="27682" y1="22261.3" x2="4989.06" y2="26667.3" gradientUnits="userSpaceOnUse">
<stop offset="0.01"/>
<stop offset="0.13" stop-opacity="0.69"/>
<stop offset="0.25" stop-opacity="0.32"/>
<stop offset="1" stop-opacity="0"/>
</linearGradient>
<linearGradient id="paint5_linear" x1="28774.6" y1="27886.2" x2="14095.4" y2="27829.8" gradientUnits="userSpaceOnUse">
<stop offset="0.01"/>
<stop offset="0.13" stop-opacity="0.69"/>
<stop offset="0.25" stop-opacity="0.32"/>
<stop offset="1" stop-opacity="0"/>
</linearGradient>
<clipPath id="clip0">
<rect width="369.39" height="327.32" fill="white"/>
</clipPath>
</defs>
</svg>
